<?xml version="1.0" encoding="utf-8"?>
<svg xmlns="http://www.w3.org/2000/svg" xmlns:xlink="http://www.w3.org/1999/xlink" width="600" height="400" viewBox="0 0 2400 1600">
<defs>
  <clipPath id="clip870">
    <rect x="0" y="0" width="2400" height="1600"/>
  </clipPath>
</defs>
<path clip-path="url(#clip870)" d="
M0 1600 L2400 1600 L2400 0 L0 0  Z
  " fill="#ffffff" fill-rule="evenodd" fill-opacity="1"/>
<defs>
  <clipPath id="clip871">
    <rect x="480" y="0" width="1681" height="1600"/>
  </clipPath>
</defs>
<path clip-path="url(#clip870)" d="
M224.098 1486.45 L2352.76 1486.45 L2352.76 47.2441 L224.098 47.2441  Z
  " fill="#ffffff" fill-rule="evenodd" fill-opacity="1"/>
<defs>
  <clipPath id="clip872">
    <rect x="224" y="47" width="2130" height="1440"/>
  </clipPath>
</defs>
<polyline clip-path="url(#clip872)" style="stroke:#000000; stroke-linecap:butt; stroke-linejoin:round; stroke-width:2; stroke-opacity:0.1; fill:none" points="
  485.16,1486.45 485.16,47.2441 
  "/>
<polyline clip-path="url(#clip872)" style="stroke:#000000; stroke-linecap:butt; stroke-linejoin:round; stroke-width:2; stroke-opacity:0.1; fill:none" points="
  886.793,1486.45 886.793,47.2441 
  "/>
<polyline clip-path="url(#clip872)" style="stroke:#000000; stroke-linecap:butt; stroke-linejoin:round; stroke-width:2; stroke-opacity:0.1; fill:none" points="
  1288.43,1486.45 1288.43,47.2441 
  "/>
<polyline clip-path="url(#clip872)" style="stroke:#000000; stroke-linecap:butt; stroke-linejoin:round; stroke-width:2; stroke-opacity:0.1; fill:none" points="
  1690.06,1486.45 1690.06,47.2441 
  "/>
<polyline clip-path="url(#clip872)" style="stroke:#000000; stroke-linecap:butt; stroke-linejoin:round; stroke-width:2; stroke-opacity:0.1; fill:none" points="
  2091.69,1486.45 2091.69,47.2441 
  "/>
<polyline clip-path="url(#clip870)" style="stroke:#000000; stroke-linecap:butt; stroke-linejoin:round; stroke-width:4; stroke-opacity:1; fill:none" points="
  224.098,1486.45 2352.76,1486.45 
  "/>
<polyline clip-path="url(#clip870)" style="stroke:#000000; stroke-linecap:butt; stroke-linejoin:round; stroke-width:4; stroke-opacity:1; fill:none" points="
  485.16,1486.45 485.16,1467.55 
  "/>
<polyline clip-path="url(#clip870)" style="stroke:#000000; stroke-linecap:butt; stroke-linejoin:round; stroke-width:4; stroke-opacity:1; fill:none" points="
  886.793,1486.45 886.793,1467.55 
  "/>
<polyline clip-path="url(#clip870)" style="stroke:#000000; stroke-linecap:butt; stroke-linejoin:round; stroke-width:4; stroke-opacity:1; fill:none" points="
  1288.43,1486.45 1288.43,1467.55 
  "/>
<polyline clip-path="url(#clip870)" style="stroke:#000000; stroke-linecap:butt; stroke-linejoin:round; stroke-width:4; stroke-opacity:1; fill:none" points="
  1690.06,1486.45 1690.06,1467.55 
  "/>
<polyline clip-path="url(#clip870)" style="stroke:#000000; stroke-linecap:butt; stroke-linejoin:round; stroke-width:4; stroke-opacity:1; fill:none" points="
  2091.69,1486.45 2091.69,1467.55 
  "/>
<path clip-path="url(#clip870)" d="M454.06 1532.02 L483.736 1532.02 L483.736 1535.95 L454.06 1535.95 L454.06 1532.02 Z" fill="#000000" fill-rule="evenodd" fill-opacity="1" /><path clip-path="url(#clip870)" d="M506.676 1518.36 L494.87 1536.81 L506.676 1536.81 L506.676 1518.36 M505.449 1514.29 L511.329 1514.29 L511.329 1536.81 L516.259 1536.81 L516.259 1540.7 L511.329 1540.7 L511.329 1548.85 L506.676 1548.85 L506.676 1540.7 L491.074 1540.7 L491.074 1536.19 L505.449 1514.29 Z" fill="#000000" fill-rule="evenodd" fill-opacity="1" /><path clip-path="url(#clip870)" d="M856.736 1532.02 L886.411 1532.02 L886.411 1535.95 L856.736 1535.95 L856.736 1532.02 Z" fill="#000000" fill-rule="evenodd" fill-opacity="1" /><path clip-path="url(#clip870)" d="M900.532 1544.91 L916.851 1544.91 L916.851 1548.85 L894.907 1548.85 L894.907 1544.91 Q897.569 1542.16 902.152 1537.53 Q906.758 1532.88 907.939 1531.53 Q910.184 1529.01 911.064 1527.27 Q911.967 1525.51 911.967 1523.82 Q911.967 1521.07 910.022 1519.33 Q908.101 1517.6 904.999 1517.6 Q902.8 1517.6 900.346 1518.36 Q897.916 1519.13 895.138 1520.68 L895.138 1515.95 Q897.962 1514.82 900.416 1514.24 Q902.87 1513.66 904.907 1513.66 Q910.277 1513.66 913.471 1516.35 Q916.666 1519.03 916.666 1523.52 Q916.666 1525.65 915.856 1527.57 Q915.069 1529.47 912.962 1532.07 Q912.383 1532.74 909.282 1535.95 Q906.18 1539.15 900.532 1544.91 Z" fill="#000000" fill-rule="evenodd" fill-opacity="1" /><path clip-path="url(#clip870)" d="M1288.43 1517.37 Q1284.82 1517.37 1282.99 1520.93 Q1281.18 1524.47 1281.18 1531.6 Q1281.18 1538.71 1282.99 1542.27 Q1284.82 1545.82 1288.43 1545.82 Q1292.06 1545.82 1293.87 1542.27 Q1295.7 1538.71 1295.7 1531.6 Q1295.7 1524.47 1293.87 1520.93 Q1292.06 1517.37 1288.43 1517.37 M1288.43 1513.66 Q1294.24 1513.66 1297.29 1518.27 Q1300.37 1522.85 1300.37 1531.6 Q1300.37 1540.33 1297.29 1544.94 Q1294.24 1549.52 1288.43 1549.52 Q1282.62 1549.52 1279.54 1544.94 Q1276.48 1540.33 1276.48 1531.6 Q1276.48 1522.85 1279.54 1518.27 Q1282.62 1513.66 1288.43 1513.66 Z" fill="#000000" fill-rule="evenodd" fill-opacity="1" /><path clip-path="url(#clip870)" d="M1684.71 1544.91 L1701.03 1544.91 L1701.03 1548.85 L1679.09 1548.85 L1679.09 1544.91 Q1681.75 1542.16 1686.33 1537.53 Q1690.94 1532.88 1692.12 1531.53 Q1694.37 1529.01 1695.25 1527.27 Q1696.15 1525.51 1696.15 1523.82 Q1696.15 1521.07 1694.2 1519.33 Q1692.28 1517.6 1689.18 1517.6 Q1686.98 1517.6 1684.53 1518.36 Q1682.1 1519.13 1679.32 1520.68 L1679.32 1515.95 Q1682.14 1514.82 1684.6 1514.24 Q1687.05 1513.66 1689.09 1513.66 Q1694.46 1513.66 1697.65 1516.35 Q1700.85 1519.03 1700.85 1523.52 Q1700.85 1525.65 1700.04 1527.57 Q1699.25 1529.47 1697.14 1532.07 Q1696.57 1532.74 1693.46 1535.95 Q1690.36 1539.15 1684.71 1544.91 Z" fill="#000000" fill-rule="evenodd" fill-opacity="1" /><path clip-path="url(#clip870)" d="M2094.7 1518.36 L2082.9 1536.81 L2094.7 1536.81 L2094.7 1518.36 M2093.48 1514.29 L2099.36 1514.29 L2099.36 1536.81 L2104.29 1536.81 L2104.29 1540.7 L2099.36 1540.7 L2099.36 1548.85 L2094.7 1548.85 L2094.7 1540.7 L2079.1 1540.7 L2079.1 1536.19 L2093.48 1514.29 Z" fill="#000000" fill-rule="evenodd" fill-opacity="1" /><polyline clip-path="url(#clip872)" style="stroke:#000000; stroke-linecap:butt; stroke-linejoin:round; stroke-width:2; stroke-opacity:0.1; fill:none" points="
  224.098,1360.83 2352.76,1360.83 
  "/>
<polyline clip-path="url(#clip872)" style="stroke:#000000; stroke-linecap:butt; stroke-linejoin:round; stroke-width:2; stroke-opacity:0.1; fill:none" points="
  224.098,1063.84 2352.76,1063.84 
  "/>
<polyline clip-path="url(#clip872)" style="stroke:#000000; stroke-linecap:butt; stroke-linejoin:round; stroke-width:2; stroke-opacity:0.1; fill:none" points="
  224.098,766.846 2352.76,766.846 
  "/>
<polyline clip-path="url(#clip872)" style="stroke:#000000; stroke-linecap:butt; stroke-linejoin:round; stroke-width:2; stroke-opacity:0.1; fill:none" points="
  224.098,469.856 2352.76,469.856 
  "/>
<polyline clip-path="url(#clip872)" style="stroke:#000000; stroke-linecap:butt; stroke-linejoin:round; stroke-width:2; stroke-opacity:0.1; fill:none" points="
  224.098,172.867 2352.76,172.867 
  "/>
<polyline clip-path="url(#clip870)" style="stroke:#000000; stroke-linecap:butt; stroke-linejoin:round; stroke-width:4; stroke-opacity:1; fill:none" points="
  224.098,1486.45 224.098,47.2441 
  "/>
<polyline clip-path="url(#clip870)" style="stroke:#000000; stroke-linecap:butt; stroke-linejoin:round; stroke-width:4; stroke-opacity:1; fill:none" points="
  224.098,1360.83 242.996,1360.83 
  "/>
<polyline clip-path="url(#clip870)" style="stroke:#000000; stroke-linecap:butt; stroke-linejoin:round; stroke-width:4; stroke-opacity:1; fill:none" points="
  224.098,1063.84 242.996,1063.84 
  "/>
<polyline clip-path="url(#clip870)" style="stroke:#000000; stroke-linecap:butt; stroke-linejoin:round; stroke-width:4; stroke-opacity:1; fill:none" points="
  224.098,766.846 242.996,766.846 
  "/>
<polyline clip-path="url(#clip870)" style="stroke:#000000; stroke-linecap:butt; stroke-linejoin:round; stroke-width:4; stroke-opacity:1; fill:none" points="
  224.098,469.856 242.996,469.856 
  "/>
<polyline clip-path="url(#clip870)" style="stroke:#000000; stroke-linecap:butt; stroke-linejoin:round; stroke-width:4; stroke-opacity:1; fill:none" points="
  224.098,172.867 242.996,172.867 
  "/>
<path clip-path="url(#clip870)" d="M50.9921 1361.28 L80.6679 1361.28 L80.6679 1365.21 L50.9921 1365.21 L50.9921 1361.28 Z" fill="#000000" fill-rule="evenodd" fill-opacity="1" /><path clip-path="url(#clip870)" d="M100.76 1346.62 Q97.1493 1346.62 95.3206 1350.19 Q93.515 1353.73 93.515 1360.86 Q93.515 1367.97 95.3206 1371.53 Q97.1493 1375.07 100.76 1375.07 Q104.395 1375.07 106.2 1371.53 Q108.029 1367.97 108.029 1360.86 Q108.029 1353.73 106.2 1350.19 Q104.395 1346.62 100.76 1346.62 M100.76 1342.92 Q106.571 1342.92 109.626 1347.53 Q112.705 1352.11 112.705 1360.86 Q112.705 1369.59 109.626 1374.19 Q106.571 1378.78 100.76 1378.78 Q94.9502 1378.78 91.8715 1374.19 Q88.816 1369.59 88.816 1360.86 Q88.816 1352.11 91.8715 1347.53 Q94.9502 1342.92 100.76 1342.92 Z" fill="#000000" fill-rule="evenodd" fill-opacity="1" /><path clip-path="url(#clip870)" d="M120.922 1372.23 L125.807 1372.23 L125.807 1378.11 L120.922 1378.11 L120.922 1372.23 Z" fill="#000000" fill-rule="evenodd" fill-opacity="1" /><path clip-path="url(#clip870)" d="M136.038 1343.55 L154.394 1343.55 L154.394 1347.48 L140.32 1347.48 L140.32 1355.95 Q141.339 1355.61 142.357 1355.44 Q143.376 1355.26 144.394 1355.26 Q150.181 1355.26 153.561 1358.43 Q156.941 1361.6 156.941 1367.02 Q156.941 1372.6 153.468 1375.7 Q149.996 1378.78 143.677 1378.78 Q141.501 1378.78 139.232 1378.41 Q136.987 1378.04 134.58 1377.29 L134.58 1372.6 Q136.663 1373.73 138.885 1374.29 Q141.107 1374.84 143.584 1374.84 Q147.589 1374.84 149.927 1372.73 Q152.265 1370.63 152.265 1367.02 Q152.265 1363.41 149.927 1361.3 Q147.589 1359.19 143.584 1359.19 Q141.709 1359.19 139.834 1359.61 Q137.982 1360.03 136.038 1360.91 L136.038 1343.55 Z" fill="#000000" fill-rule="evenodd" fill-opacity="1" /><path clip-path="url(#clip870)" d="M176.153 1346.62 Q172.542 1346.62 170.714 1350.19 Q168.908 1353.73 168.908 1360.86 Q168.908 1367.97 170.714 1371.53 Q172.542 1375.07 176.153 1375.07 Q179.788 1375.07 181.593 1371.53 Q183.422 1367.97 183.422 1360.86 Q183.422 1353.73 181.593 1350.19 Q179.788 1346.62 176.153 1346.62 M176.153 1342.92 Q181.964 1342.92 185.019 1347.53 Q188.098 1352.11 188.098 1360.86 Q188.098 1369.59 185.019 1374.19 Q181.964 1378.78 176.153 1378.78 Q170.343 1378.78 167.265 1374.19 Q164.209 1369.59 164.209 1360.86 Q164.209 1352.11 167.265 1347.53 Q170.343 1342.92 176.153 1342.92 Z" fill="#000000" fill-rule="evenodd" fill-opacity="1" /><path clip-path="url(#clip870)" d="M51.9875 1064.29 L81.6633 1064.29 L81.6633 1068.22 L51.9875 1068.22 L51.9875 1064.29 Z" fill="#000000" fill-rule="evenodd" fill-opacity="1" /><path clip-path="url(#clip870)" d="M101.756 1049.63 Q98.1447 1049.63 96.316 1053.2 Q94.5104 1056.74 94.5104 1063.87 Q94.5104 1070.98 96.316 1074.54 Q98.1447 1078.08 101.756 1078.08 Q105.39 1078.08 107.196 1074.54 Q109.024 1070.98 109.024 1063.87 Q109.024 1056.74 107.196 1053.2 Q105.39 1049.63 101.756 1049.63 M101.756 1045.93 Q107.566 1045.93 110.621 1050.54 Q113.7 1055.12 113.7 1063.87 Q113.7 1072.6 110.621 1077.2 Q107.566 1081.79 101.756 1081.79 Q95.9456 1081.79 92.8669 1077.2 Q89.8114 1072.6 89.8114 1063.87 Q89.8114 1055.12 92.8669 1050.54 Q95.9456 1045.93 101.756 1045.93 Z" fill="#000000" fill-rule="evenodd" fill-opacity="1" /><path clip-path="url(#clip870)" d="M121.918 1075.24 L126.802 1075.24 L126.802 1081.12 L121.918 1081.12 L121.918 1075.24 Z" fill="#000000" fill-rule="evenodd" fill-opacity="1" /><path clip-path="url(#clip870)" d="M141.015 1077.18 L157.334 1077.18 L157.334 1081.12 L135.39 1081.12 L135.39 1077.18 Q138.052 1074.43 142.635 1069.8 Q147.242 1065.14 148.422 1063.8 Q150.668 1061.28 151.547 1059.54 Q152.45 1057.78 152.45 1056.09 Q152.45 1053.34 150.505 1051.6 Q148.584 1049.87 145.482 1049.87 Q143.283 1049.87 140.83 1050.63 Q138.399 1051.39 135.621 1052.94 L135.621 1048.22 Q138.445 1047.09 140.899 1046.51 Q143.353 1045.93 145.39 1045.93 Q150.76 1045.93 153.955 1048.62 Q157.149 1051.3 157.149 1055.79 Q157.149 1057.92 156.339 1059.84 Q155.552 1061.74 153.445 1064.33 Q152.867 1065 149.765 1068.22 Q146.663 1071.42 141.015 1077.18 Z" fill="#000000" fill-rule="evenodd" fill-opacity="1" /><path clip-path="url(#clip870)" d="M167.195 1046.56 L185.552 1046.56 L185.552 1050.49 L171.478 1050.49 L171.478 1058.96 Q172.496 1058.62 173.515 1058.45 Q174.533 1058.27 175.552 1058.27 Q181.339 1058.27 184.718 1061.44 Q188.098 1064.61 188.098 1070.03 Q188.098 1075.61 184.626 1078.71 Q181.153 1081.79 174.834 1081.79 Q172.658 1081.79 170.39 1081.42 Q168.144 1081.05 165.737 1080.31 L165.737 1075.61 Q167.82 1076.74 170.042 1077.3 Q172.265 1077.85 174.741 1077.85 Q178.746 1077.85 181.084 1075.75 Q183.422 1073.64 183.422 1070.03 Q183.422 1066.42 181.084 1064.31 Q178.746 1062.2 174.741 1062.2 Q172.866 1062.2 170.991 1062.62 Q169.14 1063.04 167.195 1063.92 L167.195 1046.56 Z" fill="#000000" fill-rule="evenodd" fill-opacity="1" /><path clip-path="url(#clip870)" d="M100.76 752.645 Q97.1493 752.645 95.3206 756.209 Q93.515 759.751 93.515 766.881 Q93.515 773.987 95.3206 777.552 Q97.1493 781.094 100.76 781.094 Q104.395 781.094 106.2 777.552 Q108.029 773.987 108.029 766.881 Q108.029 759.751 106.2 756.209 Q104.395 752.645 100.76 752.645 M100.76 748.941 Q106.571 748.941 109.626 753.547 Q112.705 758.131 112.705 766.881 Q112.705 775.608 109.626 780.214 Q106.571 784.797 100.76 784.797 Q94.9502 784.797 91.8715 780.214 Q88.816 775.608 88.816 766.881 Q88.816 758.131 91.8715 753.547 Q94.9502 748.941 100.76 748.941 Z" fill="#000000" fill-rule="evenodd" fill-opacity="1" /><path clip-path="url(#clip870)" d="M120.922 778.246 L125.807 778.246 L125.807 784.126 L120.922 784.126 L120.922 778.246 Z" fill="#000000" fill-rule="evenodd" fill-opacity="1" /><path clip-path="url(#clip870)" d="M145.992 752.645 Q142.381 752.645 140.552 756.209 Q138.746 759.751 138.746 766.881 Q138.746 773.987 140.552 777.552 Q142.381 781.094 145.992 781.094 Q149.626 781.094 151.431 777.552 Q153.26 773.987 153.26 766.881 Q153.26 759.751 151.431 756.209 Q149.626 752.645 145.992 752.645 M145.992 748.941 Q151.802 748.941 154.857 753.547 Q157.936 758.131 157.936 766.881 Q157.936 775.608 154.857 780.214 Q151.802 784.797 145.992 784.797 Q140.181 784.797 137.103 780.214 Q134.047 775.608 134.047 766.881 Q134.047 758.131 137.103 753.547 Q140.181 748.941 145.992 748.941 Z" fill="#000000" fill-rule="evenodd" fill-opacity="1" /><path clip-path="url(#clip870)" d="M176.153 752.645 Q172.542 752.645 170.714 756.209 Q168.908 759.751 168.908 766.881 Q168.908 773.987 170.714 777.552 Q172.542 781.094 176.153 781.094 Q179.788 781.094 181.593 777.552 Q183.422 773.987 183.422 766.881 Q183.422 759.751 181.593 756.209 Q179.788 752.645 176.153 752.645 M176.153 748.941 Q181.964 748.941 185.019 753.547 Q188.098 758.131 188.098 766.881 Q188.098 775.608 185.019 780.214 Q181.964 784.797 176.153 784.797 Q170.343 784.797 167.265 780.214 Q164.209 775.608 164.209 766.881 Q164.209 758.131 167.265 753.547 Q170.343 748.941 176.153 748.941 Z" fill="#000000" fill-rule="evenodd" fill-opacity="1" /><path clip-path="url(#clip870)" d="M101.756 455.655 Q98.1447 455.655 96.316 459.22 Q94.5104 462.762 94.5104 469.891 Q94.5104 476.998 96.316 480.562 Q98.1447 484.104 101.756 484.104 Q105.39 484.104 107.196 480.562 Q109.024 476.998 109.024 469.891 Q109.024 462.762 107.196 459.22 Q105.39 455.655 101.756 455.655 M101.756 451.951 Q107.566 451.951 110.621 456.558 Q113.7 461.141 113.7 469.891 Q113.7 478.618 110.621 483.224 Q107.566 487.808 101.756 487.808 Q95.9456 487.808 92.8669 483.224 Q89.8114 478.618 89.8114 469.891 Q89.8114 461.141 92.8669 456.558 Q95.9456 451.951 101.756 451.951 Z" fill="#000000" fill-rule="evenodd" fill-opacity="1" /><path clip-path="url(#clip870)" d="M121.918 481.257 L126.802 481.257 L126.802 487.136 L121.918 487.136 L121.918 481.257 Z" fill="#000000" fill-rule="evenodd" fill-opacity="1" /><path clip-path="url(#clip870)" d="M141.015 483.201 L157.334 483.201 L157.334 487.136 L135.39 487.136 L135.39 483.201 Q138.052 480.447 142.635 475.817 Q147.242 471.164 148.422 469.822 Q150.668 467.299 151.547 465.562 Q152.45 463.803 152.45 462.113 Q152.45 459.359 150.505 457.623 Q148.584 455.887 145.482 455.887 Q143.283 455.887 140.83 456.65 Q138.399 457.414 135.621 458.965 L135.621 454.243 Q138.445 453.109 140.899 452.53 Q143.353 451.951 145.39 451.951 Q150.76 451.951 153.955 454.637 Q157.149 457.322 157.149 461.813 Q157.149 463.942 156.339 465.863 Q155.552 467.762 153.445 470.354 Q152.867 471.025 149.765 474.243 Q146.663 477.437 141.015 483.201 Z" fill="#000000" fill-rule="evenodd" fill-opacity="1" /><path clip-path="url(#clip870)" d="M167.195 452.576 L185.552 452.576 L185.552 456.512 L171.478 456.512 L171.478 464.984 Q172.496 464.637 173.515 464.475 Q174.533 464.289 175.552 464.289 Q181.339 464.289 184.718 467.461 Q188.098 470.632 188.098 476.049 Q188.098 481.627 184.626 484.729 Q181.153 487.808 174.834 487.808 Q172.658 487.808 170.39 487.437 Q168.144 487.067 165.737 486.326 L165.737 481.627 Q167.82 482.761 170.042 483.317 Q172.265 483.873 174.741 483.873 Q178.746 483.873 181.084 481.766 Q183.422 479.66 183.422 476.049 Q183.422 472.437 181.084 470.331 Q178.746 468.225 174.741 468.225 Q172.866 468.225 170.991 468.641 Q169.14 469.058 167.195 469.937 L167.195 452.576 Z" fill="#000000" fill-rule="evenodd" fill-opacity="1" /><path clip-path="url(#clip870)" d="M100.76 158.666 Q97.1493 158.666 95.3206 162.23 Q93.515 165.772 93.515 172.902 Q93.515 180.008 95.3206 183.573 Q97.1493 187.115 100.76 187.115 Q104.395 187.115 106.2 183.573 Q108.029 180.008 108.029 172.902 Q108.029 165.772 106.2 162.23 Q104.395 158.666 100.76 158.666 M100.76 154.962 Q106.571 154.962 109.626 159.568 Q112.705 164.152 112.705 172.902 Q112.705 181.628 109.626 186.235 Q106.571 190.818 100.76 190.818 Q94.9502 190.818 91.8715 186.235 Q88.816 181.628 88.816 172.902 Q88.816 164.152 91.8715 159.568 Q94.9502 154.962 100.76 154.962 Z" fill="#000000" fill-rule="evenodd" fill-opacity="1" /><path clip-path="url(#clip870)" d="M120.922 184.267 L125.807 184.267 L125.807 190.147 L120.922 190.147 L120.922 184.267 Z" fill="#000000" fill-rule="evenodd" fill-opacity="1" /><path clip-path="url(#clip870)" d="M136.038 155.587 L154.394 155.587 L154.394 159.522 L140.32 159.522 L140.32 167.994 Q141.339 167.647 142.357 167.485 Q143.376 167.3 144.394 167.3 Q150.181 167.3 153.561 170.471 Q156.941 173.642 156.941 179.059 Q156.941 184.638 153.468 187.74 Q149.996 190.818 143.677 190.818 Q141.501 190.818 139.232 190.448 Q136.987 190.077 134.58 189.337 L134.58 184.638 Q136.663 185.772 138.885 186.327 Q141.107 186.883 143.584 186.883 Q147.589 186.883 149.927 184.777 Q152.265 182.67 152.265 179.059 Q152.265 175.448 149.927 173.341 Q147.589 171.235 143.584 171.235 Q141.709 171.235 139.834 171.652 Q137.982 172.068 136.038 172.948 L136.038 155.587 Z" fill="#000000" fill-rule="evenodd" fill-opacity="1" /><path clip-path="url(#clip870)" d="M176.153 158.666 Q172.542 158.666 170.714 162.23 Q168.908 165.772 168.908 172.902 Q168.908 180.008 170.714 183.573 Q172.542 187.115 176.153 187.115 Q179.788 187.115 181.593 183.573 Q183.422 180.008 183.422 172.902 Q183.422 165.772 181.593 162.23 Q179.788 158.666 176.153 158.666 M176.153 154.962 Q181.964 154.962 185.019 159.568 Q188.098 164.152 188.098 172.902 Q188.098 181.628 185.019 186.235 Q181.964 190.818 176.153 190.818 Q170.343 190.818 167.265 186.235 Q164.209 181.628 164.209 172.902 Q164.209 164.152 167.265 159.568 Q170.343 154.962 176.153 154.962 Z" fill="#000000" fill-rule="evenodd" fill-opacity="1" /><polyline clip-path="url(#clip872)" style="stroke:#ff0000; stroke-linecap:butt; stroke-linejoin:round; stroke-width:16; stroke-opacity:1; fill:none" stroke-dasharray="64, 40" points="
  284.343,758.584 294.434,750.324 304.526,742.068 314.617,733.818 324.708,725.577 334.799,717.345 344.891,709.126 354.982,700.92 365.073,692.731 375.165,684.559 
  385.256,676.408 395.347,668.279 405.438,660.174 415.53,652.095 425.621,644.044 435.712,636.024 445.804,628.035 455.895,620.08 465.986,612.16 476.078,604.279 
  486.169,596.437 496.26,588.637 506.351,580.881 516.443,573.17 526.534,565.506 536.625,557.891 546.717,550.328 556.808,542.817 566.899,535.361 576.991,527.962 
  587.082,520.621 597.173,513.34 607.264,506.121 617.356,498.966 627.447,491.876 637.538,484.853 647.63,477.9 657.721,471.016 667.812,464.206 677.903,457.469 
  687.995,450.807 698.086,444.223 708.177,437.718 718.269,431.293 728.36,424.95 738.451,418.69 748.543,412.516 758.634,406.428 768.725,400.428 778.816,394.518 
  788.908,388.698 798.999,382.971 809.09,377.338 819.182,371.8 829.273,366.359 839.364,361.015 849.456,355.77 859.547,350.626 869.638,345.584 879.729,340.644 
  889.821,335.809 899.912,331.078 910.003,326.455 920.095,321.939 930.186,317.531 940.277,313.233 950.368,309.047 960.46,304.971 970.551,301.009 980.642,297.161 
  990.734,293.427 1000.82,289.809 1010.92,286.308 1021.01,282.924 1031.1,279.658 1041.19,276.511 1051.28,273.484 1061.37,270.577 1071.46,267.792 1081.56,265.128 
  1091.65,262.587 1101.74,260.17 1111.83,257.876 1121.92,255.706 1132.01,253.662 1142.1,251.742 1152.19,249.949 1162.29,248.282 1172.38,246.741 1182.47,245.327 
  1192.56,244.041 1202.65,242.883 1212.74,241.853 1222.83,240.95 1232.92,240.177 1243.02,239.532 1253.11,239.015 1263.2,238.628 1273.29,238.37 1283.38,238.241 
  1293.47,238.241 1303.56,238.37 1313.66,238.628 1323.75,239.015 1333.84,239.532 1343.93,240.177 1354.02,240.95 1364.11,241.853 1374.2,242.883 1384.29,244.041 
  1394.39,245.327 1404.48,246.741 1414.57,248.282 1424.66,249.949 1434.75,251.742 1444.84,253.662 1454.93,255.706 1465.02,257.876 1475.12,260.17 1485.21,262.587 
  1495.3,265.128 1505.39,267.792 1515.48,270.577 1525.57,273.484 1535.66,276.511 1545.75,279.658 1555.85,282.924 1565.94,286.308 1576.03,289.809 1586.12,293.427 
  1596.21,297.161 1606.3,301.009 1616.39,304.971 1626.49,309.047 1636.58,313.233 1646.67,317.531 1656.76,321.939 1666.85,326.455 1676.94,331.078 1687.03,335.809 
  1697.12,340.644 1707.22,345.584 1717.31,350.626 1727.4,355.77 1737.49,361.015 1747.58,366.359 1757.67,371.8 1767.76,377.338 1777.85,382.971 1787.95,388.698 
  1798.04,394.518 1808.13,400.428 1818.22,406.428 1828.31,412.516 1838.4,418.69 1848.49,424.95 1858.59,431.293 1868.68,437.718 1878.77,444.223 1888.86,450.807 
  1898.95,457.469 1909.04,464.206 1919.13,471.016 1929.22,477.9 1939.32,484.853 1949.41,491.876 1959.5,498.966 1969.59,506.121 1979.68,513.34 1989.77,520.621 
  1999.86,527.962 2009.95,535.361 2020.05,542.817 2030.14,550.328 2040.23,557.891 2050.32,565.506 2060.41,573.17 2070.5,580.881 2080.59,588.637 2090.68,596.437 
  2100.78,604.279 2110.87,612.16 2120.96,620.08 2131.05,628.035 2141.14,636.024 2151.23,644.044 2161.32,652.095 2171.42,660.174 2181.51,668.279 2191.6,676.408 
  2201.69,684.559 2211.78,692.731 2221.87,700.92 2231.96,709.126 2242.05,717.345 2252.15,725.577 2262.24,733.818 2272.33,742.068 2282.42,750.324 2292.51,758.584 
  
  "/>
<polyline clip-path="url(#clip872)" style="stroke:#008000; stroke-linecap:butt; stroke-linejoin:round; stroke-width:16; stroke-opacity:1; fill:none" stroke-dasharray="64, 40" points="
  284.343,750.324 294.434,733.818 304.526,717.345 314.617,700.92 324.708,684.559 334.799,668.279 344.891,652.095 354.982,636.024 365.073,620.08 375.165,604.279 
  385.256,588.637 395.347,573.17 405.438,557.891 415.53,542.817 425.621,527.962 435.712,513.34 445.804,498.966 455.895,484.853 465.986,471.016 476.078,457.469 
  486.169,444.223 496.26,431.293 506.351,418.69 516.443,406.428 526.534,394.518 536.625,382.971 546.717,371.8 556.808,361.015 566.899,350.626 576.991,340.644 
  587.082,331.078 597.173,321.939 607.264,313.233 617.356,304.971 627.447,297.161 637.538,289.809 647.63,282.924 657.721,276.511 667.812,270.577 677.903,265.128 
  687.995,260.17 698.086,255.706 708.177,251.742 718.269,248.282 728.36,245.327 738.451,242.883 748.543,240.95 758.634,239.532 768.725,238.628 778.816,238.241 
  788.908,238.37 798.999,239.015 809.09,240.177 819.182,241.853 829.273,244.041 839.364,246.741 849.456,249.949 859.547,253.662 869.638,257.876 879.729,262.587 
  889.821,267.792 899.912,273.484 910.003,279.658 920.095,286.308 930.186,293.427 940.277,301.009 950.368,309.047 960.46,317.531 970.551,326.455 980.642,335.809 
  990.734,345.584 1000.82,355.77 1010.92,366.359 1021.01,377.338 1031.1,388.698 1041.19,400.428 1051.28,412.516 1061.37,424.95 1071.46,437.718 1081.56,450.807 
  1091.65,464.206 1101.74,477.9 1111.83,491.876 1121.92,506.121 1132.01,520.621 1142.1,535.361 1152.19,550.328 1162.29,565.506 1172.38,580.881 1182.47,596.437 
  1192.56,612.16 1202.65,628.035 1212.74,644.044 1222.83,660.174 1232.92,676.408 1243.02,692.731 1253.11,709.126 1263.2,725.577 1273.29,742.068 1283.38,758.584 
  1293.47,775.108 1303.56,791.624 1313.66,808.115 1323.75,824.566 1333.84,840.961 1343.93,857.284 1354.02,873.518 1364.11,889.648 1374.2,905.657 1384.29,921.532 
  1394.39,937.255 1404.48,952.811 1414.57,968.186 1424.66,983.364 1434.75,998.331 1444.84,1013.07 1454.93,1027.57 1465.02,1041.82 1475.12,1055.79 1485.21,1069.49 
  1495.3,1082.88 1505.39,1095.97 1515.48,1108.74 1525.57,1121.18 1535.66,1133.26 1545.75,1144.99 1555.85,1156.35 1565.94,1167.33 1576.03,1177.92 1586.12,1188.11 
  1596.21,1197.88 1606.3,1207.24 1616.39,1216.16 1626.49,1224.65 1636.58,1232.68 1646.67,1240.26 1656.76,1247.38 1666.85,1254.03 1676.94,1260.21 1687.03,1265.9 
  1697.12,1271.1 1707.22,1275.82 1717.31,1280.03 1727.4,1283.74 1737.49,1286.95 1747.58,1289.65 1757.67,1291.84 1767.76,1293.52 1777.85,1294.68 1787.95,1295.32 
  1798.04,1295.45 1808.13,1295.06 1818.22,1294.16 1828.31,1292.74 1838.4,1290.81 1848.49,1288.36 1858.59,1285.41 1868.68,1281.95 1878.77,1277.99 1888.86,1273.52 
  1898.95,1268.56 1909.04,1263.11 1919.13,1257.18 1929.22,1250.77 1939.32,1243.88 1949.41,1236.53 1959.5,1228.72 1969.59,1220.46 1979.68,1211.75 1989.77,1202.61 
  1999.86,1193.05 2009.95,1183.07 2020.05,1172.68 2030.14,1161.89 2040.23,1150.72 2050.32,1139.17 2060.41,1127.26 2070.5,1115 2080.59,1102.4 2090.68,1089.47 
  2100.78,1076.22 2110.87,1062.68 2120.96,1048.84 2131.05,1034.73 2141.14,1020.35 2151.23,1005.73 2161.32,990.875 2171.42,975.801 2181.51,960.522 2191.6,945.055 
  2201.69,929.413 2211.78,913.612 2221.87,897.668 2231.96,881.597 2242.05,865.413 2252.15,849.133 2262.24,832.772 2272.33,816.347 2282.42,799.873 2292.51,783.368 
  
  "/>
<polyline clip-path="url(#clip872)" style="stroke:#0000ff; stroke-linecap:butt; stroke-linejoin:round; stroke-width:16; stroke-opacity:1; fill:none" stroke-dasharray="64, 40" points="
  284.343,742.068 294.434,717.345 304.526,692.731 314.617,668.279 324.708,644.044 334.799,620.08 344.891,596.437 354.982,573.17 365.073,550.328 375.165,527.962 
  385.256,506.121 395.347,484.853 405.438,464.206 415.53,444.223 425.621,424.95 435.712,406.428 445.804,388.698 455.895,371.8 465.986,355.77 476.078,340.644 
  486.169,326.455 496.26,313.233 506.351,301.009 516.443,289.809 526.534,279.658 536.625,270.577 546.717,262.587 556.808,255.706 566.899,249.949 576.991,245.327 
  587.082,241.853 597.173,239.532 607.264,238.37 617.356,238.37 627.447,239.532 637.538,241.853 647.63,245.327 657.721,249.949 667.812,255.706 677.903,262.587 
  687.995,270.577 698.086,279.658 708.177,289.809 718.269,301.009 728.36,313.233 738.451,326.455 748.543,340.644 758.634,355.77 768.725,371.8 778.816,388.698 
  788.908,406.428 798.999,424.95 809.09,444.223 819.182,464.206 829.273,484.853 839.364,506.121 849.456,527.962 859.547,550.328 869.638,573.17 879.729,596.437 
  889.821,620.08 899.912,644.044 910.003,668.279 920.095,692.731 930.186,717.345 940.277,742.068 950.368,766.846 960.46,791.624 970.551,816.347 980.642,840.961 
  990.734,865.413 1000.82,889.648 1010.92,913.612 1021.01,937.255 1031.1,960.522 1041.19,983.364 1051.28,1005.73 1061.37,1027.57 1071.46,1048.84 1081.56,1069.49 
  1091.65,1089.47 1101.74,1108.74 1111.83,1127.26 1121.92,1144.99 1132.01,1161.89 1142.1,1177.92 1152.19,1193.05 1162.29,1207.24 1172.38,1220.46 1182.47,1232.68 
  1192.56,1243.88 1202.65,1254.03 1212.74,1263.11 1222.83,1271.1 1232.92,1277.99 1243.02,1283.74 1253.11,1288.36 1263.2,1291.84 1273.29,1294.16 1283.38,1295.32 
  1293.47,1295.32 1303.56,1294.16 1313.66,1291.84 1323.75,1288.36 1333.84,1283.74 1343.93,1277.99 1354.02,1271.1 1364.11,1263.11 1374.2,1254.03 1384.29,1243.88 
  1394.39,1232.68 1404.48,1220.46 1414.57,1207.24 1424.66,1193.05 1434.75,1177.92 1444.84,1161.89 1454.93,1144.99 1465.02,1127.26 1475.12,1108.74 1485.21,1089.47 
  1495.3,1069.49 1505.39,1048.84 1515.48,1027.57 1525.57,1005.73 1535.66,983.364 1545.75,960.522 1555.85,937.255 1565.94,913.612 1576.03,889.648 1586.12,865.413 
  1596.21,840.961 1606.3,816.347 1616.39,791.624 1626.49,766.846 1636.58,742.068 1646.67,717.345 1656.76,692.731 1666.85,668.279 1676.94,644.044 1687.03,620.08 
  1697.12,596.437 1707.22,573.17 1717.31,550.328 1727.4,527.962 1737.49,506.121 1747.58,484.853 1757.67,464.206 1767.76,444.223 1777.85,424.95 1787.95,406.428 
  1798.04,388.698 1808.13,371.8 1818.22,355.77 1828.31,340.644 1838.4,326.455 1848.49,313.233 1858.59,301.009 1868.68,289.809 1878.77,279.658 1888.86,270.577 
  1898.95,262.587 1909.04,255.706 1919.13,249.949 1929.22,245.327 1939.32,241.853 1949.41,239.532 1959.5,238.37 1969.59,238.37 1979.68,239.532 1989.77,241.853 
  1999.86,245.327 2009.95,249.949 2020.05,255.706 2030.14,262.587 2040.23,270.577 2050.32,279.658 2060.41,289.809 2070.5,301.009 2080.59,313.233 2090.68,326.455 
  2100.78,340.644 2110.87,355.77 2120.96,371.8 2131.05,388.698 2141.14,406.428 2151.23,424.95 2161.32,444.223 2171.42,464.206 2181.51,484.853 2191.6,506.121 
  2201.69,527.962 2211.78,550.328 2221.87,573.17 2231.96,596.437 2242.05,620.08 2252.15,644.044 2262.24,668.279 2272.33,692.731 2282.42,717.345 2292.51,742.068 
  
  "/>
<polyline clip-path="url(#clip872)" style="stroke:#ff0000; stroke-linecap:butt; stroke-linejoin:round; stroke-width:16; stroke-opacity:1; fill:none" points="
  284.343,695.188 294.434,624.762 304.526,556.735 314.617,492.13 324.708,431.78 334.799,376.304 344.891,326.105 354.982,281.377 365.073,242.133 375.165,208.241 
  385.256,179.459 395.347,155.47 405.438,135.919 415.53,120.435 425.621,108.654 435.712,100.228 445.804,94.8351 455.895,92.1792 465.986,91.9915 476.078,94.0283 
  486.169,98.068 496.26,103.909 506.351,111.367 516.443,120.272 526.534,130.465 536.625,141.795 546.717,154.117 556.808,167.29 566.899,181.179 576.991,195.651 
  587.082,210.58 597.173,225.847 607.264,241.346 617.356,256.976 627.447,272.652 637.538,288.3 647.63,303.856 657.721,319.27 667.812,334.497 677.903,349.506 
  687.995,364.267 698.086,378.761 708.177,392.969 718.269,406.878 728.36,420.478 738.451,433.758 748.543,446.711 758.634,459.33 768.725,471.609 778.816,483.541 
  788.908,495.122 798.999,506.346 809.09,517.21 819.182,527.709 829.273,537.844 839.364,547.612 849.456,557.016 859.547,566.057 869.638,574.74 879.729,583.071 
  889.821,591.057 899.912,598.705 910.003,606.024 920.095,613.024 930.186,619.715 940.277,626.107 950.368,632.209 960.46,638.032 970.551,643.584 980.642,648.876 
  990.734,653.916 1000.82,658.712 1010.92,663.272 1021.01,667.604 1031.1,671.714 1041.19,675.609 1051.28,679.295 1061.37,682.779 1071.46,686.066 1081.56,689.161 
  1091.65,692.07 1101.74,694.798 1111.83,697.349 1121.92,699.73 1132.01,701.944 1142.1,703.996 1152.19,705.89 1162.29,707.63 1172.38,709.221 1182.47,710.666 
  1192.56,711.968 1202.65,713.131 1212.74,714.157 1222.83,715.049 1232.92,715.81 1243.02,716.441 1253.11,716.943 1263.2,717.319 1273.29,717.569 1283.38,717.694 
  1293.47,717.694 1303.56,717.569 1313.66,717.319 1323.75,716.943 1333.84,716.441 1343.93,715.81 1354.02,715.049 1364.11,714.157 1374.2,713.131 1384.29,711.968 
  1394.39,710.666 1404.48,709.221 1414.57,707.63 1424.66,705.89 1434.75,703.996 1444.84,701.944 1454.93,699.73 1465.02,697.349 1475.12,694.798 1485.21,692.07 
  1495.3,689.161 1505.39,686.066 1515.48,682.779 1525.57,679.295 1535.66,675.609 1545.75,671.714 1555.85,667.604 1565.94,663.272 1576.03,658.712 1586.12,653.916 
  1596.21,648.876 1606.3,643.584 1616.39,638.032 1626.49,632.209 1636.58,626.107 1646.67,619.715 1656.76,613.024 1666.85,606.024 1676.94,598.705 1687.03,591.057 
  1697.12,583.071 1707.22,574.74 1717.31,566.057 1727.4,557.016 1737.49,547.612 1747.58,537.844 1757.67,527.709 1767.76,517.21 1777.85,506.346 1787.95,495.122 
  1798.04,483.541 1808.13,471.609 1818.22,459.33 1828.31,446.711 1838.4,433.758 1848.49,420.478 1858.59,406.878 1868.68,392.969 1878.77,378.761 1888.86,364.267 
  1898.95,349.506 1909.04,334.497 1919.13,319.27 1929.22,303.856 1939.32,288.3 1949.41,272.652 1959.5,256.976 1969.59,241.346 1979.68,225.847 1989.77,210.58 
  1999.86,195.651 2009.95,181.179 2020.05,167.29 2030.14,154.117 2040.23,141.795 2050.32,130.465 2060.41,120.272 2070.5,111.367 2080.59,103.909 2090.68,98.068 
  2100.78,94.0283 2110.87,91.9915 2120.96,92.1792 2131.05,94.8351 2141.14,100.228 2151.23,108.654 2161.32,120.435 2171.42,135.919 2181.51,155.47 2191.6,179.459 
  2201.69,208.241 2211.78,242.133 2221.87,281.377 2231.96,326.105 2242.05,376.304 2252.15,431.78 2262.24,492.13 2272.33,556.735 2282.42,624.762 2292.51,695.188 
  
  "/>
<polyline clip-path="url(#clip872)" style="stroke:#008000; stroke-linecap:butt; stroke-linejoin:round; stroke-width:16; stroke-opacity:1; fill:none" points="
  284.343,694.71 294.434,623.815 304.526,555.336 314.617,490.304 324.708,429.557 334.799,373.72 344.891,323.198 354.982,278.186 365.073,238.7 375.165,204.605 
  385.256,175.657 395.347,151.539 405.438,131.893 415.53,116.346 425.621,104.53 435.712,96.0964 445.804,90.7202 455.895,88.1037 465.986,87.9763 476.078,90.0923 
  486.169,94.2289 496.26,100.183 506.351,107.769 516.443,116.816 526.534,127.163 536.625,138.658 546.717,151.156 556.808,164.515 566.899,178.597 576.991,193.271 
  587.082,208.408 597.173,223.89 607.264,239.609 617.356,255.464 627.447,271.37 637.538,287.252 647.63,303.046 657.721,318.701 667.812,334.174 677.903,349.431 
  687.995,364.445 698.086,379.195 708.177,393.663 718.269,407.836 728.36,421.703 738.451,435.255 748.543,448.484 758.634,461.383 768.725,473.947 778.816,486.17 
  788.908,498.047 798.999,509.574 809.09,520.747 819.182,531.563 829.273,542.022 839.364,552.124 849.456,561.87 859.547,571.264 869.638,580.311 879.729,589.017 
  889.821,597.391 899.912,605.44 910.003,613.176 920.095,620.608 930.186,627.748 940.277,634.605 950.368,641.192 960.46,647.519 970.551,653.597 980.642,659.436 
  990.734,665.047 1000.82,670.439 1010.92,675.621 1021.01,680.603 1031.1,685.393 1041.19,690 1051.28,694.431 1061.37,698.696 1071.46,702.802 1081.56,706.756 
  1091.65,710.566 1101.74,714.241 1111.83,717.788 1121.92,721.214 1132.01,724.528 1142.1,727.736 1152.19,730.846 1162.29,733.866 1172.38,736.802 1182.47,739.663 
  1192.56,742.456 1202.65,745.186 1212.74,747.862 1222.83,750.489 1232.92,753.075 1243.02,755.626 1253.11,758.149 1263.2,760.649 1273.29,763.134 1283.38,765.61 
  1293.47,768.082 1303.56,770.558 1313.66,773.043 1323.75,775.543 1333.84,778.066 1343.93,780.617 1354.02,783.203 1364.11,785.83 1374.2,788.506 1384.29,791.236 
  1394.39,794.029 1404.48,796.889 1414.57,799.826 1424.66,802.846 1434.75,805.956 1444.84,809.164 1454.93,812.478 1465.02,815.904 1475.12,819.451 1485.21,823.126 
  1495.3,826.936 1505.39,830.89 1515.48,834.996 1525.57,839.26 1535.66,843.692 1545.75,848.299 1555.85,853.089 1565.94,858.071 1576.03,863.253 1586.12,868.645 
  1596.21,874.256 1606.3,880.095 1616.39,886.173 1626.49,892.5 1636.58,899.087 1646.67,905.944 1656.76,913.084 1666.85,920.516 1676.94,928.251 1687.03,936.301 
  1697.12,944.675 1707.22,953.381 1717.31,962.428 1727.4,971.822 1737.49,981.568 1747.58,991.67 1757.67,1002.13 1767.76,1012.95 1777.85,1024.12 1787.95,1035.64 
  1798.04,1047.52 1808.13,1059.74 1818.22,1072.31 1828.31,1085.21 1838.4,1098.44 1848.49,1111.99 1858.59,1125.86 1868.68,1140.03 1878.77,1154.5 1888.86,1169.25 
  1898.95,1184.26 1909.04,1199.52 1919.13,1214.99 1929.22,1230.65 1939.32,1246.44 1949.41,1262.32 1959.5,1278.23 1969.59,1294.08 1979.68,1309.8 1989.77,1325.28 
  1999.86,1340.42 2009.95,1355.09 2020.05,1369.18 2030.14,1382.54 2040.23,1395.03 2050.32,1406.53 2060.41,1416.88 2070.5,1425.92 2080.59,1433.51 2090.68,1439.46 
  2100.78,1443.6 2110.87,1445.72 2120.96,1445.59 2131.05,1442.97 2141.14,1437.6 2151.23,1429.16 2161.32,1417.35 2171.42,1401.8 2181.51,1382.15 2191.6,1358.03 
  2201.69,1329.09 2211.78,1294.99 2221.87,1255.51 2231.96,1210.49 2242.05,1159.97 2252.15,1104.14 2262.24,1043.39 2272.33,978.356 2282.42,909.877 2292.51,838.982 
  
  "/>
<polyline clip-path="url(#clip872)" style="stroke:#0000ff; stroke-linecap:butt; stroke-linejoin:round; stroke-width:16; stroke-opacity:1; fill:none" points="
  284.343,733.32 294.434,700.465 304.526,668.921 314.617,639.25 324.708,611.918 334.799,587.282 344.891,565.582 354.982,546.954 365.073,531.435 375.165,518.988 
  385.256,509.514 395.347,502.871 405.438,498.897 415.53,497.412 425.621,498.238 435.712,501.197 445.804,506.121 455.895,512.849 465.986,521.23 476.078,531.119 
  486.169,542.381 496.26,554.886 506.351,568.512 516.443,583.139 526.534,598.656 536.625,614.952 546.717,631.922 556.808,649.462 566.899,667.478 576.991,685.874 
  587.082,704.566 597.173,723.474 607.264,742.523 617.356,761.648 627.447,780.787 637.538,799.888 647.63,818.902 657.721,837.783 667.812,856.491 677.903,874.99 
  687.995,893.245 698.086,911.225 708.177,928.9 718.269,946.243 728.36,963.229 738.451,979.838 748.543,996.05 758.634,1011.85 768.725,1027.22 778.816,1042.16 
  788.908,1056.65 798.999,1070.7 809.09,1084.31 819.182,1097.47 829.273,1110.2 839.364,1122.5 849.456,1134.38 859.547,1145.85 869.638,1156.92 879.729,1167.59 
  889.821,1177.87 899.912,1187.77 910.003,1197.3 920.095,1206.46 930.186,1215.24 940.277,1223.67 950.368,1231.73 960.46,1239.44 970.551,1246.79 980.642,1253.79 
  990.734,1260.45 1000.82,1266.76 1010.92,1272.74 1021.01,1278.4 1031.1,1283.75 1041.19,1288.79 1051.28,1293.54 1061.37,1298.01 1071.46,1302.22 1081.56,1306.16 
  1091.65,1309.87 1101.74,1313.35 1111.83,1316.6 1121.92,1319.65 1132.01,1322.5 1142.1,1325.15 1152.19,1327.61 1162.29,1329.89 1172.38,1331.99 1182.47,1333.92 
  1192.56,1335.67 1202.65,1337.24 1212.74,1338.64 1222.83,1339.87 1232.92,1340.93 1243.02,1341.81 1253.11,1342.51 1263.2,1343.04 1273.29,1343.39 1283.38,1343.57 
  1293.47,1343.57 1303.56,1343.39 1313.66,1343.04 1323.75,1342.51 1333.84,1341.81 1343.93,1340.93 1354.02,1339.87 1364.11,1338.64 1374.2,1337.24 1384.29,1335.67 
  1394.39,1333.92 1404.48,1331.99 1414.57,1329.89 1424.66,1327.61 1434.75,1325.15 1444.84,1322.5 1454.93,1319.65 1465.02,1316.6 1475.12,1313.35 1485.21,1309.87 
  1495.3,1306.16 1505.39,1302.22 1515.48,1298.01 1525.57,1293.54 1535.66,1288.79 1545.75,1283.75 1555.85,1278.4 1565.94,1272.74 1576.03,1266.76 1586.12,1260.45 
  1596.21,1253.79 1606.3,1246.79 1616.39,1239.44 1626.49,1231.73 1636.58,1223.67 1646.67,1215.24 1656.76,1206.46 1666.85,1197.3 1676.94,1187.77 1687.03,1177.87 
  1697.12,1167.59 1707.22,1156.92 1717.31,1145.85 1727.4,1134.38 1737.49,1122.5 1747.58,1110.2 1757.67,1097.47 1767.76,1084.31 1777.85,1070.7 1787.95,1056.65 
  1798.04,1042.16 1808.13,1027.22 1818.22,1011.85 1828.31,996.05 1838.4,979.838 1848.49,963.229 1858.59,946.243 1868.68,928.9 1878.77,911.225 1888.86,893.245 
  1898.95,874.99 1909.04,856.491 1919.13,837.783 1929.22,818.902 1939.32,799.888 1949.41,780.787 1959.5,761.648 1969.59,742.523 1979.68,723.474 1989.77,704.566 
  1999.86,685.874 2009.95,667.478 2020.05,649.462 2030.14,631.922 2040.23,614.952 2050.32,598.656 2060.41,583.139 2070.5,568.512 2080.59,554.886 2090.68,542.381 
  2100.78,531.119 2110.87,521.23 2120.96,512.849 2131.05,506.121 2141.14,501.197 2151.23,498.238 2161.32,497.412 2171.42,498.897 2181.51,502.871 2191.6,509.514 
  2201.69,518.988 2211.78,531.435 2221.87,546.954 2231.96,565.582 2242.05,587.282 2252.15,611.918 2262.24,639.25 2272.33,668.921 2282.42,700.465 2292.51,733.32 
  
  "/>
<path clip-path="url(#clip870)" d="
M1875.63 458.098 L2281.8 458.098 L2281.8 95.2176 L1875.63 95.2176  Z
  " fill="#ffffff" fill-rule="evenodd" fill-opacity="1"/>
<polyline clip-path="url(#clip870)" style="stroke:#000000; stroke-linecap:butt; stroke-linejoin:round; stroke-width:4; stroke-opacity:1; fill:none" points="
  1875.63,458.098 2281.8,458.098 2281.8,95.2176 1875.63,95.2176 1875.63,458.098 
  "/>
<polyline clip-path="url(#clip870)" style="stroke:#ff0000; stroke-linecap:butt; stroke-linejoin:round; stroke-width:4; stroke-opacity:1; fill:none" stroke-dasharray="16, 10" points="
  1899.28,147.058 2041.19,147.058 
  "/>
<path clip-path="url(#clip870)" d="M2075.7 164.916 Q2070.35 164.06 2067.88 161.814 Q2064.85 159.06 2064.85 153.435 L2064.85 138.412 L2069.15 138.412 L2069.15 153.273 Q2069.15 157.509 2071.12 159.268 Q2072.83 160.796 2075.7 161.12 L2075.7 138.412 L2079.94 138.412 L2079.94 161.097 Q2082.97 160.773 2084.52 159.245 Q2086.49 157.301 2086.49 153.25 L2086.49 138.412 L2090.79 138.412 L2090.79 153.412 Q2090.79 159.245 2087.76 161.791 Q2085.03 164.083 2079.94 164.893 L2079.94 174.199 L2075.7 174.199 L2075.7 164.916 Z" fill="#000000" fill-rule="evenodd" fill-opacity="1" /><path clip-path="url(#clip870)" d="M2117.69 172.208 L2117.69 175.518 L2093.06 175.518 L2093.06 172.208 L2117.69 172.208 Z" fill="#000000" fill-rule="evenodd" fill-opacity="1" /><path clip-path="url(#clip870)" d="M2123.11 160.402 L2130.75 160.402 L2130.75 134.037 L2122.44 135.703 L2122.44 131.444 L2130.7 129.778 L2135.38 129.778 L2135.38 160.402 L2143.02 160.402 L2143.02 164.338 L2123.11 164.338 L2123.11 160.402 Z" fill="#000000" fill-rule="evenodd" fill-opacity="1" /><polyline clip-path="url(#clip870)" style="stroke:#008000; stroke-linecap:butt; stroke-linejoin:round; stroke-width:4; stroke-opacity:1; fill:none" stroke-dasharray="16, 10" points="
  1899.28,198.898 2041.19,198.898 
  "/>
<path clip-path="url(#clip870)" d="M2075.7 216.756 Q2070.35 215.9 2067.88 213.654 Q2064.85 210.9 2064.85 205.275 L2064.85 190.252 L2069.15 190.252 L2069.15 205.113 Q2069.15 209.349 2071.12 211.108 Q2072.83 212.636 2075.7 212.96 L2075.7 190.252 L2079.94 190.252 L2079.94 212.937 Q2082.97 212.613 2084.52 211.085 Q2086.49 209.141 2086.49 205.09 L2086.49 190.252 L2090.79 190.252 L2090.79 205.252 Q2090.79 211.085 2087.76 213.631 Q2085.03 215.923 2079.94 216.733 L2079.94 226.039 L2075.7 226.039 L2075.7 216.756 Z" fill="#000000" fill-rule="evenodd" fill-opacity="1" /><path clip-path="url(#clip870)" d="M2117.69 224.048 L2117.69 227.358 L2093.06 227.358 L2093.06 224.048 L2117.69 224.048 Z" fill="#000000" fill-rule="evenodd" fill-opacity="1" /><path clip-path="url(#clip870)" d="M2126.33 212.242 L2142.65 212.242 L2142.65 216.178 L2120.7 216.178 L2120.7 212.242 Q2123.36 209.488 2127.95 204.858 Q2132.55 200.205 2133.73 198.863 Q2135.98 196.34 2136.86 194.604 Q2137.76 192.844 2137.76 191.155 Q2137.76 188.4 2135.82 186.664 Q2133.9 184.928 2130.79 184.928 Q2128.59 184.928 2126.14 185.692 Q2123.71 186.455 2120.93 188.006 L2120.93 183.284 Q2123.76 182.15 2126.21 181.571 Q2128.66 180.993 2130.7 180.993 Q2136.07 180.993 2139.27 183.678 Q2142.46 186.363 2142.46 190.854 Q2142.46 192.983 2141.65 194.905 Q2140.86 196.803 2138.76 199.395 Q2138.18 200.067 2135.08 203.284 Q2131.97 206.479 2126.33 212.242 Z" fill="#000000" fill-rule="evenodd" fill-opacity="1" /><polyline clip-path="url(#clip870)" style="stroke:#0000ff; stroke-linecap:butt; stroke-linejoin:round; stroke-width:4; stroke-opacity:1; fill:none" stroke-dasharray="16, 10" points="
  1899.28,250.738 2041.19,250.738 
  "/>
<path clip-path="url(#clip870)" d="M2075.7 268.596 Q2070.35 267.74 2067.88 265.494 Q2064.85 262.74 2064.85 257.115 L2064.85 242.092 L2069.15 242.092 L2069.15 256.953 Q2069.15 261.189 2071.12 262.948 Q2072.83 264.476 2075.7 264.8 L2075.7 242.092 L2079.94 242.092 L2079.94 264.777 Q2082.97 264.453 2084.52 262.925 Q2086.49 260.981 2086.49 256.93 L2086.49 242.092 L2090.79 242.092 L2090.79 257.092 Q2090.79 262.925 2087.76 265.471 Q2085.03 267.763 2079.94 268.573 L2079.94 277.879 L2075.7 277.879 L2075.7 268.596 Z" fill="#000000" fill-rule="evenodd" fill-opacity="1" /><path clip-path="url(#clip870)" d="M2117.69 275.888 L2117.69 279.198 L2093.06 279.198 L2093.06 275.888 L2117.69 275.888 Z" fill="#000000" fill-rule="evenodd" fill-opacity="1" /><path clip-path="url(#clip870)" d="M2136.47 249.383 Q2139.82 250.101 2141.7 252.369 Q2143.59 254.638 2143.59 257.971 Q2143.59 263.087 2140.08 265.888 Q2136.56 268.689 2130.08 268.689 Q2127.9 268.689 2125.59 268.249 Q2123.29 267.832 2120.84 266.976 L2120.84 262.462 Q2122.78 263.596 2125.1 264.175 Q2127.41 264.754 2129.94 264.754 Q2134.34 264.754 2136.63 263.018 Q2138.94 261.281 2138.94 257.971 Q2138.94 254.916 2136.79 253.203 Q2134.66 251.467 2130.84 251.467 L2126.81 251.467 L2126.81 247.624 L2131.03 247.624 Q2134.47 247.624 2136.3 246.258 Q2138.13 244.87 2138.13 242.277 Q2138.13 239.615 2136.23 238.203 Q2134.36 236.768 2130.84 236.768 Q2128.92 236.768 2126.72 237.184 Q2124.52 237.601 2121.88 238.481 L2121.88 234.314 Q2124.54 233.573 2126.86 233.203 Q2129.2 232.833 2131.26 232.833 Q2136.58 232.833 2139.68 235.263 Q2142.78 237.67 2142.78 241.791 Q2142.78 244.661 2141.14 246.652 Q2139.5 248.62 2136.47 249.383 Z" fill="#000000" fill-rule="evenodd" fill-opacity="1" /><polyline clip-path="url(#clip870)" style="stroke:#ff0000; stroke-linecap:butt; stroke-linejoin:round; stroke-width:4; stroke-opacity:1; fill:none" points="
  1899.28,302.578 2041.19,302.578 
  "/>
<path clip-path="url(#clip870)" d="M2075.7 320.436 Q2070.35 319.58 2067.88 317.334 Q2064.85 314.58 2064.85 308.955 L2064.85 293.932 L2069.15 293.932 L2069.15 308.793 Q2069.15 313.029 2071.12 314.788 Q2072.83 316.316 2075.7 316.64 L2075.7 293.932 L2079.94 293.932 L2079.94 316.617 Q2082.97 316.293 2084.52 314.765 Q2086.49 312.821 2086.49 308.77 L2086.49 293.932 L2090.79 293.932 L2090.79 308.932 Q2090.79 314.765 2087.76 317.311 Q2085.03 319.603 2079.94 320.413 L2079.94 329.719 L2075.7 329.719 L2075.7 320.436 Z" fill="#000000" fill-rule="evenodd" fill-opacity="1" /><path clip-path="url(#clip870)" d="M2117.69 327.728 L2117.69 331.038 L2093.06 331.038 L2093.06 327.728 L2117.69 327.728 Z" fill="#000000" fill-rule="evenodd" fill-opacity="1" /><path clip-path="url(#clip870)" d="M2123.11 315.922 L2130.75 315.922 L2130.75 289.557 L2122.44 291.223 L2122.44 286.964 L2130.7 285.298 L2135.38 285.298 L2135.38 315.922 L2143.02 315.922 L2143.02 319.858 L2123.11 319.858 L2123.11 315.922 Z" fill="#000000" fill-rule="evenodd" fill-opacity="1" /><path clip-path="url(#clip870)" d="M2171.56 327.728 L2171.56 331.038 L2146.93 331.038 L2146.93 327.728 L2171.56 327.728 Z" fill="#000000" fill-rule="evenodd" fill-opacity="1" /><path clip-path="url(#clip870)" d="M2192.62 297.867 L2192.62 283.839 L2196.88 283.839 L2196.88 319.858 L2192.62 319.858 L2192.62 315.969 Q2191.28 318.283 2189.22 319.418 Q2187.18 320.529 2184.31 320.529 Q2179.61 320.529 2176.65 316.779 Q2173.71 313.029 2173.71 306.918 Q2173.71 300.807 2176.65 297.057 Q2179.61 293.307 2184.31 293.307 Q2187.18 293.307 2189.22 294.441 Q2191.28 295.552 2192.62 297.867 M2178.11 306.918 Q2178.11 311.617 2180.03 314.302 Q2181.97 316.964 2185.35 316.964 Q2188.73 316.964 2190.68 314.302 Q2192.62 311.617 2192.62 306.918 Q2192.62 302.219 2190.68 299.557 Q2188.73 296.872 2185.35 296.872 Q2181.97 296.872 2180.03 299.557 Q2178.11 302.219 2178.11 306.918 Z" fill="#000000" fill-rule="evenodd" fill-opacity="1" /><path clip-path="url(#clip870)" d="M2218.78 283.839 L2218.78 287.381 L2214.71 287.381 Q2212.41 287.381 2211.51 288.307 Q2210.63 289.233 2210.63 291.64 L2210.63 293.932 L2217.65 293.932 L2217.65 297.242 L2210.63 297.242 L2210.63 319.858 L2206.35 319.858 L2206.35 297.242 L2202.28 297.242 L2202.28 293.932 L2206.35 293.932 L2206.35 292.126 Q2206.35 287.798 2208.36 285.83 Q2210.38 283.839 2214.75 283.839 L2218.78 283.839 Z" fill="#000000" fill-rule="evenodd" fill-opacity="1" /><path clip-path="url(#clip870)" d="M2225.72 286.571 L2225.72 293.932 L2234.5 293.932 L2234.5 297.242 L2225.72 297.242 L2225.72 311.316 Q2225.72 314.487 2226.58 315.39 Q2227.46 316.293 2230.12 316.293 L2234.5 316.293 L2234.5 319.858 L2230.12 319.858 Q2225.19 319.858 2223.32 318.029 Q2221.44 316.177 2221.44 311.316 L2221.44 297.242 L2218.32 297.242 L2218.32 293.932 L2221.44 293.932 L2221.44 286.571 L2225.72 286.571 Z" fill="#000000" fill-rule="evenodd" fill-opacity="1" /><polyline clip-path="url(#clip870)" style="stroke:#008000; stroke-linecap:butt; stroke-linejoin:round; stroke-width:4; stroke-opacity:1; fill:none" points="
  1899.28,354.418 2041.19,354.418 
  "/>
<path clip-path="url(#clip870)" d="M2075.7 372.276 Q2070.35 371.42 2067.88 369.174 Q2064.85 366.42 2064.85 360.795 L2064.85 345.772 L2069.15 345.772 L2069.15 360.633 Q2069.15 364.869 2071.12 366.628 Q2072.83 368.156 2075.7 368.48 L2075.7 345.772 L2079.94 345.772 L2079.94 368.457 Q2082.97 368.133 2084.52 366.605 Q2086.49 364.661 2086.49 360.61 L2086.49 345.772 L2090.79 345.772 L2090.79 360.772 Q2090.79 366.605 2087.76 369.151 Q2085.03 371.443 2079.94 372.253 L2079.94 381.559 L2075.7 381.559 L2075.7 372.276 Z" fill="#000000" fill-rule="evenodd" fill-opacity="1" /><path clip-path="url(#clip870)" d="M2117.69 379.568 L2117.69 382.878 L2093.06 382.878 L2093.06 379.568 L2117.69 379.568 Z" fill="#000000" fill-rule="evenodd" fill-opacity="1" /><path clip-path="url(#clip870)" d="M2126.33 367.762 L2142.65 367.762 L2142.65 371.698 L2120.7 371.698 L2120.7 367.762 Q2123.36 365.008 2127.95 360.378 Q2132.55 355.725 2133.73 354.383 Q2135.98 351.86 2136.86 350.124 Q2137.76 348.364 2137.76 346.675 Q2137.76 343.92 2135.82 342.184 Q2133.9 340.448 2130.79 340.448 Q2128.59 340.448 2126.14 341.212 Q2123.71 341.975 2120.93 343.526 L2120.93 338.804 Q2123.76 337.67 2126.21 337.091 Q2128.66 336.513 2130.7 336.513 Q2136.07 336.513 2139.27 339.198 Q2142.46 341.883 2142.46 346.374 Q2142.46 348.503 2141.65 350.425 Q2140.86 352.323 2138.76 354.915 Q2138.18 355.587 2135.08 358.804 Q2131.97 361.999 2126.33 367.762 Z" fill="#000000" fill-rule="evenodd" fill-opacity="1" /><path clip-path="url(#clip870)" d="M2171.56 379.568 L2171.56 382.878 L2146.93 382.878 L2146.93 379.568 L2171.56 379.568 Z" fill="#000000" fill-rule="evenodd" fill-opacity="1" /><path clip-path="url(#clip870)" d="M2192.62 349.707 L2192.62 335.679 L2196.88 335.679 L2196.88 371.698 L2192.62 371.698 L2192.62 367.809 Q2191.28 370.123 2189.22 371.258 Q2187.18 372.369 2184.31 372.369 Q2179.61 372.369 2176.65 368.619 Q2173.71 364.869 2173.71 358.758 Q2173.71 352.647 2176.65 348.897 Q2179.61 345.147 2184.31 345.147 Q2187.18 345.147 2189.22 346.281 Q2191.28 347.392 2192.62 349.707 M2178.11 358.758 Q2178.11 363.457 2180.03 366.142 Q2181.97 368.804 2185.35 368.804 Q2188.73 368.804 2190.68 366.142 Q2192.62 363.457 2192.62 358.758 Q2192.62 354.059 2190.68 351.397 Q2188.73 348.712 2185.35 348.712 Q2181.97 348.712 2180.03 351.397 Q2178.11 354.059 2178.11 358.758 Z" fill="#000000" fill-rule="evenodd" fill-opacity="1" /><path clip-path="url(#clip870)" d="M2218.78 335.679 L2218.78 339.221 L2214.71 339.221 Q2212.41 339.221 2211.51 340.147 Q2210.63 341.073 2210.63 343.48 L2210.63 345.772 L2217.65 345.772 L2217.65 349.082 L2210.63 349.082 L2210.63 371.698 L2206.35 371.698 L2206.35 349.082 L2202.28 349.082 L2202.28 345.772 L2206.35 345.772 L2206.35 343.966 Q2206.35 339.638 2208.36 337.67 Q2210.38 335.679 2214.75 335.679 L2218.78 335.679 Z" fill="#000000" fill-rule="evenodd" fill-opacity="1" /><path clip-path="url(#clip870)" d="M2225.72 338.411 L2225.72 345.772 L2234.5 345.772 L2234.5 349.082 L2225.72 349.082 L2225.72 363.156 Q2225.72 366.327 2226.58 367.23 Q2227.46 368.133 2230.12 368.133 L2234.5 368.133 L2234.5 371.698 L2230.12 371.698 Q2225.19 371.698 2223.32 369.869 Q2221.44 368.017 2221.44 363.156 L2221.44 349.082 L2218.32 349.082 L2218.32 345.772 L2221.44 345.772 L2221.44 338.411 L2225.72 338.411 Z" fill="#000000" fill-rule="evenodd" fill-opacity="1" /><polyline clip-path="url(#clip870)" style="stroke:#0000ff; stroke-linecap:butt; stroke-linejoin:round; stroke-width:4; stroke-opacity:1; fill:none" points="
  1899.28,406.258 2041.19,406.258 
  "/>
<path clip-path="url(#clip870)" d="M2075.7 424.116 Q2070.35 423.26 2067.88 421.014 Q2064.85 418.26 2064.85 412.635 L2064.85 397.612 L2069.15 397.612 L2069.15 412.473 Q2069.15 416.709 2071.12 418.468 Q2072.83 419.996 2075.7 420.32 L2075.7 397.612 L2079.94 397.612 L2079.94 420.297 Q2082.97 419.973 2084.52 418.445 Q2086.49 416.501 2086.49 412.45 L2086.49 397.612 L2090.79 397.612 L2090.79 412.612 Q2090.79 418.445 2087.76 420.991 Q2085.03 423.283 2079.94 424.093 L2079.94 433.399 L2075.7 433.399 L2075.7 424.116 Z" fill="#000000" fill-rule="evenodd" fill-opacity="1" /><path clip-path="url(#clip870)" d="M2117.69 431.408 L2117.69 434.718 L2093.06 434.718 L2093.06 431.408 L2117.69 431.408 Z" fill="#000000" fill-rule="evenodd" fill-opacity="1" /><path clip-path="url(#clip870)" d="M2136.47 404.903 Q2139.82 405.621 2141.7 407.889 Q2143.59 410.158 2143.59 413.491 Q2143.59 418.607 2140.08 421.408 Q2136.56 424.209 2130.08 424.209 Q2127.9 424.209 2125.59 423.769 Q2123.29 423.352 2120.84 422.496 L2120.84 417.982 Q2122.78 419.116 2125.1 419.695 Q2127.41 420.274 2129.94 420.274 Q2134.34 420.274 2136.63 418.538 Q2138.94 416.801 2138.94 413.491 Q2138.94 410.436 2136.79 408.723 Q2134.66 406.987 2130.84 406.987 L2126.81 406.987 L2126.81 403.144 L2131.03 403.144 Q2134.47 403.144 2136.3 401.778 Q2138.13 400.39 2138.13 397.797 Q2138.13 395.135 2136.23 393.723 Q2134.36 392.288 2130.84 392.288 Q2128.92 392.288 2126.72 392.704 Q2124.52 393.121 2121.88 394.001 L2121.88 389.834 Q2124.54 389.093 2126.86 388.723 Q2129.2 388.353 2131.26 388.353 Q2136.58 388.353 2139.68 390.783 Q2142.78 393.19 2142.78 397.311 Q2142.78 400.181 2141.14 402.172 Q2139.5 404.14 2136.47 404.903 Z" fill="#000000" fill-rule="evenodd" fill-opacity="1" /><path clip-path="url(#clip870)" d="M2171.56 431.408 L2171.56 434.718 L2146.93 434.718 L2146.93 431.408 L2171.56 431.408 Z" fill="#000000" fill-rule="evenodd" fill-opacity="1" /><path clip-path="url(#clip870)" d="M2192.62 401.547 L2192.62 387.519 L2196.88 387.519 L2196.88 423.538 L2192.62 423.538 L2192.62 419.649 Q2191.28 421.963 2189.22 423.098 Q2187.18 424.209 2184.31 424.209 Q2179.61 424.209 2176.65 420.459 Q2173.71 416.709 2173.71 410.598 Q2173.71 404.487 2176.65 400.737 Q2179.61 396.987 2184.31 396.987 Q2187.18 396.987 2189.22 398.121 Q2191.28 399.232 2192.62 401.547 M2178.11 410.598 Q2178.11 415.297 2180.03 417.982 Q2181.97 420.644 2185.35 420.644 Q2188.73 420.644 2190.68 417.982 Q2192.62 415.297 2192.62 410.598 Q2192.62 405.899 2190.68 403.237 Q2188.73 400.552 2185.35 400.552 Q2181.97 400.552 2180.03 403.237 Q2178.11 405.899 2178.11 410.598 Z" fill="#000000" fill-rule="evenodd" fill-opacity="1" /><path clip-path="url(#clip870)" d="M2218.78 387.519 L2218.78 391.061 L2214.71 391.061 Q2212.41 391.061 2211.51 391.987 Q2210.63 392.913 2210.63 395.32 L2210.63 397.612 L2217.65 397.612 L2217.65 400.922 L2210.63 400.922 L2210.63 423.538 L2206.35 423.538 L2206.35 400.922 L2202.28 400.922 L2202.28 397.612 L2206.35 397.612 L2206.35 395.806 Q2206.35 391.478 2208.36 389.51 Q2210.38 387.519 2214.75 387.519 L2218.78 387.519 Z" fill="#000000" fill-rule="evenodd" fill-opacity="1" /><path clip-path="url(#clip870)" d="M2225.72 390.251 L2225.72 397.612 L2234.5 397.612 L2234.5 400.922 L2225.72 400.922 L2225.72 414.996 Q2225.72 418.167 2226.58 419.07 Q2227.46 419.973 2230.12 419.973 L2234.5 419.973 L2234.5 423.538 L2230.12 423.538 Q2225.19 423.538 2223.32 421.709 Q2221.44 419.857 2221.44 414.996 L2221.44 400.922 L2218.32 400.922 L2218.32 397.612 L2221.44 397.612 L2221.44 390.251 L2225.72 390.251 Z" fill="#000000" fill-rule="evenodd" fill-opacity="1" /></svg>
