<?xml version="1.0" encoding="utf-8"?>
<svg xmlns="http://www.w3.org/2000/svg" xmlns:xlink="http://www.w3.org/1999/xlink" width="600" height="400" viewBox="0 0 2400 1600">
<defs>
  <clipPath id="clip900">
    <rect x="0" y="0" width="2400" height="1600"/>
  </clipPath>
</defs>
<path clip-path="url(#clip900)" d="
M0 1600 L2400 1600 L2400 0 L0 0  Z
  " fill="#ffffff" fill-rule="evenodd" fill-opacity="1"/>
<defs>
  <clipPath id="clip901">
    <rect x="480" y="0" width="1681" height="1600"/>
  </clipPath>
</defs>
<path clip-path="url(#clip900)" d="
M112.177 1486.45 L2352.76 1486.45 L2352.76 47.2441 L112.177 47.2441  Z
  " fill="#ffffff" fill-rule="evenodd" fill-opacity="1"/>
<defs>
  <clipPath id="clip902">
    <rect x="112" y="47" width="2242" height="1440"/>
  </clipPath>
</defs>
<polyline clip-path="url(#clip902)" style="stroke:#000000; stroke-linecap:butt; stroke-linejoin:round; stroke-width:2; stroke-opacity:0.1; fill:none" points="
  386.965,1486.45 386.965,47.2441 
  "/>
<polyline clip-path="url(#clip902)" style="stroke:#000000; stroke-linecap:butt; stroke-linejoin:round; stroke-width:2; stroke-opacity:0.1; fill:none" points="
  809.716,1486.45 809.716,47.2441 
  "/>
<polyline clip-path="url(#clip902)" style="stroke:#000000; stroke-linecap:butt; stroke-linejoin:round; stroke-width:2; stroke-opacity:0.1; fill:none" points="
  1232.47,1486.45 1232.47,47.2441 
  "/>
<polyline clip-path="url(#clip902)" style="stroke:#000000; stroke-linecap:butt; stroke-linejoin:round; stroke-width:2; stroke-opacity:0.1; fill:none" points="
  1655.22,1486.45 1655.22,47.2441 
  "/>
<polyline clip-path="url(#clip902)" style="stroke:#000000; stroke-linecap:butt; stroke-linejoin:round; stroke-width:2; stroke-opacity:0.1; fill:none" points="
  2077.97,1486.45 2077.97,47.2441 
  "/>
<polyline clip-path="url(#clip900)" style="stroke:#000000; stroke-linecap:butt; stroke-linejoin:round; stroke-width:4; stroke-opacity:1; fill:none" points="
  112.177,1486.45 2352.76,1486.45 
  "/>
<polyline clip-path="url(#clip900)" style="stroke:#000000; stroke-linecap:butt; stroke-linejoin:round; stroke-width:4; stroke-opacity:1; fill:none" points="
  386.965,1486.45 386.965,1467.55 
  "/>
<polyline clip-path="url(#clip900)" style="stroke:#000000; stroke-linecap:butt; stroke-linejoin:round; stroke-width:4; stroke-opacity:1; fill:none" points="
  809.716,1486.45 809.716,1467.55 
  "/>
<polyline clip-path="url(#clip900)" style="stroke:#000000; stroke-linecap:butt; stroke-linejoin:round; stroke-width:4; stroke-opacity:1; fill:none" points="
  1232.47,1486.45 1232.47,1467.55 
  "/>
<polyline clip-path="url(#clip900)" style="stroke:#000000; stroke-linecap:butt; stroke-linejoin:round; stroke-width:4; stroke-opacity:1; fill:none" points="
  1655.22,1486.45 1655.22,1467.55 
  "/>
<polyline clip-path="url(#clip900)" style="stroke:#000000; stroke-linecap:butt; stroke-linejoin:round; stroke-width:4; stroke-opacity:1; fill:none" points="
  2077.97,1486.45 2077.97,1467.55 
  "/>
<path clip-path="url(#clip900)" d="M355.866 1532.02 L385.542 1532.02 L385.542 1535.95 L355.866 1535.95 L355.866 1532.02 Z" fill="#000000" fill-rule="evenodd" fill-opacity="1" /><path clip-path="url(#clip900)" d="M408.481 1518.36 L396.676 1536.81 L408.481 1536.81 L408.481 1518.36 M407.254 1514.29 L413.134 1514.29 L413.134 1536.81 L418.065 1536.81 L418.065 1540.7 L413.134 1540.7 L413.134 1548.85 L408.481 1548.85 L408.481 1540.7 L392.879 1540.7 L392.879 1536.19 L407.254 1514.29 Z" fill="#000000" fill-rule="evenodd" fill-opacity="1" /><path clip-path="url(#clip900)" d="M779.658 1532.02 L809.334 1532.02 L809.334 1535.95 L779.658 1535.95 L779.658 1532.02 Z" fill="#000000" fill-rule="evenodd" fill-opacity="1" /><path clip-path="url(#clip900)" d="M823.454 1544.91 L839.774 1544.91 L839.774 1548.85 L817.829 1548.85 L817.829 1544.91 Q820.491 1542.16 825.075 1537.53 Q829.681 1532.88 830.862 1531.53 Q833.107 1529.01 833.987 1527.27 Q834.889 1525.51 834.889 1523.82 Q834.889 1521.07 832.945 1519.33 Q831.024 1517.6 827.922 1517.6 Q825.723 1517.6 823.269 1518.36 Q820.838 1519.13 818.061 1520.68 L818.061 1515.95 Q820.885 1514.82 823.338 1514.24 Q825.792 1513.66 827.829 1513.66 Q833.2 1513.66 836.394 1516.35 Q839.588 1519.03 839.588 1523.52 Q839.588 1525.65 838.778 1527.57 Q837.991 1529.47 835.885 1532.07 Q835.306 1532.74 832.204 1535.95 Q829.102 1539.15 823.454 1544.91 Z" fill="#000000" fill-rule="evenodd" fill-opacity="1" /><path clip-path="url(#clip900)" d="M1232.47 1517.37 Q1228.86 1517.37 1227.03 1520.93 Q1225.22 1524.47 1225.22 1531.6 Q1225.22 1538.71 1227.03 1542.27 Q1228.86 1545.82 1232.47 1545.82 Q1236.1 1545.82 1237.91 1542.27 Q1239.74 1538.71 1239.74 1531.6 Q1239.74 1524.47 1237.91 1520.93 Q1236.1 1517.37 1232.47 1517.37 M1232.47 1513.66 Q1238.28 1513.66 1241.33 1518.27 Q1244.41 1522.85 1244.41 1531.6 Q1244.41 1540.33 1241.33 1544.94 Q1238.28 1549.52 1232.47 1549.52 Q1226.66 1549.52 1223.58 1544.94 Q1220.52 1540.33 1220.52 1531.6 Q1220.52 1522.85 1223.58 1518.27 Q1226.66 1513.66 1232.47 1513.66 Z" fill="#000000" fill-rule="evenodd" fill-opacity="1" /><path clip-path="url(#clip900)" d="M1649.87 1544.91 L1666.19 1544.91 L1666.19 1548.85 L1644.25 1548.85 L1644.25 1544.91 Q1646.91 1542.16 1651.49 1537.53 Q1656.1 1532.88 1657.28 1531.53 Q1659.52 1529.01 1660.4 1527.27 Q1661.31 1525.51 1661.31 1523.82 Q1661.31 1521.07 1659.36 1519.33 Q1657.44 1517.6 1654.34 1517.6 Q1652.14 1517.6 1649.68 1518.36 Q1647.25 1519.13 1644.48 1520.68 L1644.48 1515.95 Q1647.3 1514.82 1649.75 1514.24 Q1652.21 1513.66 1654.25 1513.66 Q1659.62 1513.66 1662.81 1516.35 Q1666 1519.03 1666 1523.52 Q1666 1525.65 1665.19 1527.57 Q1664.41 1529.47 1662.3 1532.07 Q1661.72 1532.74 1658.62 1535.95 Q1655.52 1539.15 1649.87 1544.91 Z" fill="#000000" fill-rule="evenodd" fill-opacity="1" /><path clip-path="url(#clip900)" d="M2080.98 1518.36 L2069.17 1536.81 L2080.98 1536.81 L2080.98 1518.36 M2079.75 1514.29 L2085.63 1514.29 L2085.63 1536.81 L2090.56 1536.81 L2090.56 1540.7 L2085.63 1540.7 L2085.63 1548.85 L2080.98 1548.85 L2080.98 1540.7 L2065.38 1540.7 L2065.38 1536.19 L2079.75 1514.29 Z" fill="#000000" fill-rule="evenodd" fill-opacity="1" /><polyline clip-path="url(#clip902)" style="stroke:#000000; stroke-linecap:butt; stroke-linejoin:round; stroke-width:2; stroke-opacity:0.1; fill:none" points="
  112.177,1445.72 2352.76,1445.72 
  "/>
<polyline clip-path="url(#clip902)" style="stroke:#000000; stroke-linecap:butt; stroke-linejoin:round; stroke-width:2; stroke-opacity:0.1; fill:none" points="
  112.177,1210.17 2352.76,1210.17 
  "/>
<polyline clip-path="url(#clip902)" style="stroke:#000000; stroke-linecap:butt; stroke-linejoin:round; stroke-width:2; stroke-opacity:0.1; fill:none" points="
  112.177,974.632 2352.76,974.632 
  "/>
<polyline clip-path="url(#clip902)" style="stroke:#000000; stroke-linecap:butt; stroke-linejoin:round; stroke-width:2; stroke-opacity:0.1; fill:none" points="
  112.177,739.09 2352.76,739.09 
  "/>
<polyline clip-path="url(#clip902)" style="stroke:#000000; stroke-linecap:butt; stroke-linejoin:round; stroke-width:2; stroke-opacity:0.1; fill:none" points="
  112.177,503.548 2352.76,503.548 
  "/>
<polyline clip-path="url(#clip902)" style="stroke:#000000; stroke-linecap:butt; stroke-linejoin:round; stroke-width:2; stroke-opacity:0.1; fill:none" points="
  112.177,268.007 2352.76,268.007 
  "/>
<polyline clip-path="url(#clip900)" style="stroke:#000000; stroke-linecap:butt; stroke-linejoin:round; stroke-width:4; stroke-opacity:1; fill:none" points="
  112.177,1486.45 112.177,47.2441 
  "/>
<polyline clip-path="url(#clip900)" style="stroke:#000000; stroke-linecap:butt; stroke-linejoin:round; stroke-width:4; stroke-opacity:1; fill:none" points="
  112.177,1445.72 131.075,1445.72 
  "/>
<polyline clip-path="url(#clip900)" style="stroke:#000000; stroke-linecap:butt; stroke-linejoin:round; stroke-width:4; stroke-opacity:1; fill:none" points="
  112.177,1210.17 131.075,1210.17 
  "/>
<polyline clip-path="url(#clip900)" style="stroke:#000000; stroke-linecap:butt; stroke-linejoin:round; stroke-width:4; stroke-opacity:1; fill:none" points="
  112.177,974.632 131.075,974.632 
  "/>
<polyline clip-path="url(#clip900)" style="stroke:#000000; stroke-linecap:butt; stroke-linejoin:round; stroke-width:4; stroke-opacity:1; fill:none" points="
  112.177,739.09 131.075,739.09 
  "/>
<polyline clip-path="url(#clip900)" style="stroke:#000000; stroke-linecap:butt; stroke-linejoin:round; stroke-width:4; stroke-opacity:1; fill:none" points="
  112.177,503.548 131.075,503.548 
  "/>
<polyline clip-path="url(#clip900)" style="stroke:#000000; stroke-linecap:butt; stroke-linejoin:round; stroke-width:4; stroke-opacity:1; fill:none" points="
  112.177,268.007 131.075,268.007 
  "/>
<path clip-path="url(#clip900)" d="M64.2328 1431.51 Q60.6217 1431.51 58.793 1435.08 Q56.9875 1438.62 56.9875 1445.75 Q56.9875 1452.86 58.793 1456.42 Q60.6217 1459.96 64.2328 1459.96 Q67.867 1459.96 69.6726 1456.42 Q71.5013 1452.86 71.5013 1445.75 Q71.5013 1438.62 69.6726 1435.08 Q67.867 1431.51 64.2328 1431.51 M64.2328 1427.81 Q70.0429 1427.81 73.0985 1432.42 Q76.1772 1437 76.1772 1445.75 Q76.1772 1454.48 73.0985 1459.08 Q70.0429 1463.67 64.2328 1463.67 Q58.4226 1463.67 55.344 1459.08 Q52.2884 1454.48 52.2884 1445.75 Q52.2884 1437 55.344 1432.42 Q58.4226 1427.81 64.2328 1427.81 Z" fill="#000000" fill-rule="evenodd" fill-opacity="1" /><path clip-path="url(#clip900)" d="M56.2699 1223.52 L63.9087 1223.52 L63.9087 1197.15 L55.5986 1198.82 L55.5986 1194.56 L63.8624 1192.89 L68.5383 1192.89 L68.5383 1223.52 L76.1772 1223.52 L76.1772 1227.45 L56.2699 1227.45 L56.2699 1223.52 Z" fill="#000000" fill-rule="evenodd" fill-opacity="1" /><path clip-path="url(#clip900)" d="M59.8578 987.977 L76.1772 987.977 L76.1772 991.912 L54.2328 991.912 L54.2328 987.977 Q56.8949 985.222 61.4782 980.593 Q66.0846 975.94 67.2652 974.597 Q69.5105 972.074 70.3902 970.338 Q71.2929 968.579 71.2929 966.889 Q71.2929 964.134 69.3485 962.398 Q67.4272 960.662 64.3254 960.662 Q62.1263 960.662 59.6726 961.426 Q57.2421 962.19 54.4643 963.741 L54.4643 959.019 Q57.2884 957.884 59.7421 957.306 Q62.1958 956.727 64.2328 956.727 Q69.6031 956.727 72.7976 959.412 Q75.992 962.097 75.992 966.588 Q75.992 968.718 75.1818 970.639 Q74.3948 972.537 72.2883 975.13 Q71.7096 975.801 68.6078 979.019 Q65.5059 982.213 59.8578 987.977 Z" fill="#000000" fill-rule="evenodd" fill-opacity="1" /><path clip-path="url(#clip900)" d="M69.0476 737.736 Q72.404 738.454 74.279 740.722 Q76.1772 742.991 76.1772 746.324 Q76.1772 751.44 72.6587 754.241 Q69.1402 757.042 62.6587 757.042 Q60.4828 757.042 58.168 756.602 Q55.8764 756.185 53.4227 755.329 L53.4227 750.815 Q55.3671 751.949 57.6819 752.528 Q59.9967 753.106 62.5198 753.106 Q66.918 753.106 69.2096 751.37 Q71.5244 749.634 71.5244 746.324 Q71.5244 743.268 69.3717 741.556 Q67.242 739.819 63.4226 739.819 L59.3949 739.819 L59.3949 735.977 L63.6078 735.977 Q67.0569 735.977 68.8855 734.611 Q70.7142 733.222 70.7142 730.63 Q70.7142 727.968 68.8161 726.556 Q66.9411 725.12 63.4226 725.12 Q61.5013 725.12 59.3023 725.537 Q57.1032 725.954 54.4643 726.833 L54.4643 722.667 Q57.1264 721.926 59.4412 721.556 Q61.7791 721.185 63.8393 721.185 Q69.1633 721.185 72.2652 723.616 Q75.367 726.023 75.367 730.144 Q75.367 733.014 73.7235 735.005 Q72.08 736.972 69.0476 737.736 Z" fill="#000000" fill-rule="evenodd" fill-opacity="1" /><path clip-path="url(#clip900)" d="M66.5939 490.342 L54.7884 508.791 L66.5939 508.791 L66.5939 490.342 M65.367 486.268 L71.2466 486.268 L71.2466 508.791 L76.1772 508.791 L76.1772 512.68 L71.2466 512.68 L71.2466 520.828 L66.5939 520.828 L66.5939 512.68 L50.9921 512.68 L50.9921 508.166 L65.367 486.268 Z" fill="#000000" fill-rule="evenodd" fill-opacity="1" /><path clip-path="url(#clip900)" d="M55.2745 250.727 L73.6309 250.727 L73.6309 254.662 L59.5569 254.662 L59.5569 263.134 Q60.5754 262.787 61.5939 262.625 Q62.6124 262.44 63.6309 262.44 Q69.418 262.44 72.7976 265.611 Q76.1772 268.782 76.1772 274.199 Q76.1772 279.777 72.705 282.879 Q69.2328 285.958 62.9134 285.958 Q60.7374 285.958 58.4689 285.588 Q56.2236 285.217 53.8162 284.476 L53.8162 279.777 Q55.8995 280.912 58.1217 281.467 Q60.3439 282.023 62.8208 282.023 Q66.8254 282.023 69.1633 279.916 Q71.5013 277.81 71.5013 274.199 Q71.5013 270.588 69.1633 268.481 Q66.8254 266.375 62.8208 266.375 Q60.9458 266.375 59.0708 266.791 Q57.2189 267.208 55.2745 268.088 L55.2745 250.727 Z" fill="#000000" fill-rule="evenodd" fill-opacity="1" /><polyline clip-path="url(#clip902)" style="stroke:#ff0000; stroke-linecap:butt; stroke-linejoin:round; stroke-width:16; stroke-opacity:1; fill:none" stroke-dasharray="64, 40" points="
  175.59,1440.17 186.212,1423.78 196.834,1397.35 207.455,1362.12 218.077,1319.75 228.699,1272.2 239.321,1221.61 249.943,1170.23 260.565,1120.24 271.187,1073.66 
  281.809,1032.25 292.43,997.415 303.052,970.134 313.674,950.944 324.296,939.918 334.918,936.686 345.54,940.481 356.162,950.207 366.784,964.519 377.405,981.922 
  388.027,1000.87 398.649,1019.86 409.271,1037.53 419.893,1052.72 430.515,1064.56 441.137,1072.46 451.759,1076.18 462.38,1075.79 473.002,1071.63 483.624,1064.31 
  494.246,1054.61 504.868,1043.44 515.49,1031.73 526.112,1020.4 536.734,1010.28 547.355,1002.04 557.977,996.196 568.599,993.016 579.221,992.572 589.843,994.719 
  600.465,999.129 611.087,1005.32 621.709,1012.71 632.33,1020.67 642.952,1028.53 653.574,1035.72 664.196,1041.72 674.818,1046.13 685.44,1048.72 696.062,1049.4 
  706.684,1048.23 717.306,1045.41 727.927,1041.27 738.549,1036.19 749.171,1030.63 759.793,1025.05 770.415,1019.88 781.037,1015.51 791.659,1012.21 802.281,1010.19 
  812.902,1009.52 823.524,1010.16 834.146,1011.99 844.768,1014.78 855.39,1018.25 866.012,1022.08 876.634,1025.96 887.256,1029.56 897.877,1032.63 908.499,1034.96 
  919.121,1036.41 929.743,1036.94 940.365,1036.58 950.987,1035.41 961.609,1033.6 972.231,1031.34 982.852,1028.85 993.474,1026.36 1004.1,1024.07 1014.72,1022.14 
  1025.34,1020.71 1035.96,1019.85 1046.58,1019.56 1057.21,1019.82 1067.83,1020.55 1078.45,1021.62 1089.07,1022.91 1099.69,1024.27 1110.31,1025.56 1120.94,1026.68 
  1131.56,1027.54 1142.18,1028.08 1152.8,1028.32 1163.42,1028.26 1174.05,1027.97 1184.67,1027.53 1195.29,1027.02 1205.91,1026.55 1216.53,1026.18 1227.16,1025.98 
  1237.78,1025.98 1248.4,1026.18 1259.02,1026.55 1269.64,1027.02 1280.26,1027.53 1290.89,1027.97 1301.51,1028.26 1312.13,1028.32 1322.75,1028.08 1333.37,1027.54 
  1344,1026.68 1354.62,1025.56 1365.24,1024.27 1375.86,1022.91 1386.48,1021.62 1397.11,1020.55 1407.73,1019.82 1418.35,1019.56 1428.97,1019.85 1439.59,1020.71 
  1450.22,1022.14 1460.84,1024.07 1471.46,1026.36 1482.08,1028.85 1492.7,1031.34 1503.32,1033.6 1513.95,1035.41 1524.57,1036.58 1535.19,1036.94 1545.81,1036.41 
  1556.43,1034.96 1567.06,1032.63 1577.68,1029.56 1588.3,1025.96 1598.92,1022.08 1609.54,1018.25 1620.17,1014.78 1630.79,1011.99 1641.41,1010.16 1652.03,1009.52 
  1662.65,1010.19 1673.27,1012.21 1683.9,1015.51 1694.52,1019.88 1705.14,1025.05 1715.76,1030.63 1726.38,1036.19 1737.01,1041.27 1747.63,1045.41 1758.25,1048.23 
  1768.87,1049.4 1779.49,1048.72 1790.12,1046.13 1800.74,1041.72 1811.36,1035.72 1821.98,1028.53 1832.6,1020.67 1843.22,1012.71 1853.85,1005.32 1864.47,999.129 
  1875.09,994.719 1885.71,992.572 1896.33,993.016 1906.96,996.196 1917.58,1002.04 1928.2,1010.28 1938.82,1020.4 1949.44,1031.73 1960.07,1043.44 1970.69,1054.61 
  1981.31,1064.31 1991.93,1071.63 2002.55,1075.79 2013.17,1076.18 2023.8,1072.46 2034.42,1064.56 2045.04,1052.72 2055.66,1037.53 2066.28,1019.86 2076.91,1000.87 
  2087.53,981.922 2098.15,964.519 2108.77,950.207 2119.39,940.481 2130.02,936.686 2140.64,939.918 2151.26,950.944 2161.88,970.134 2172.5,997.415 2183.12,1032.25 
  2193.75,1073.66 2204.37,1120.24 2214.99,1170.23 2225.61,1221.61 2236.23,1272.2 2246.86,1319.75 2257.48,1362.12 2268.1,1397.35 2278.72,1423.78 2289.34,1440.17 
  
  "/>
<polyline clip-path="url(#clip902)" style="stroke:#008000; stroke-linecap:butt; stroke-linejoin:round; stroke-width:16; stroke-opacity:1; fill:none" stroke-dasharray="64, 40" points="
  175.59,1445.72 186.212,1445.72 196.834,1445.72 207.455,1445.72 218.077,1445.72 228.699,1445.72 239.321,1445.72 249.943,1445.72 260.565,1445.72 271.187,1445.72 
  281.809,1445.72 292.43,1445.72 303.052,1445.72 313.674,1445.72 324.296,1445.72 334.918,1445.72 345.54,1445.72 356.162,1445.72 366.784,1445.72 377.405,1445.72 
  388.027,1445.72 398.649,1445.72 409.271,1445.72 419.893,1445.72 430.515,1445.72 441.137,1445.72 451.759,1445.72 462.38,1445.72 473.002,1445.72 483.624,1445.72 
  494.246,1445.72 504.868,1445.72 515.49,1445.72 526.112,1445.72 536.734,1445.72 547.355,1445.72 557.977,1445.72 568.599,1445.72 579.221,1445.72 589.843,1445.72 
  600.465,1445.72 611.087,1445.72 621.709,1445.72 632.33,1445.72 642.952,1445.72 653.574,1445.72 664.196,1445.72 674.818,1445.72 685.44,1445.72 696.062,1445.72 
  706.684,1445.72 717.306,1445.72 727.927,1445.72 738.549,1445.72 749.171,1445.72 759.793,1445.72 770.415,1445.72 781.037,1445.72 791.659,1445.72 802.281,1445.72 
  812.902,1362.66 823.524,1137.29 834.146,832.858 844.768,530.647 855.39,303.321 866.012,192.646 876.634,199.374 887.256,288.089 897.877,404.097 908.499,495.144 
  919.121,529.469 929.743,503.884 940.365,439.967 950.987,371.302 961.609,327.901 972.231,324.366 982.852,356.105 993.474,404.097 1004.1,445.088 1014.72,462.202 
  1025.34,451.378 1035.96,421.37 1046.58,388.134 1057.21,366.788 1067.83,365.012 1078.45,380.653 1089.07,404.097 1099.69,423.691 1110.31,431.347 1120.94,425.715 
  1131.56,411.739 1142.18,397.325 1152.8,389.094 1163.42,389.418 1174.05,396.04 1184.67,404.097 1195.29,409.178 1205.91,409.641 1216.53,407.016 1227.16,404.481 
  1237.78,404.481 1248.4,407.016 1259.02,409.641 1269.64,409.178 1280.26,404.097 1290.89,396.04 1301.51,389.418 1312.13,389.094 1322.75,397.325 1333.37,411.739 
  1344,425.715 1354.62,431.347 1365.24,423.691 1375.86,404.097 1386.48,380.653 1397.11,365.012 1407.73,366.788 1418.35,388.134 1428.97,421.37 1439.59,451.378 
  1450.22,462.202 1460.84,445.088 1471.46,404.097 1482.08,356.105 1492.7,324.366 1503.32,327.901 1513.95,371.302 1524.57,439.967 1535.19,503.884 1545.81,529.469 
  1556.43,495.144 1567.06,404.097 1577.68,288.089 1588.3,199.374 1598.92,192.646 1609.54,303.321 1620.17,530.647 1630.79,832.858 1641.41,1137.29 1652.03,1362.66 
  1662.65,1445.72 1673.27,1445.72 1683.9,1445.72 1694.52,1445.72 1705.14,1445.72 1715.76,1445.72 1726.38,1445.72 1737.01,1445.72 1747.63,1445.72 1758.25,1445.72 
  1768.87,1445.72 1779.49,1445.72 1790.12,1445.72 1800.74,1445.72 1811.36,1445.72 1821.98,1445.72 1832.6,1445.72 1843.22,1445.72 1853.85,1445.72 1864.47,1445.72 
  1875.09,1445.72 1885.71,1445.72 1896.33,1445.72 1906.96,1445.72 1917.58,1445.72 1928.2,1445.72 1938.82,1445.72 1949.44,1445.72 1960.07,1445.72 1970.69,1445.72 
  1981.31,1445.72 1991.93,1445.72 2002.55,1445.72 2013.17,1445.72 2023.8,1445.72 2034.42,1445.72 2045.04,1445.72 2055.66,1445.72 2066.28,1445.72 2076.91,1445.72 
  2087.53,1445.72 2098.15,1445.72 2108.77,1445.72 2119.39,1445.72 2130.02,1445.72 2140.64,1445.72 2151.26,1445.72 2161.88,1445.72 2172.5,1445.72 2183.12,1445.72 
  2193.75,1445.72 2204.37,1445.72 2214.99,1445.72 2225.61,1445.72 2236.23,1445.72 2246.86,1445.72 2257.48,1445.72 2268.1,1445.72 2278.72,1445.72 2289.34,1445.72 
  
  "/>
<polyline clip-path="url(#clip902)" style="stroke:#0000ff; stroke-linecap:butt; stroke-linejoin:round; stroke-width:16; stroke-opacity:1; fill:none" stroke-dasharray="64, 40" points="
  175.59,1445.72 186.212,1445.72 196.834,1445.71 207.455,1445.71 218.077,1445.71 228.699,1445.71 239.321,1445.7 249.943,1445.7 260.565,1445.68 271.187,1445.67 
  281.809,1445.64 292.43,1445.6 303.052,1445.53 313.674,1445.43 324.296,1445.29 334.918,1445.08 345.54,1444.78 356.162,1444.36 366.784,1443.75 377.405,1442.91 
  388.027,1441.75 398.649,1440.17 409.271,1438.04 419.893,1435.2 430.515,1431.48 441.137,1426.66 451.759,1420.5 462.38,1412.72 473.002,1403.04 483.624,1391.18 
  494.246,1376.85 504.868,1359.8 515.49,1339.86 526.112,1316.91 536.734,1290.95 547.355,1262.16 557.977,1230.82 568.599,1197.43 579.221,1162.65 589.843,1127.29 
  600.465,1092.3 611.087,1058.68 621.709,1027.45 632.33,999.542 642.952,975.711 653.574,956.466 664.196,941.989 674.818,932.099 685.44,926.24 696.062,923.521 
  706.684,922.79 717.306,922.749 727.927,922.101 738.549,919.704 749.171,914.711 759.793,906.683 770.415,895.651 781.037,882.108 791.659,866.939 802.281,851.285 
  812.902,836.367 823.524,823.291 834.146,812.873 844.768,805.507 855.39,801.103 866.012,799.114 876.634,798.641 887.256,798.6 897.877,797.925 908.499,795.764 
  919.121,791.629 929.743,785.475 940.365,777.694 950.987,769.007 961.609,760.315 972.231,752.495 982.852,746.227 993.474,741.86 1004.1,739.358 1014.72,738.332 
  1025.34,738.149 1035.96,738.09 1046.58,737.51 1057.21,735.982 1067.83,733.371 1078.45,729.839 1089.07,725.775 1099.69,721.681 1110.31,718.04 1120.94,715.198 
  1131.56,713.297 1142.18,712.268 1152.8,711.879 1163.42,711.818 1174.05,711.796 1184.67,711.622 1195.29,711.244 1205.91,710.738 1216.53,710.258 1227.16,709.967 
  1237.78,709.967 1248.4,710.258 1259.02,710.738 1269.64,711.244 1280.26,711.622 1290.89,711.796 1301.51,711.818 1312.13,711.879 1322.75,712.268 1333.37,713.297 
  1344,715.198 1354.62,718.04 1365.24,721.681 1375.86,725.775 1386.48,729.839 1397.11,733.371 1407.73,735.982 1418.35,737.51 1428.97,738.09 1439.59,738.149 
  1450.22,738.332 1460.84,739.358 1471.46,741.86 1482.08,746.227 1492.7,752.495 1503.32,760.315 1513.95,769.007 1524.57,777.694 1535.19,785.475 1545.81,791.629 
  1556.43,795.764 1567.06,797.925 1577.68,798.6 1588.3,798.641 1598.92,799.114 1609.54,801.103 1620.17,805.507 1630.79,812.873 1641.41,823.291 1652.03,836.367 
  1662.65,851.285 1673.27,866.939 1683.9,882.108 1694.52,895.651 1705.14,906.683 1715.76,914.711 1726.38,919.704 1737.01,922.101 1747.63,922.749 1758.25,922.79 
  1768.87,923.521 1779.49,926.24 1790.12,932.099 1800.74,941.989 1811.36,956.466 1821.98,975.711 1832.6,999.542 1843.22,1027.45 1853.85,1058.68 1864.47,1092.3 
  1875.09,1127.29 1885.71,1162.65 1896.33,1197.43 1906.96,1230.82 1917.58,1262.16 1928.2,1290.95 1938.82,1316.91 1949.44,1339.86 1960.07,1359.8 1970.69,1376.85 
  1981.31,1391.18 1991.93,1403.04 2002.55,1412.72 2013.17,1420.5 2023.8,1426.66 2034.42,1431.48 2045.04,1435.2 2055.66,1438.04 2066.28,1440.17 2076.91,1441.75 
  2087.53,1442.91 2098.15,1443.75 2108.77,1444.36 2119.39,1444.78 2130.02,1445.08 2140.64,1445.29 2151.26,1445.43 2161.88,1445.53 2172.5,1445.6 2183.12,1445.64 
  2193.75,1445.67 2204.37,1445.68 2214.99,1445.7 2225.61,1445.7 2236.23,1445.71 2246.86,1445.71 2257.48,1445.71 2268.1,1445.71 2278.72,1445.72 2289.34,1445.72 
  
  "/>
<polyline clip-path="url(#clip902)" style="stroke:#ff0000; stroke-linecap:butt; stroke-linejoin:round; stroke-width:16; stroke-opacity:1; fill:none" points="
  175.59,1433.07 186.212,1396.41 196.834,1339.36 207.455,1267.38 218.077,1187.02 228.699,1105.03 239.321,1027.67 249.943,960.109 260.565,906.024 271.187,867.523 
  281.809,845.18 292.43,838.248 303.052,844.938 313.674,862.735 324.296,888.709 334.918,919.784 345.54,952.977 356.162,985.588 366.784,1015.34 377.405,1040.45 
  388.027,1059.75 398.649,1072.59 409.271,1078.9 419.893,1079.1 430.515,1074.01 441.137,1064.73 451.759,1052.58 462.38,1038.93 473.002,1025.12 483.624,1012.37 
  494.246,1001.67 504.868,993.784 515.49,989.181 526.112,988.041 536.734,990.275 547.355,995.551 557.977,1003.34 568.599,1012.99 579.221,1023.74 589.843,1034.82 
  600.465,1045.49 611.087,1055.09 621.709,1063.08 632.33,1069.07 642.952,1072.83 653.574,1074.3 664.196,1073.59 674.818,1070.96 685.44,1066.77 696.062,1061.47 
  706.684,1055.55 717.306,1049.52 727.927,1043.85 738.549,1038.95 749.171,1035.16 759.793,1032.7 770.415,1031.7 781.037,1032.16 791.659,1033.99 802.281,1037.02 
  812.902,1040.98 823.524,1045.58 834.146,1050.48 844.768,1055.36 855.39,1059.92 866.012,1063.89 876.634,1067.06 887.256,1069.3 897.877,1070.54 908.499,1070.79 
  919.121,1070.14 929.743,1068.7 940.365,1066.66 950.987,1064.23 961.609,1061.63 972.231,1059.08 982.852,1056.75 993.474,1054.82 1004.1,1053.41 1014.72,1052.58 
  1025.34,1052.35 1035.96,1052.7 1046.58,1053.56 1057.21,1054.82 1067.83,1056.36 1078.45,1058.04 1089.07,1059.73 1099.69,1061.29 1110.31,1062.63 1120.94,1063.67 
  1131.56,1064.37 1142.18,1064.72 1152.8,1064.73 1163.42,1064.47 1174.05,1064.01 1184.67,1063.43 1195.29,1062.82 1205.91,1062.27 1216.53,1061.87 1227.16,1061.65 
  1237.78,1061.65 1248.4,1061.87 1259.02,1062.27 1269.64,1062.82 1280.26,1063.43 1290.89,1064.01 1301.51,1064.47 1312.13,1064.73 1322.75,1064.72 1333.37,1064.37 
  1344,1063.67 1354.62,1062.63 1365.24,1061.29 1375.86,1059.73 1386.48,1058.04 1397.11,1056.36 1407.73,1054.82 1418.35,1053.56 1428.97,1052.7 1439.59,1052.35 
  1450.22,1052.58 1460.84,1053.41 1471.46,1054.82 1482.08,1056.75 1492.7,1059.08 1503.32,1061.63 1513.95,1064.23 1524.57,1066.66 1535.19,1068.7 1545.81,1070.14 
  1556.43,1070.79 1567.06,1070.54 1577.68,1069.3 1588.3,1067.06 1598.92,1063.89 1609.54,1059.92 1620.17,1055.36 1630.79,1050.48 1641.41,1045.58 1652.03,1040.98 
  1662.65,1037.02 1673.27,1033.99 1683.9,1032.16 1694.52,1031.7 1705.14,1032.7 1715.76,1035.16 1726.38,1038.95 1737.01,1043.85 1747.63,1049.52 1758.25,1055.55 
  1768.87,1061.47 1779.49,1066.77 1790.12,1070.96 1800.74,1073.59 1811.36,1074.3 1821.98,1072.83 1832.6,1069.07 1843.22,1063.08 1853.85,1055.09 1864.47,1045.49 
  1875.09,1034.82 1885.71,1023.74 1896.33,1012.99 1906.96,1003.34 1917.58,995.551 1928.2,990.275 1938.82,988.041 1949.44,989.181 1960.07,993.784 1970.69,1001.67 
  1981.31,1012.37 1991.93,1025.12 2002.55,1038.93 2013.17,1052.58 2023.8,1064.73 2034.42,1074.01 2045.04,1079.1 2055.66,1078.9 2066.28,1072.59 2076.91,1059.75 
  2087.53,1040.45 2098.15,1015.34 2108.77,985.588 2119.39,952.977 2130.02,919.784 2140.64,888.709 2151.26,862.735 2161.88,844.938 2172.5,838.248 2183.12,845.18 
  2193.75,867.523 2204.37,906.024 2214.99,960.109 2225.61,1027.67 2236.23,1105.03 2246.86,1187.02 2257.48,1267.38 2268.1,1339.36 2278.72,1396.41 2289.34,1433.07 
  
  "/>
<polyline clip-path="url(#clip902)" style="stroke:#008000; stroke-linecap:butt; stroke-linejoin:round; stroke-width:16; stroke-opacity:1; fill:none" points="
  175.59,1445.72 186.212,1445.72 196.834,1445.72 207.455,1445.72 218.077,1445.72 228.699,1445.72 239.321,1445.72 249.943,1445.72 260.565,1445.72 271.187,1445.72 
  281.809,1445.72 292.43,1445.72 303.052,1445.72 313.674,1445.72 324.296,1445.72 334.918,1445.72 345.54,1445.72 356.162,1445.72 366.784,1445.72 377.405,1445.72 
  388.027,1445.72 398.649,1445.72 409.271,1445.72 419.893,1445.72 430.515,1445.72 441.137,1445.72 451.759,1445.72 462.38,1445.72 473.002,1445.72 483.624,1445.72 
  494.246,1445.72 504.868,1445.72 515.49,1445.72 526.112,1445.72 536.734,1445.72 547.355,1445.72 557.977,1445.72 568.599,1445.72 579.221,1445.72 589.843,1445.72 
  600.465,1445.72 611.087,1445.72 621.709,1445.72 632.33,1445.72 642.952,1445.72 653.574,1445.72 664.196,1445.72 674.818,1445.72 685.44,1445.72 696.062,1445.72 
  706.684,1445.72 717.306,1445.72 727.927,1445.72 738.549,1445.72 749.171,1445.72 759.793,1445.72 770.415,1445.72 781.037,1445.72 791.659,1445.72 802.281,1445.72 
  812.902,1335.48 823.524,1044.22 834.146,672.702 844.768,339.577 855.39,134.375 866.012,87.9763 876.634,170.795 887.256,314.954 897.877,447.154 908.499,517.129 
  919.121,511.538 929.743,450.978 940.365,374.627 950.987,320.652 961.609,310.681 972.231,343.779 982.852,400.744 993.474,455.231 1004.1,485.969 1014.72,484.873 
  1025.34,458.379 1035.96,422.545 1046.58,394.878 1057.21,386.75 1067.83,399.522 1078.45,425.46 1089.07,452.406 1099.69,469.626 1110.31,472.174 1120.94,462.098 
  1131.56,446.414 1142.18,433.224 1152.8,427.949 1163.42,431.377 1174.05,440.165 1184.67,449.206 1195.29,454.47 1205.91,454.843 1216.53,452.166 1227.16,449.643 
  1237.78,449.643 1248.4,452.166 1259.02,454.843 1269.64,454.47 1280.26,449.206 1290.89,440.165 1301.51,431.377 1312.13,427.949 1322.75,433.224 1333.37,446.414 
  1344,462.098 1354.62,472.174 1365.24,469.626 1375.86,452.406 1386.48,425.46 1397.11,399.522 1407.73,386.75 1418.35,394.878 1428.97,422.545 1439.59,458.379 
  1450.22,484.873 1460.84,485.969 1471.46,455.231 1482.08,400.744 1492.7,343.779 1503.32,310.681 1513.95,320.652 1524.57,374.627 1535.19,450.978 1545.81,511.538 
  1556.43,517.129 1567.06,447.154 1577.68,314.954 1588.3,170.795 1598.92,87.9763 1609.54,134.375 1620.17,339.577 1630.79,672.702 1641.41,1044.22 1652.03,1335.48 
  1662.65,1445.72 1673.27,1445.72 1683.9,1445.72 1694.52,1445.72 1705.14,1445.72 1715.76,1445.72 1726.38,1445.72 1737.01,1445.72 1747.63,1445.72 1758.25,1445.72 
  1768.87,1445.72 1779.49,1445.72 1790.12,1445.72 1800.74,1445.72 1811.36,1445.72 1821.98,1445.72 1832.6,1445.72 1843.22,1445.72 1853.85,1445.72 1864.47,1445.72 
  1875.09,1445.72 1885.71,1445.72 1896.33,1445.72 1906.96,1445.72 1917.58,1445.72 1928.2,1445.72 1938.82,1445.72 1949.44,1445.72 1960.07,1445.72 1970.69,1445.72 
  1981.31,1445.72 1991.93,1445.72 2002.55,1445.72 2013.17,1445.72 2023.8,1445.72 2034.42,1445.72 2045.04,1445.72 2055.66,1445.72 2066.28,1445.72 2076.91,1445.72 
  2087.53,1445.72 2098.15,1445.72 2108.77,1445.72 2119.39,1445.72 2130.02,1445.72 2140.64,1445.72 2151.26,1445.72 2161.88,1445.72 2172.5,1445.72 2183.12,1445.72 
  2193.75,1445.72 2204.37,1445.72 2214.99,1445.72 2225.61,1445.72 2236.23,1445.72 2246.86,1445.72 2257.48,1445.72 2268.1,1445.72 2278.72,1445.72 2289.34,1445.72 
  
  "/>
<polyline clip-path="url(#clip902)" style="stroke:#0000ff; stroke-linecap:butt; stroke-linejoin:round; stroke-width:16; stroke-opacity:1; fill:none" points="
  175.59,1445.69 186.212,1445.59 196.834,1445.42 207.455,1445.15 218.077,1444.75 228.699,1444.18 239.321,1443.39 249.943,1442.31 260.565,1440.85 271.187,1438.92 
  281.809,1436.4 292.43,1433.14 303.052,1429 313.674,1423.81 324.296,1417.39 334.918,1409.57 345.54,1400.17 356.162,1389.04 366.784,1376.06 377.405,1361.13 
  388.027,1344.23 398.649,1325.39 409.271,1304.7 419.893,1282.37 430.515,1258.65 441.137,1233.87 451.759,1208.47 462.38,1182.89 473.002,1157.65 483.624,1133.27 
  494.246,1110.26 504.868,1089.1 515.49,1070.2 526.112,1053.88 536.734,1040.36 547.355,1029.7 557.977,1021.85 568.599,1016.57 579.221,1013.51 589.843,1012.19 
  600.465,1012.02 611.087,1012.36 621.709,1012.56 632.33,1011.99 642.952,1010.15 653.574,1006.64 664.196,1001.24 674.818,993.926 685.44,984.886 696.062,974.475 
  706.684,963.202 717.306,951.665 727.927,940.497 738.549,930.288 749.171,921.524 759.793,914.532 770.415,909.441 781.037,906.17 791.659,904.44 802.281,903.811 
  812.902,903.739 823.524,903.651 834.146,903.012 844.768,901.401 855.39,898.561 866.012,894.431 876.634,889.144 887.256,883.008 897.877,876.451 908.499,869.956 
  919.121,863.99 929.743,858.933 940.365,855.025 950.987,852.338 961.609,850.769 972.231,850.071 982.852,849.893 993.474,849.846 1004.1,849.567 1014.72,848.772 
  1025.34,847.305 1035.96,845.148 1046.58,842.417 1057.21,839.331 1067.83,836.165 1078.45,833.2 1089.07,830.668 1099.69,828.719 1110.31,827.396 1120.94,826.644 
  1131.56,826.325 1142.18,826.258 1152.8,826.259 1163.42,826.176 1174.05,825.925 1184.67,825.492 1195.29,824.935 1205.91,824.359 1216.53,823.885 1227.16,823.618 
  1237.78,823.618 1248.4,823.885 1259.02,824.359 1269.64,824.935 1280.26,825.492 1290.89,825.925 1301.51,826.176 1312.13,826.259 1322.75,826.258 1333.37,826.325 
  1344,826.644 1354.62,827.396 1365.24,828.719 1375.86,830.668 1386.48,833.2 1397.11,836.165 1407.73,839.331 1418.35,842.417 1428.97,845.148 1439.59,847.305 
  1450.22,848.772 1460.84,849.567 1471.46,849.846 1482.08,849.893 1492.7,850.071 1503.32,850.769 1513.95,852.338 1524.57,855.025 1535.19,858.933 1545.81,863.99 
  1556.43,869.956 1567.06,876.451 1577.68,883.008 1588.3,889.144 1598.92,894.431 1609.54,898.561 1620.17,901.401 1630.79,903.012 1641.41,903.651 1652.03,903.739 
  1662.65,903.811 1673.27,904.44 1683.9,906.17 1694.52,909.441 1705.14,914.532 1715.76,921.524 1726.38,930.288 1737.01,940.497 1747.63,951.665 1758.25,963.202 
  1768.87,974.475 1779.49,984.886 1790.12,993.926 1800.74,1001.24 1811.36,1006.64 1821.98,1010.15 1832.6,1011.99 1843.22,1012.56 1853.85,1012.36 1864.47,1012.02 
  1875.09,1012.19 1885.71,1013.51 1896.33,1016.57 1906.96,1021.85 1917.58,1029.7 1928.2,1040.36 1938.82,1053.88 1949.44,1070.2 1960.07,1089.1 1970.69,1110.26 
  1981.31,1133.27 1991.93,1157.65 2002.55,1182.89 2013.17,1208.47 2023.8,1233.87 2034.42,1258.65 2045.04,1282.37 2055.66,1304.7 2066.28,1325.39 2076.91,1344.23 
  2087.53,1361.13 2098.15,1376.06 2108.77,1389.04 2119.39,1400.17 2130.02,1409.57 2140.64,1417.39 2151.26,1423.81 2161.88,1429 2172.5,1433.14 2183.12,1436.4 
  2193.75,1438.92 2204.37,1440.85 2214.99,1442.31 2225.61,1443.39 2236.23,1444.18 2246.86,1444.75 2257.48,1445.15 2268.1,1445.42 2278.72,1445.59 2289.34,1445.69 
  
  "/>
<path clip-path="url(#clip900)" d="
M1740.44 458.098 L2278.07 458.098 L2278.07 95.2176 L1740.44 95.2176  Z
  " fill="#ffffff" fill-rule="evenodd" fill-opacity="1"/>
<polyline clip-path="url(#clip900)" style="stroke:#000000; stroke-linecap:butt; stroke-linejoin:round; stroke-width:4; stroke-opacity:1; fill:none" points="
  1740.44,458.098 2278.07,458.098 2278.07,95.2176 1740.44,95.2176 1740.44,458.098 
  "/>
<polyline clip-path="url(#clip900)" style="stroke:#ff0000; stroke-linecap:butt; stroke-linejoin:round; stroke-width:4; stroke-opacity:1; fill:none" stroke-dasharray="16, 10" points="
  1765.33,147.058 1914.7,147.058 
  "/>
<path clip-path="url(#clip900)" d="M1941.68 143.041 Q1943.1 140.68 1946.59 138.597 Q1947.96 137.787 1952.17 137.787 Q1956.89 137.787 1959.83 141.537 Q1962.79 145.287 1962.79 151.398 Q1962.79 157.509 1959.83 161.259 Q1956.89 165.009 1952.17 165.009 Q1949.32 165.009 1947.26 163.898 Q1945.23 162.763 1943.88 160.449 L1943.88 174.199 L1939.6 174.199 L1939.6 151.629 Q1939.6 146.282 1941.68 143.041 M1958.37 151.398 Q1958.37 146.699 1956.43 144.037 Q1954.51 141.352 1951.13 141.352 Q1947.75 141.352 1945.8 144.037 Q1943.88 146.699 1943.88 151.398 Q1943.88 156.097 1945.8 158.782 Q1947.75 161.444 1951.13 161.444 Q1954.51 161.444 1956.43 158.782 Q1958.37 156.097 1958.37 151.398 Z" fill="#000000" fill-rule="evenodd" fill-opacity="1" /><path clip-path="url(#clip900)" d="M1989.55 172.208 L1989.55 175.518 L1964.92 175.518 L1964.92 172.208 L1989.55 172.208 Z" fill="#000000" fill-rule="evenodd" fill-opacity="1" /><path clip-path="url(#clip900)" d="M2015.73 150.31 L2015.73 152.393 L1996.15 152.393 Q1996.43 156.791 1998.79 159.106 Q2001.17 161.398 2005.41 161.398 Q2007.86 161.398 2010.16 160.796 Q2012.47 160.194 2014.74 158.99 L2014.74 163.018 Q2012.45 163.99 2010.04 164.5 Q2007.63 165.009 2005.16 165.009 Q1998.95 165.009 1995.32 161.398 Q1991.71 157.787 1991.71 151.629 Q1991.71 145.264 1995.13 141.537 Q1998.58 137.787 2004.41 137.787 Q2009.65 137.787 2012.68 141.166 Q2015.73 144.523 2015.73 150.31 M2011.47 149.06 Q2011.43 145.565 2009.51 143.481 Q2007.61 141.398 2004.46 141.398 Q2000.9 141.398 1998.74 143.412 Q1996.61 145.426 1996.29 149.083 L2011.47 149.06 Z" fill="#000000" fill-rule="evenodd" fill-opacity="1" /><path clip-path="url(#clip900)" d="M2042.91 143.389 Q2044.51 140.518 2046.73 139.153 Q2048.95 137.787 2051.96 137.787 Q2056.01 137.787 2058.21 140.634 Q2060.41 143.458 2060.41 148.689 L2060.41 164.338 L2056.13 164.338 L2056.13 148.828 Q2056.13 145.102 2054.81 143.296 Q2053.49 141.49 2050.78 141.49 Q2047.47 141.49 2045.55 143.69 Q2043.63 145.889 2043.63 149.685 L2043.63 164.338 L2039.35 164.338 L2039.35 148.828 Q2039.35 145.078 2038.03 143.296 Q2036.71 141.49 2033.95 141.49 Q2030.69 141.49 2028.77 143.713 Q2026.85 145.912 2026.85 149.685 L2026.85 164.338 L2022.56 164.338 L2022.56 138.412 L2026.85 138.412 L2026.85 142.44 Q2028.3 140.055 2030.34 138.921 Q2032.38 137.787 2035.18 137.787 Q2038 137.787 2039.97 139.222 Q2041.96 140.657 2042.91 143.389 Z" fill="#000000" fill-rule="evenodd" fill-opacity="1" /><path clip-path="url(#clip900)" d="M2073.03 160.449 L2073.03 174.199 L2068.74 174.199 L2068.74 138.412 L2073.03 138.412 L2073.03 142.347 Q2074.37 140.032 2076.41 138.921 Q2078.47 137.787 2081.31 137.787 Q2086.03 137.787 2088.97 141.537 Q2091.94 145.287 2091.94 151.398 Q2091.94 157.509 2088.97 161.259 Q2086.03 165.009 2081.31 165.009 Q2078.47 165.009 2076.41 163.898 Q2074.37 162.763 2073.03 160.449 M2087.52 151.398 Q2087.52 146.699 2085.57 144.037 Q2083.65 141.352 2080.27 141.352 Q2076.89 141.352 2074.95 144.037 Q2073.03 146.699 2073.03 151.398 Q2073.03 156.097 2074.95 158.782 Q2076.89 161.444 2080.27 161.444 Q2083.65 161.444 2085.57 158.782 Q2087.52 156.097 2087.52 151.398 Z" fill="#000000" fill-rule="evenodd" fill-opacity="1" /><path clip-path="url(#clip900)" d="M2103.21 131.051 L2103.21 138.412 L2111.98 138.412 L2111.98 141.722 L2103.21 141.722 L2103.21 155.796 Q2103.21 158.967 2104.07 159.87 Q2104.95 160.773 2107.61 160.773 L2111.98 160.773 L2111.98 164.338 L2107.61 164.338 Q2102.68 164.338 2100.8 162.509 Q2098.93 160.657 2098.93 155.796 L2098.93 141.722 L2095.8 141.722 L2095.8 138.412 L2098.93 138.412 L2098.93 131.051 L2103.21 131.051 Z" fill="#000000" fill-rule="evenodd" fill-opacity="1" /><path clip-path="url(#clip900)" d="M2128.37 166.745 Q2126.57 171.375 2124.85 172.787 Q2123.14 174.199 2120.27 174.199 L2116.87 174.199 L2116.87 170.634 L2119.37 170.634 Q2121.13 170.634 2122.1 169.8 Q2123.07 168.967 2124.25 165.865 L2125.02 163.921 L2114.53 138.412 L2119.04 138.412 L2127.15 158.689 L2135.25 138.412 L2139.76 138.412 L2128.37 166.745 Z" fill="#000000" fill-rule="evenodd" fill-opacity="1" /><polyline clip-path="url(#clip900)" style="stroke:#008000; stroke-linecap:butt; stroke-linejoin:round; stroke-width:4; stroke-opacity:1; fill:none" stroke-dasharray="16, 10" points="
  1765.33,198.898 1914.7,198.898 
  "/>
<path clip-path="url(#clip900)" d="M1941.68 194.881 Q1943.1 192.52 1946.59 190.437 Q1947.96 189.627 1952.17 189.627 Q1956.89 189.627 1959.83 193.377 Q1962.79 197.127 1962.79 203.238 Q1962.79 209.349 1959.83 213.099 Q1956.89 216.849 1952.17 216.849 Q1949.32 216.849 1947.26 215.738 Q1945.23 214.603 1943.88 212.289 L1943.88 226.039 L1939.6 226.039 L1939.6 203.469 Q1939.6 198.122 1941.68 194.881 M1958.37 203.238 Q1958.37 198.539 1956.43 195.877 Q1954.51 193.192 1951.13 193.192 Q1947.75 193.192 1945.8 195.877 Q1943.88 198.539 1943.88 203.238 Q1943.88 207.937 1945.8 210.622 Q1947.75 213.284 1951.13 213.284 Q1954.51 213.284 1956.43 210.622 Q1958.37 207.937 1958.37 203.238 Z" fill="#000000" fill-rule="evenodd" fill-opacity="1" /><path clip-path="url(#clip900)" d="M1989.55 224.048 L1989.55 227.358 L1964.92 227.358 L1964.92 224.048 L1989.55 224.048 Z" fill="#000000" fill-rule="evenodd" fill-opacity="1" /><path clip-path="url(#clip900)" d="M1991.08 190.252 L1995.34 190.252 L2000.66 210.483 L2005.97 190.252 L2010.99 190.252 L2016.31 210.483 L2021.61 190.252 L2025.87 190.252 L2019.09 216.178 L2014.07 216.178 L2008.49 194.928 L2002.89 216.178 L1997.86 216.178 L1991.08 190.252 Z" fill="#000000" fill-rule="evenodd" fill-opacity="1" /><path clip-path="url(#clip900)" d="M2054.51 202.15 L2054.51 204.233 L2034.92 204.233 Q2035.2 208.631 2037.56 210.946 Q2039.95 213.238 2044.18 213.238 Q2046.64 213.238 2048.93 212.636 Q2051.24 212.034 2053.51 210.83 L2053.51 214.858 Q2051.22 215.83 2048.81 216.34 Q2046.41 216.849 2043.93 216.849 Q2037.72 216.849 2034.09 213.238 Q2030.48 209.627 2030.48 203.469 Q2030.48 197.104 2033.91 193.377 Q2037.35 189.627 2043.19 189.627 Q2048.42 189.627 2051.45 193.006 Q2054.51 196.363 2054.51 202.15 M2050.25 200.9 Q2050.2 197.405 2048.28 195.321 Q2046.38 193.238 2043.23 193.238 Q2039.67 193.238 2037.52 195.252 Q2035.39 197.266 2035.06 200.923 L2050.25 200.9 Z" fill="#000000" fill-rule="evenodd" fill-opacity="1" /><path clip-path="url(#clip900)" d="M2061.5 180.159 L2065.76 180.159 L2065.76 216.178 L2061.5 216.178 L2061.5 180.159 Z" fill="#000000" fill-rule="evenodd" fill-opacity="1" /><path clip-path="url(#clip900)" d="M2074.67 180.159 L2078.93 180.159 L2078.93 216.178 L2074.67 216.178 L2074.67 180.159 Z" fill="#000000" fill-rule="evenodd" fill-opacity="1" /><polyline clip-path="url(#clip900)" style="stroke:#0000ff; stroke-linecap:butt; stroke-linejoin:round; stroke-width:4; stroke-opacity:1; fill:none" stroke-dasharray="16, 10" points="
  1765.33,250.738 1914.7,250.738 
  "/>
<path clip-path="url(#clip900)" d="M1941.68 246.721 Q1943.1 244.36 1946.59 242.277 Q1947.96 241.467 1952.17 241.467 Q1956.89 241.467 1959.83 245.217 Q1962.79 248.967 1962.79 255.078 Q1962.79 261.189 1959.83 264.939 Q1956.89 268.689 1952.17 268.689 Q1949.32 268.689 1947.26 267.578 Q1945.23 266.443 1943.88 264.129 L1943.88 277.879 L1939.6 277.879 L1939.6 255.309 Q1939.6 249.962 1941.68 246.721 M1958.37 255.078 Q1958.37 250.379 1956.43 247.717 Q1954.51 245.032 1951.13 245.032 Q1947.75 245.032 1945.8 247.717 Q1943.88 250.379 1943.88 255.078 Q1943.88 259.777 1945.8 262.462 Q1947.75 265.124 1951.13 265.124 Q1954.51 265.124 1956.43 262.462 Q1958.37 259.777 1958.37 255.078 Z" fill="#000000" fill-rule="evenodd" fill-opacity="1" /><path clip-path="url(#clip900)" d="M1989.55 275.888 L1989.55 279.198 L1964.92 279.198 L1964.92 275.888 L1989.55 275.888 Z" fill="#000000" fill-rule="evenodd" fill-opacity="1" /><path clip-path="url(#clip900)" d="M2015.11 252.369 L2015.11 268.018 L2010.85 268.018 L2010.85 252.508 Q2010.85 248.828 2009.41 246.999 Q2007.98 245.17 2005.11 245.17 Q2001.66 245.17 1999.67 247.37 Q1997.68 249.569 1997.68 253.365 L1997.68 268.018 L1993.4 268.018 L1993.4 231.999 L1997.68 231.999 L1997.68 246.12 Q1999.21 243.782 2001.27 242.624 Q2003.35 241.467 2006.06 241.467 Q2010.53 241.467 2012.82 244.245 Q2015.11 246.999 2015.11 252.369 Z" fill="#000000" fill-rule="evenodd" fill-opacity="1" /><path clip-path="url(#clip900)" d="M2035.39 254.985 Q2030.22 254.985 2028.23 256.166 Q2026.24 257.346 2026.24 260.194 Q2026.24 262.462 2027.72 263.805 Q2029.23 265.124 2031.8 265.124 Q2035.34 265.124 2037.47 262.624 Q2039.62 260.101 2039.62 255.934 L2039.62 254.985 L2035.39 254.985 M2043.88 253.226 L2043.88 268.018 L2039.62 268.018 L2039.62 264.082 Q2038.16 266.443 2035.99 267.578 Q2033.81 268.689 2030.66 268.689 Q2026.68 268.689 2024.32 266.467 Q2021.98 264.221 2021.98 260.471 Q2021.98 256.096 2024.9 253.874 Q2027.84 251.652 2033.65 251.652 L2039.62 251.652 L2039.62 251.235 Q2039.62 248.295 2037.68 246.698 Q2035.76 245.078 2032.26 245.078 Q2030.04 245.078 2027.93 245.61 Q2025.83 246.143 2023.88 247.207 L2023.88 243.272 Q2026.22 242.37 2028.42 241.93 Q2030.62 241.467 2032.7 241.467 Q2038.33 241.467 2041.1 244.383 Q2043.88 247.3 2043.88 253.226 Z" fill="#000000" fill-rule="evenodd" fill-opacity="1" /><path clip-path="url(#clip900)" d="M2067.68 246.073 Q2066.96 245.657 2066.1 245.471 Q2065.27 245.263 2064.25 245.263 Q2060.64 245.263 2058.7 247.624 Q2056.78 249.962 2056.78 254.36 L2056.78 268.018 L2052.49 268.018 L2052.49 242.092 L2056.78 242.092 L2056.78 246.12 Q2058.12 243.758 2060.27 242.624 Q2062.42 241.467 2065.5 241.467 Q2065.94 241.467 2066.47 241.536 Q2067.01 241.583 2067.66 241.698 L2067.68 246.073 Z" fill="#000000" fill-rule="evenodd" fill-opacity="1" /><path clip-path="url(#clip900)" d="M2091.5 247.069 Q2093.09 244.198 2095.32 242.833 Q2097.54 241.467 2100.55 241.467 Q2104.6 241.467 2106.8 244.314 Q2109 247.138 2109 252.369 L2109 268.018 L2104.72 268.018 L2104.72 252.508 Q2104.72 248.782 2103.4 246.976 Q2102.08 245.17 2099.37 245.17 Q2096.06 245.17 2094.14 247.37 Q2092.22 249.569 2092.22 253.365 L2092.22 268.018 L2087.93 268.018 L2087.93 252.508 Q2087.93 248.758 2086.61 246.976 Q2085.29 245.17 2082.54 245.17 Q2079.28 245.17 2077.35 247.393 Q2075.43 249.592 2075.43 253.365 L2075.43 268.018 L2071.15 268.018 L2071.15 242.092 L2075.43 242.092 L2075.43 246.12 Q2076.89 243.735 2078.93 242.601 Q2080.97 241.467 2083.77 241.467 Q2086.59 241.467 2088.56 242.902 Q2090.55 244.337 2091.5 247.069 Z" fill="#000000" fill-rule="evenodd" fill-opacity="1" /><polyline clip-path="url(#clip900)" style="stroke:#ff0000; stroke-linecap:butt; stroke-linejoin:round; stroke-width:4; stroke-opacity:1; fill:none" points="
  1765.33,302.578 1914.7,302.578 
  "/>
<path clip-path="url(#clip900)" d="M1941.68 298.561 Q1943.1 296.2 1946.59 294.117 Q1947.96 293.307 1952.17 293.307 Q1956.89 293.307 1959.83 297.057 Q1962.79 300.807 1962.79 306.918 Q1962.79 313.029 1959.83 316.779 Q1956.89 320.529 1952.17 320.529 Q1949.32 320.529 1947.26 319.418 Q1945.23 318.283 1943.88 315.969 L1943.88 329.719 L1939.6 329.719 L1939.6 307.149 Q1939.6 301.802 1941.68 298.561 M1958.37 306.918 Q1958.37 302.219 1956.43 299.557 Q1954.51 296.872 1951.13 296.872 Q1947.75 296.872 1945.8 299.557 Q1943.88 302.219 1943.88 306.918 Q1943.88 311.617 1945.8 314.302 Q1947.75 316.964 1951.13 316.964 Q1954.51 316.964 1956.43 314.302 Q1958.37 311.617 1958.37 306.918 Z" fill="#000000" fill-rule="evenodd" fill-opacity="1" /><path clip-path="url(#clip900)" d="M1989.55 327.728 L1989.55 331.038 L1964.92 331.038 L1964.92 327.728 L1989.55 327.728 Z" fill="#000000" fill-rule="evenodd" fill-opacity="1" /><path clip-path="url(#clip900)" d="M2015.73 305.83 L2015.73 307.913 L1996.15 307.913 Q1996.43 312.311 1998.79 314.626 Q2001.17 316.918 2005.41 316.918 Q2007.86 316.918 2010.16 316.316 Q2012.47 315.714 2014.74 314.51 L2014.74 318.538 Q2012.45 319.51 2010.04 320.02 Q2007.63 320.529 2005.16 320.529 Q1998.95 320.529 1995.32 316.918 Q1991.71 313.307 1991.71 307.149 Q1991.71 300.784 1995.13 297.057 Q1998.58 293.307 2004.41 293.307 Q2009.65 293.307 2012.68 296.686 Q2015.73 300.043 2015.73 305.83 M2011.47 304.58 Q2011.43 301.085 2009.51 299.001 Q2007.61 296.918 2004.46 296.918 Q2000.9 296.918 1998.74 298.932 Q1996.61 300.946 1996.29 304.603 L2011.47 304.58 Z" fill="#000000" fill-rule="evenodd" fill-opacity="1" /><path clip-path="url(#clip900)" d="M2042.91 298.909 Q2044.51 296.038 2046.73 294.673 Q2048.95 293.307 2051.96 293.307 Q2056.01 293.307 2058.21 296.154 Q2060.41 298.978 2060.41 304.209 L2060.41 319.858 L2056.13 319.858 L2056.13 304.348 Q2056.13 300.622 2054.81 298.816 Q2053.49 297.01 2050.78 297.01 Q2047.47 297.01 2045.55 299.21 Q2043.63 301.409 2043.63 305.205 L2043.63 319.858 L2039.35 319.858 L2039.35 304.348 Q2039.35 300.598 2038.03 298.816 Q2036.71 297.01 2033.95 297.01 Q2030.69 297.01 2028.77 299.233 Q2026.85 301.432 2026.85 305.205 L2026.85 319.858 L2022.56 319.858 L2022.56 293.932 L2026.85 293.932 L2026.85 297.96 Q2028.3 295.575 2030.34 294.441 Q2032.38 293.307 2035.18 293.307 Q2038 293.307 2039.97 294.742 Q2041.96 296.177 2042.91 298.909 Z" fill="#000000" fill-rule="evenodd" fill-opacity="1" /><path clip-path="url(#clip900)" d="M2073.03 315.969 L2073.03 329.719 L2068.74 329.719 L2068.74 293.932 L2073.03 293.932 L2073.03 297.867 Q2074.37 295.552 2076.41 294.441 Q2078.47 293.307 2081.31 293.307 Q2086.03 293.307 2088.97 297.057 Q2091.94 300.807 2091.94 306.918 Q2091.94 313.029 2088.97 316.779 Q2086.03 320.529 2081.31 320.529 Q2078.47 320.529 2076.41 319.418 Q2074.37 318.283 2073.03 315.969 M2087.52 306.918 Q2087.52 302.219 2085.57 299.557 Q2083.65 296.872 2080.27 296.872 Q2076.89 296.872 2074.95 299.557 Q2073.03 302.219 2073.03 306.918 Q2073.03 311.617 2074.95 314.302 Q2076.89 316.964 2080.27 316.964 Q2083.65 316.964 2085.57 314.302 Q2087.52 311.617 2087.52 306.918 Z" fill="#000000" fill-rule="evenodd" fill-opacity="1" /><path clip-path="url(#clip900)" d="M2103.21 286.571 L2103.21 293.932 L2111.98 293.932 L2111.98 297.242 L2103.21 297.242 L2103.21 311.316 Q2103.21 314.487 2104.07 315.39 Q2104.95 316.293 2107.61 316.293 L2111.98 316.293 L2111.98 319.858 L2107.61 319.858 Q2102.68 319.858 2100.8 318.029 Q2098.93 316.177 2098.93 311.316 L2098.93 297.242 L2095.8 297.242 L2095.8 293.932 L2098.93 293.932 L2098.93 286.571 L2103.21 286.571 Z" fill="#000000" fill-rule="evenodd" fill-opacity="1" /><path clip-path="url(#clip900)" d="M2128.37 322.265 Q2126.57 326.895 2124.85 328.307 Q2123.14 329.719 2120.27 329.719 L2116.87 329.719 L2116.87 326.154 L2119.37 326.154 Q2121.13 326.154 2122.1 325.32 Q2123.07 324.487 2124.25 321.385 L2125.02 319.441 L2114.53 293.932 L2119.04 293.932 L2127.15 314.209 L2135.25 293.932 L2139.76 293.932 L2128.37 322.265 Z" fill="#000000" fill-rule="evenodd" fill-opacity="1" /><path clip-path="url(#clip900)" d="M2165.34 327.728 L2165.34 331.038 L2140.71 331.038 L2140.71 327.728 L2165.34 327.728 Z" fill="#000000" fill-rule="evenodd" fill-opacity="1" /><path clip-path="url(#clip900)" d="M2186.4 297.867 L2186.4 283.839 L2190.66 283.839 L2190.66 319.858 L2186.4 319.858 L2186.4 315.969 Q2185.06 318.283 2183 319.418 Q2180.96 320.529 2178.09 320.529 Q2173.4 320.529 2170.43 316.779 Q2167.49 313.029 2167.49 306.918 Q2167.49 300.807 2170.43 297.057 Q2173.4 293.307 2178.09 293.307 Q2180.96 293.307 2183 294.441 Q2185.06 295.552 2186.4 297.867 M2171.89 306.918 Q2171.89 311.617 2173.81 314.302 Q2175.76 316.964 2179.14 316.964 Q2182.52 316.964 2184.46 314.302 Q2186.4 311.617 2186.4 306.918 Q2186.4 302.219 2184.46 299.557 Q2182.52 296.872 2179.14 296.872 Q2175.76 296.872 2173.81 299.557 Q2171.89 302.219 2171.89 306.918 Z" fill="#000000" fill-rule="evenodd" fill-opacity="1" /><path clip-path="url(#clip900)" d="M2212.56 283.839 L2212.56 287.381 L2208.49 287.381 Q2206.2 287.381 2205.29 288.307 Q2204.41 289.233 2204.41 291.64 L2204.41 293.932 L2211.43 293.932 L2211.43 297.242 L2204.41 297.242 L2204.41 319.858 L2200.13 319.858 L2200.13 297.242 L2196.06 297.242 L2196.06 293.932 L2200.13 293.932 L2200.13 292.126 Q2200.13 287.798 2202.15 285.83 Q2204.16 283.839 2208.53 283.839 L2212.56 283.839 Z" fill="#000000" fill-rule="evenodd" fill-opacity="1" /><path clip-path="url(#clip900)" d="M2219.51 286.571 L2219.51 293.932 L2228.28 293.932 L2228.28 297.242 L2219.51 297.242 L2219.51 311.316 Q2219.51 314.487 2220.36 315.39 Q2221.24 316.293 2223.9 316.293 L2228.28 316.293 L2228.28 319.858 L2223.9 319.858 Q2218.97 319.858 2217.1 318.029 Q2215.22 316.177 2215.22 311.316 L2215.22 297.242 L2212.1 297.242 L2212.1 293.932 L2215.22 293.932 L2215.22 286.571 L2219.51 286.571 Z" fill="#000000" fill-rule="evenodd" fill-opacity="1" /><polyline clip-path="url(#clip900)" style="stroke:#008000; stroke-linecap:butt; stroke-linejoin:round; stroke-width:4; stroke-opacity:1; fill:none" points="
  1765.33,354.418 1914.7,354.418 
  "/>
<path clip-path="url(#clip900)" d="M1941.68 350.401 Q1943.1 348.04 1946.59 345.957 Q1947.96 345.147 1952.17 345.147 Q1956.89 345.147 1959.83 348.897 Q1962.79 352.647 1962.79 358.758 Q1962.79 364.869 1959.83 368.619 Q1956.89 372.369 1952.17 372.369 Q1949.32 372.369 1947.26 371.258 Q1945.23 370.123 1943.88 367.809 L1943.88 381.559 L1939.6 381.559 L1939.6 358.989 Q1939.6 353.642 1941.68 350.401 M1958.37 358.758 Q1958.37 354.059 1956.43 351.397 Q1954.51 348.712 1951.13 348.712 Q1947.75 348.712 1945.8 351.397 Q1943.88 354.059 1943.88 358.758 Q1943.88 363.457 1945.8 366.142 Q1947.75 368.804 1951.13 368.804 Q1954.51 368.804 1956.43 366.142 Q1958.37 363.457 1958.37 358.758 Z" fill="#000000" fill-rule="evenodd" fill-opacity="1" /><path clip-path="url(#clip900)" d="M1989.55 379.568 L1989.55 382.878 L1964.92 382.878 L1964.92 379.568 L1989.55 379.568 Z" fill="#000000" fill-rule="evenodd" fill-opacity="1" /><path clip-path="url(#clip900)" d="M1991.08 345.772 L1995.34 345.772 L2000.66 366.003 L2005.97 345.772 L2010.99 345.772 L2016.31 366.003 L2021.61 345.772 L2025.87 345.772 L2019.09 371.698 L2014.07 371.698 L2008.49 350.448 L2002.89 371.698 L1997.86 371.698 L1991.08 345.772 Z" fill="#000000" fill-rule="evenodd" fill-opacity="1" /><path clip-path="url(#clip900)" d="M2054.51 357.67 L2054.51 359.753 L2034.92 359.753 Q2035.2 364.151 2037.56 366.466 Q2039.95 368.758 2044.18 368.758 Q2046.64 368.758 2048.93 368.156 Q2051.24 367.554 2053.51 366.35 L2053.51 370.378 Q2051.22 371.35 2048.81 371.86 Q2046.41 372.369 2043.93 372.369 Q2037.72 372.369 2034.09 368.758 Q2030.48 365.147 2030.48 358.989 Q2030.48 352.624 2033.91 348.897 Q2037.35 345.147 2043.19 345.147 Q2048.42 345.147 2051.45 348.526 Q2054.51 351.883 2054.51 357.67 M2050.25 356.42 Q2050.2 352.925 2048.28 350.841 Q2046.38 348.758 2043.23 348.758 Q2039.67 348.758 2037.52 350.772 Q2035.39 352.786 2035.06 356.443 L2050.25 356.42 Z" fill="#000000" fill-rule="evenodd" fill-opacity="1" /><path clip-path="url(#clip900)" d="M2061.5 335.679 L2065.76 335.679 L2065.76 371.698 L2061.5 371.698 L2061.5 335.679 Z" fill="#000000" fill-rule="evenodd" fill-opacity="1" /><path clip-path="url(#clip900)" d="M2074.67 335.679 L2078.93 335.679 L2078.93 371.698 L2074.67 371.698 L2074.67 335.679 Z" fill="#000000" fill-rule="evenodd" fill-opacity="1" /><path clip-path="url(#clip900)" d="M2107.54 379.568 L2107.54 382.878 L2082.91 382.878 L2082.91 379.568 L2107.54 379.568 Z" fill="#000000" fill-rule="evenodd" fill-opacity="1" /><path clip-path="url(#clip900)" d="M2128.6 349.707 L2128.6 335.679 L2132.86 335.679 L2132.86 371.698 L2128.6 371.698 L2128.6 367.809 Q2127.26 370.123 2125.2 371.258 Q2123.16 372.369 2120.29 372.369 Q2115.59 372.369 2112.63 368.619 Q2109.69 364.869 2109.69 358.758 Q2109.69 352.647 2112.63 348.897 Q2115.59 345.147 2120.29 345.147 Q2123.16 345.147 2125.2 346.281 Q2127.26 347.392 2128.6 349.707 M2114.09 358.758 Q2114.09 363.457 2116.01 366.142 Q2117.96 368.804 2121.34 368.804 Q2124.72 368.804 2126.66 366.142 Q2128.6 363.457 2128.6 358.758 Q2128.6 354.059 2126.66 351.397 Q2124.72 348.712 2121.34 348.712 Q2117.96 348.712 2116.01 351.397 Q2114.09 354.059 2114.09 358.758 Z" fill="#000000" fill-rule="evenodd" fill-opacity="1" /><path clip-path="url(#clip900)" d="M2154.76 335.679 L2154.76 339.221 L2150.69 339.221 Q2148.4 339.221 2147.49 340.147 Q2146.61 341.073 2146.61 343.48 L2146.61 345.772 L2153.63 345.772 L2153.63 349.082 L2146.61 349.082 L2146.61 371.698 L2142.33 371.698 L2142.33 349.082 L2138.26 349.082 L2138.26 345.772 L2142.33 345.772 L2142.33 343.966 Q2142.33 339.638 2144.34 337.67 Q2146.36 335.679 2150.73 335.679 L2154.76 335.679 Z" fill="#000000" fill-rule="evenodd" fill-opacity="1" /><path clip-path="url(#clip900)" d="M2161.71 338.411 L2161.71 345.772 L2170.48 345.772 L2170.48 349.082 L2161.71 349.082 L2161.71 363.156 Q2161.71 366.327 2162.56 367.23 Q2163.44 368.133 2166.1 368.133 L2170.48 368.133 L2170.48 371.698 L2166.1 371.698 Q2161.17 371.698 2159.3 369.869 Q2157.42 368.017 2157.42 363.156 L2157.42 349.082 L2154.3 349.082 L2154.3 345.772 L2157.42 345.772 L2157.42 338.411 L2161.71 338.411 Z" fill="#000000" fill-rule="evenodd" fill-opacity="1" /><polyline clip-path="url(#clip900)" style="stroke:#0000ff; stroke-linecap:butt; stroke-linejoin:round; stroke-width:4; stroke-opacity:1; fill:none" points="
  1765.33,406.258 1914.7,406.258 
  "/>
<path clip-path="url(#clip900)" d="M1941.68 402.241 Q1943.1 399.88 1946.59 397.797 Q1947.96 396.987 1952.17 396.987 Q1956.89 396.987 1959.83 400.737 Q1962.79 404.487 1962.79 410.598 Q1962.79 416.709 1959.83 420.459 Q1956.89 424.209 1952.17 424.209 Q1949.32 424.209 1947.26 423.098 Q1945.23 421.963 1943.88 419.649 L1943.88 433.399 L1939.6 433.399 L1939.6 410.829 Q1939.6 405.482 1941.68 402.241 M1958.37 410.598 Q1958.37 405.899 1956.43 403.237 Q1954.51 400.552 1951.13 400.552 Q1947.75 400.552 1945.8 403.237 Q1943.88 405.899 1943.88 410.598 Q1943.88 415.297 1945.8 417.982 Q1947.75 420.644 1951.13 420.644 Q1954.51 420.644 1956.43 417.982 Q1958.37 415.297 1958.37 410.598 Z" fill="#000000" fill-rule="evenodd" fill-opacity="1" /><path clip-path="url(#clip900)" d="M1989.55 431.408 L1989.55 434.718 L1964.92 434.718 L1964.92 431.408 L1989.55 431.408 Z" fill="#000000" fill-rule="evenodd" fill-opacity="1" /><path clip-path="url(#clip900)" d="M2015.11 407.889 L2015.11 423.538 L2010.85 423.538 L2010.85 408.028 Q2010.85 404.348 2009.41 402.519 Q2007.98 400.69 2005.11 400.69 Q2001.66 400.69 1999.67 402.89 Q1997.68 405.089 1997.68 408.885 L1997.68 423.538 L1993.4 423.538 L1993.4 387.519 L1997.68 387.519 L1997.68 401.64 Q1999.21 399.302 2001.27 398.144 Q2003.35 396.987 2006.06 396.987 Q2010.53 396.987 2012.82 399.765 Q2015.11 402.519 2015.11 407.889 Z" fill="#000000" fill-rule="evenodd" fill-opacity="1" /><path clip-path="url(#clip900)" d="M2035.39 410.505 Q2030.22 410.505 2028.23 411.686 Q2026.24 412.866 2026.24 415.714 Q2026.24 417.982 2027.72 419.325 Q2029.23 420.644 2031.8 420.644 Q2035.34 420.644 2037.47 418.144 Q2039.62 415.621 2039.62 411.454 L2039.62 410.505 L2035.39 410.505 M2043.88 408.746 L2043.88 423.538 L2039.62 423.538 L2039.62 419.602 Q2038.16 421.963 2035.99 423.098 Q2033.81 424.209 2030.66 424.209 Q2026.68 424.209 2024.32 421.987 Q2021.98 419.741 2021.98 415.991 Q2021.98 411.616 2024.9 409.394 Q2027.84 407.172 2033.65 407.172 L2039.62 407.172 L2039.62 406.755 Q2039.62 403.815 2037.68 402.218 Q2035.76 400.598 2032.26 400.598 Q2030.04 400.598 2027.93 401.13 Q2025.83 401.663 2023.88 402.727 L2023.88 398.792 Q2026.22 397.89 2028.42 397.45 Q2030.62 396.987 2032.7 396.987 Q2038.33 396.987 2041.1 399.903 Q2043.88 402.82 2043.88 408.746 Z" fill="#000000" fill-rule="evenodd" fill-opacity="1" /><path clip-path="url(#clip900)" d="M2067.68 401.593 Q2066.96 401.177 2066.1 400.991 Q2065.27 400.783 2064.25 400.783 Q2060.64 400.783 2058.7 403.144 Q2056.78 405.482 2056.78 409.88 L2056.78 423.538 L2052.49 423.538 L2052.49 397.612 L2056.78 397.612 L2056.78 401.64 Q2058.12 399.278 2060.27 398.144 Q2062.42 396.987 2065.5 396.987 Q2065.94 396.987 2066.47 397.056 Q2067.01 397.103 2067.66 397.218 L2067.68 401.593 Z" fill="#000000" fill-rule="evenodd" fill-opacity="1" /><path clip-path="url(#clip900)" d="M2091.5 402.589 Q2093.09 399.718 2095.32 398.353 Q2097.54 396.987 2100.55 396.987 Q2104.6 396.987 2106.8 399.834 Q2109 402.658 2109 407.889 L2109 423.538 L2104.72 423.538 L2104.72 408.028 Q2104.72 404.302 2103.4 402.496 Q2102.08 400.69 2099.37 400.69 Q2096.06 400.69 2094.14 402.89 Q2092.22 405.089 2092.22 408.885 L2092.22 423.538 L2087.93 423.538 L2087.93 408.028 Q2087.93 404.278 2086.61 402.496 Q2085.29 400.69 2082.54 400.69 Q2079.28 400.69 2077.35 402.913 Q2075.43 405.112 2075.43 408.885 L2075.43 423.538 L2071.15 423.538 L2071.15 397.612 L2075.43 397.612 L2075.43 401.64 Q2076.89 399.255 2078.93 398.121 Q2080.97 396.987 2083.77 396.987 Q2086.59 396.987 2088.56 398.422 Q2090.55 399.857 2091.5 402.589 Z" fill="#000000" fill-rule="evenodd" fill-opacity="1" /><path clip-path="url(#clip900)" d="M2137.19 431.408 L2137.19 434.718 L2112.56 434.718 L2112.56 431.408 L2137.19 431.408 Z" fill="#000000" fill-rule="evenodd" fill-opacity="1" /><path clip-path="url(#clip900)" d="M2158.26 401.547 L2158.26 387.519 L2162.52 387.519 L2162.52 423.538 L2158.26 423.538 L2158.26 419.649 Q2156.91 421.963 2154.85 423.098 Q2152.82 424.209 2149.95 424.209 Q2145.25 424.209 2142.28 420.459 Q2139.34 416.709 2139.34 410.598 Q2139.34 404.487 2142.28 400.737 Q2145.25 396.987 2149.95 396.987 Q2152.82 396.987 2154.85 398.121 Q2156.91 399.232 2158.26 401.547 M2143.74 410.598 Q2143.74 415.297 2145.66 417.982 Q2147.61 420.644 2150.99 420.644 Q2154.37 420.644 2156.31 417.982 Q2158.26 415.297 2158.26 410.598 Q2158.26 405.899 2156.31 403.237 Q2154.37 400.552 2150.99 400.552 Q2147.61 400.552 2145.66 403.237 Q2143.74 405.899 2143.74 410.598 Z" fill="#000000" fill-rule="evenodd" fill-opacity="1" /><path clip-path="url(#clip900)" d="M2184.41 387.519 L2184.41 391.061 L2180.34 391.061 Q2178.05 391.061 2177.15 391.987 Q2176.27 392.913 2176.27 395.32 L2176.27 397.612 L2183.28 397.612 L2183.28 400.922 L2176.27 400.922 L2176.27 423.538 L2171.98 423.538 L2171.98 400.922 L2167.91 400.922 L2167.91 397.612 L2171.98 397.612 L2171.98 395.806 Q2171.98 391.478 2174 389.51 Q2176.01 387.519 2180.39 387.519 L2184.41 387.519 Z" fill="#000000" fill-rule="evenodd" fill-opacity="1" /><path clip-path="url(#clip900)" d="M2191.36 390.251 L2191.36 397.612 L2200.13 397.612 L2200.13 400.922 L2191.36 400.922 L2191.36 414.996 Q2191.36 418.167 2192.21 419.07 Q2193.09 419.973 2195.76 419.973 L2200.13 419.973 L2200.13 423.538 L2195.76 423.538 Q2190.83 423.538 2188.95 421.709 Q2187.08 419.857 2187.08 414.996 L2187.08 400.922 L2183.95 400.922 L2183.95 397.612 L2187.08 397.612 L2187.08 390.251 L2191.36 390.251 Z" fill="#000000" fill-rule="evenodd" fill-opacity="1" /></svg>
