<?xml version="1.0" encoding="utf-8"?>
<svg xmlns="http://www.w3.org/2000/svg" xmlns:xlink="http://www.w3.org/1999/xlink" width="600" height="400" viewBox="0 0 2400 1600">
<defs>
  <clipPath id="clip670">
    <rect x="0" y="0" width="2400" height="1600"/>
  </clipPath>
</defs>
<path clip-path="url(#clip670)" d="
M0 1600 L2400 1600 L2400 0 L0 0  Z
  " fill="#ffffff" fill-rule="evenodd" fill-opacity="1"/>
<defs>
  <clipPath id="clip671">
    <rect x="480" y="0" width="1681" height="1600"/>
  </clipPath>
</defs>
<path clip-path="url(#clip670)" d="
M326.46 419.781 L2352.76 419.781 L2352.76 47.2441 L326.46 47.2441  Z
  " fill="#ffffff" fill-rule="evenodd" fill-opacity="1"/>
<defs>
  <clipPath id="clip672">
    <rect x="326" y="47" width="2027" height="374"/>
  </clipPath>
</defs>
<polyline clip-path="url(#clip672)" style="stroke:#000000; stroke-linecap:butt; stroke-linejoin:round; stroke-width:2; stroke-opacity:0.1; fill:none" points="
  574.968,419.781 574.968,47.2441 
  "/>
<polyline clip-path="url(#clip672)" style="stroke:#000000; stroke-linecap:butt; stroke-linejoin:round; stroke-width:2; stroke-opacity:0.1; fill:none" points="
  957.288,419.781 957.288,47.2441 
  "/>
<polyline clip-path="url(#clip672)" style="stroke:#000000; stroke-linecap:butt; stroke-linejoin:round; stroke-width:2; stroke-opacity:0.1; fill:none" points="
  1339.61,419.781 1339.61,47.2441 
  "/>
<polyline clip-path="url(#clip672)" style="stroke:#000000; stroke-linecap:butt; stroke-linejoin:round; stroke-width:2; stroke-opacity:0.1; fill:none" points="
  1721.93,419.781 1721.93,47.2441 
  "/>
<polyline clip-path="url(#clip672)" style="stroke:#000000; stroke-linecap:butt; stroke-linejoin:round; stroke-width:2; stroke-opacity:0.1; fill:none" points="
  2104.25,419.781 2104.25,47.2441 
  "/>
<polyline clip-path="url(#clip670)" style="stroke:#000000; stroke-linecap:butt; stroke-linejoin:round; stroke-width:4; stroke-opacity:1; fill:none" points="
  326.46,419.781 2352.76,419.781 
  "/>
<polyline clip-path="url(#clip670)" style="stroke:#000000; stroke-linecap:butt; stroke-linejoin:round; stroke-width:4; stroke-opacity:1; fill:none" points="
  574.968,419.781 574.968,400.884 
  "/>
<polyline clip-path="url(#clip670)" style="stroke:#000000; stroke-linecap:butt; stroke-linejoin:round; stroke-width:4; stroke-opacity:1; fill:none" points="
  957.288,419.781 957.288,400.884 
  "/>
<polyline clip-path="url(#clip670)" style="stroke:#000000; stroke-linecap:butt; stroke-linejoin:round; stroke-width:4; stroke-opacity:1; fill:none" points="
  1339.61,419.781 1339.61,400.884 
  "/>
<polyline clip-path="url(#clip670)" style="stroke:#000000; stroke-linecap:butt; stroke-linejoin:round; stroke-width:4; stroke-opacity:1; fill:none" points="
  1721.93,419.781 1721.93,400.884 
  "/>
<polyline clip-path="url(#clip670)" style="stroke:#000000; stroke-linecap:butt; stroke-linejoin:round; stroke-width:4; stroke-opacity:1; fill:none" points="
  2104.25,419.781 2104.25,400.884 
  "/>
<path clip-path="url(#clip670)" d="M543.869 465.353 L573.544 465.353 L573.544 469.288 L543.869 469.288 L543.869 465.353 Z" fill="#000000" fill-rule="evenodd" fill-opacity="1" /><path clip-path="url(#clip670)" d="M596.484 451.695 L584.678 470.144 L596.484 470.144 L596.484 451.695 M595.257 447.621 L601.137 447.621 L601.137 470.144 L606.067 470.144 L606.067 474.033 L601.137 474.033 L601.137 482.181 L596.484 482.181 L596.484 474.033 L580.882 474.033 L580.882 469.519 L595.257 447.621 Z" fill="#000000" fill-rule="evenodd" fill-opacity="1" /><path clip-path="url(#clip670)" d="M927.23 465.353 L956.906 465.353 L956.906 469.288 L927.23 469.288 L927.23 465.353 Z" fill="#000000" fill-rule="evenodd" fill-opacity="1" /><path clip-path="url(#clip670)" d="M971.026 478.246 L987.346 478.246 L987.346 482.181 L965.401 482.181 L965.401 478.246 Q968.063 475.491 972.647 470.862 Q977.253 466.209 978.434 464.866 Q980.679 462.343 981.559 460.607 Q982.461 458.848 982.461 457.158 Q982.461 454.404 980.517 452.667 Q978.596 450.931 975.494 450.931 Q973.295 450.931 970.841 451.695 Q968.411 452.459 965.633 454.01 L965.633 449.288 Q968.457 448.154 970.911 447.575 Q973.364 446.996 975.401 446.996 Q980.772 446.996 983.966 449.681 Q987.16 452.367 987.16 456.857 Q987.16 458.987 986.35 460.908 Q985.563 462.806 983.457 465.399 Q982.878 466.07 979.776 469.288 Q976.674 472.482 971.026 478.246 Z" fill="#000000" fill-rule="evenodd" fill-opacity="1" /><path clip-path="url(#clip670)" d="M1339.61 450.7 Q1336 450.7 1334.17 454.265 Q1332.36 457.806 1332.36 464.936 Q1332.36 472.042 1334.17 475.607 Q1336 479.149 1339.61 479.149 Q1343.24 479.149 1345.05 475.607 Q1346.88 472.042 1346.88 464.936 Q1346.88 457.806 1345.05 454.265 Q1343.24 450.7 1339.61 450.7 M1339.61 446.996 Q1345.42 446.996 1348.47 451.603 Q1351.55 456.186 1351.55 464.936 Q1351.55 473.663 1348.47 478.269 Q1345.42 482.853 1339.61 482.853 Q1333.8 482.853 1330.72 478.269 Q1327.66 473.663 1327.66 464.936 Q1327.66 456.186 1330.72 451.603 Q1333.8 446.996 1339.61 446.996 Z" fill="#000000" fill-rule="evenodd" fill-opacity="1" /><path clip-path="url(#clip670)" d="M1716.58 478.246 L1732.9 478.246 L1732.9 482.181 L1710.96 482.181 L1710.96 478.246 Q1713.62 475.491 1718.2 470.862 Q1722.81 466.209 1723.99 464.866 Q1726.23 462.343 1727.11 460.607 Q1728.02 458.848 1728.02 457.158 Q1728.02 454.404 1726.07 452.667 Q1724.15 450.931 1721.05 450.931 Q1718.85 450.931 1716.4 451.695 Q1713.96 452.459 1711.19 454.01 L1711.19 449.288 Q1714.01 448.154 1716.46 447.575 Q1718.92 446.996 1720.96 446.996 Q1726.33 446.996 1729.52 449.681 Q1732.71 452.367 1732.71 456.857 Q1732.71 458.987 1731.9 460.908 Q1731.12 462.806 1729.01 465.399 Q1728.43 466.07 1725.33 469.288 Q1722.23 472.482 1716.58 478.246 Z" fill="#000000" fill-rule="evenodd" fill-opacity="1" /><path clip-path="url(#clip670)" d="M2107.26 451.695 L2095.45 470.144 L2107.26 470.144 L2107.26 451.695 M2106.03 447.621 L2111.91 447.621 L2111.91 470.144 L2116.84 470.144 L2116.84 474.033 L2111.91 474.033 L2111.91 482.181 L2107.26 482.181 L2107.26 474.033 L2091.66 474.033 L2091.66 469.519 L2106.03 447.621 Z" fill="#000000" fill-rule="evenodd" fill-opacity="1" /><polyline clip-path="url(#clip672)" style="stroke:#000000; stroke-linecap:butt; stroke-linejoin:round; stroke-width:2; stroke-opacity:0.1; fill:none" points="
  326.46,409.238 2352.76,409.238 
  "/>
<polyline clip-path="url(#clip672)" style="stroke:#000000; stroke-linecap:butt; stroke-linejoin:round; stroke-width:2; stroke-opacity:0.1; fill:none" points="
  326.46,321.375 2352.76,321.375 
  "/>
<polyline clip-path="url(#clip672)" style="stroke:#000000; stroke-linecap:butt; stroke-linejoin:round; stroke-width:2; stroke-opacity:0.1; fill:none" points="
  326.46,233.513 2352.76,233.513 
  "/>
<polyline clip-path="url(#clip672)" style="stroke:#000000; stroke-linecap:butt; stroke-linejoin:round; stroke-width:2; stroke-opacity:0.1; fill:none" points="
  326.46,145.65 2352.76,145.65 
  "/>
<polyline clip-path="url(#clip672)" style="stroke:#000000; stroke-linecap:butt; stroke-linejoin:round; stroke-width:2; stroke-opacity:0.1; fill:none" points="
  326.46,57.7876 2352.76,57.7876 
  "/>
<polyline clip-path="url(#clip670)" style="stroke:#000000; stroke-linecap:butt; stroke-linejoin:round; stroke-width:4; stroke-opacity:1; fill:none" points="
  326.46,419.781 326.46,47.2441 
  "/>
<polyline clip-path="url(#clip670)" style="stroke:#000000; stroke-linecap:butt; stroke-linejoin:round; stroke-width:4; stroke-opacity:1; fill:none" points="
  326.46,409.238 345.358,409.238 
  "/>
<polyline clip-path="url(#clip670)" style="stroke:#000000; stroke-linecap:butt; stroke-linejoin:round; stroke-width:4; stroke-opacity:1; fill:none" points="
  326.46,321.375 345.358,321.375 
  "/>
<polyline clip-path="url(#clip670)" style="stroke:#000000; stroke-linecap:butt; stroke-linejoin:round; stroke-width:4; stroke-opacity:1; fill:none" points="
  326.46,233.513 345.358,233.513 
  "/>
<polyline clip-path="url(#clip670)" style="stroke:#000000; stroke-linecap:butt; stroke-linejoin:round; stroke-width:4; stroke-opacity:1; fill:none" points="
  326.46,145.65 345.358,145.65 
  "/>
<polyline clip-path="url(#clip670)" style="stroke:#000000; stroke-linecap:butt; stroke-linejoin:round; stroke-width:4; stroke-opacity:1; fill:none" points="
  326.46,57.7876 345.358,57.7876 
  "/>
<path clip-path="url(#clip670)" d="M203.122 395.036 Q199.511 395.036 197.683 398.601 Q195.877 402.143 195.877 409.272 Q195.877 416.379 197.683 419.944 Q199.511 423.485 203.122 423.485 Q206.757 423.485 208.562 419.944 Q210.391 416.379 210.391 409.272 Q210.391 402.143 208.562 398.601 Q206.757 395.036 203.122 395.036 M203.122 391.333 Q208.933 391.333 211.988 395.939 Q215.067 400.522 215.067 409.272 Q215.067 417.999 211.988 422.606 Q208.933 427.189 203.122 427.189 Q197.312 427.189 194.234 422.606 Q191.178 417.999 191.178 409.272 Q191.178 400.522 194.234 395.939 Q197.312 391.333 203.122 391.333 Z" fill="#000000" fill-rule="evenodd" fill-opacity="1" /><path clip-path="url(#clip670)" d="M223.284 420.638 L228.169 420.638 L228.169 426.518 L223.284 426.518 L223.284 420.638 Z" fill="#000000" fill-rule="evenodd" fill-opacity="1" /><path clip-path="url(#clip670)" d="M248.354 395.036 Q244.743 395.036 242.914 398.601 Q241.108 402.143 241.108 409.272 Q241.108 416.379 242.914 419.944 Q244.743 423.485 248.354 423.485 Q251.988 423.485 253.793 419.944 Q255.622 416.379 255.622 409.272 Q255.622 402.143 253.793 398.601 Q251.988 395.036 248.354 395.036 M248.354 391.333 Q254.164 391.333 257.219 395.939 Q260.298 400.522 260.298 409.272 Q260.298 417.999 257.219 422.606 Q254.164 427.189 248.354 427.189 Q242.543 427.189 239.465 422.606 Q236.409 417.999 236.409 409.272 Q236.409 400.522 239.465 395.939 Q242.543 391.333 248.354 391.333 Z" fill="#000000" fill-rule="evenodd" fill-opacity="1" /><path clip-path="url(#clip670)" d="M278.516 395.036 Q274.904 395.036 273.076 398.601 Q271.27 402.143 271.27 409.272 Q271.27 416.379 273.076 419.944 Q274.904 423.485 278.516 423.485 Q282.15 423.485 283.955 419.944 Q285.784 416.379 285.784 409.272 Q285.784 402.143 283.955 398.601 Q282.15 395.036 278.516 395.036 M278.516 391.333 Q284.326 391.333 287.381 395.939 Q290.46 400.522 290.46 409.272 Q290.46 417.999 287.381 422.606 Q284.326 427.189 278.516 427.189 Q272.705 427.189 269.627 422.606 Q266.571 417.999 266.571 409.272 Q266.571 400.522 269.627 395.939 Q272.705 391.333 278.516 391.333 Z" fill="#000000" fill-rule="evenodd" fill-opacity="1" /><path clip-path="url(#clip670)" d="M204.118 307.174 Q200.507 307.174 198.678 310.739 Q196.872 314.28 196.872 321.41 Q196.872 328.516 198.678 332.081 Q200.507 335.623 204.118 335.623 Q207.752 335.623 209.558 332.081 Q211.386 328.516 211.386 321.41 Q211.386 314.28 209.558 310.739 Q207.752 307.174 204.118 307.174 M204.118 303.47 Q209.928 303.47 212.983 308.077 Q216.062 312.66 216.062 321.41 Q216.062 330.137 212.983 334.743 Q209.928 339.326 204.118 339.326 Q198.308 339.326 195.229 334.743 Q192.173 330.137 192.173 321.41 Q192.173 312.66 195.229 308.077 Q198.308 303.47 204.118 303.47 Z" fill="#000000" fill-rule="evenodd" fill-opacity="1" /><path clip-path="url(#clip670)" d="M224.28 332.776 L229.164 332.776 L229.164 338.655 L224.28 338.655 L224.28 332.776 Z" fill="#000000" fill-rule="evenodd" fill-opacity="1" /><path clip-path="url(#clip670)" d="M243.377 334.72 L259.696 334.72 L259.696 338.655 L237.752 338.655 L237.752 334.72 Q240.414 331.965 244.997 327.336 Q249.604 322.683 250.784 321.34 Q253.03 318.817 253.909 317.081 Q254.812 315.322 254.812 313.632 Q254.812 310.878 252.867 309.141 Q250.946 307.405 247.844 307.405 Q245.645 307.405 243.192 308.169 Q240.761 308.933 237.983 310.484 L237.983 305.762 Q240.807 304.628 243.261 304.049 Q245.715 303.47 247.752 303.47 Q253.122 303.47 256.317 306.155 Q259.511 308.841 259.511 313.331 Q259.511 315.461 258.701 317.382 Q257.914 319.28 255.807 321.873 Q255.229 322.544 252.127 325.762 Q249.025 328.956 243.377 334.72 Z" fill="#000000" fill-rule="evenodd" fill-opacity="1" /><path clip-path="url(#clip670)" d="M269.557 304.095 L287.914 304.095 L287.914 308.03 L273.84 308.03 L273.84 316.503 Q274.858 316.155 275.877 315.993 Q276.895 315.808 277.914 315.808 Q283.701 315.808 287.08 318.979 Q290.46 322.151 290.46 327.567 Q290.46 333.146 286.988 336.248 Q283.515 339.326 277.196 339.326 Q275.02 339.326 272.752 338.956 Q270.506 338.586 268.099 337.845 L268.099 333.146 Q270.182 334.28 272.404 334.836 Q274.627 335.391 277.103 335.391 Q281.108 335.391 283.446 333.285 Q285.784 331.178 285.784 327.567 Q285.784 323.956 283.446 321.85 Q281.108 319.743 277.103 319.743 Q275.228 319.743 273.353 320.16 Q271.502 320.577 269.557 321.456 L269.557 304.095 Z" fill="#000000" fill-rule="evenodd" fill-opacity="1" /><path clip-path="url(#clip670)" d="M203.122 219.311 Q199.511 219.311 197.683 222.876 Q195.877 226.418 195.877 233.547 Q195.877 240.654 197.683 244.219 Q199.511 247.76 203.122 247.76 Q206.757 247.76 208.562 244.219 Q210.391 240.654 210.391 233.547 Q210.391 226.418 208.562 222.876 Q206.757 219.311 203.122 219.311 M203.122 215.608 Q208.933 215.608 211.988 220.214 Q215.067 224.797 215.067 233.547 Q215.067 242.274 211.988 246.881 Q208.933 251.464 203.122 251.464 Q197.312 251.464 194.234 246.881 Q191.178 242.274 191.178 233.547 Q191.178 224.797 194.234 220.214 Q197.312 215.608 203.122 215.608 Z" fill="#000000" fill-rule="evenodd" fill-opacity="1" /><path clip-path="url(#clip670)" d="M223.284 244.913 L228.169 244.913 L228.169 250.793 L223.284 250.793 L223.284 244.913 Z" fill="#000000" fill-rule="evenodd" fill-opacity="1" /><path clip-path="url(#clip670)" d="M238.4 216.233 L256.756 216.233 L256.756 220.168 L242.682 220.168 L242.682 228.64 Q243.701 228.293 244.719 228.131 Q245.738 227.946 246.756 227.946 Q252.543 227.946 255.923 231.117 Q259.303 234.288 259.303 239.705 Q259.303 245.283 255.83 248.385 Q252.358 251.464 246.039 251.464 Q243.863 251.464 241.594 251.094 Q239.349 250.723 236.942 249.982 L236.942 245.283 Q239.025 246.418 241.247 246.973 Q243.469 247.529 245.946 247.529 Q249.951 247.529 252.289 245.422 Q254.627 243.316 254.627 239.705 Q254.627 236.094 252.289 233.987 Q249.951 231.881 245.946 231.881 Q244.071 231.881 242.196 232.297 Q240.344 232.714 238.4 233.594 L238.4 216.233 Z" fill="#000000" fill-rule="evenodd" fill-opacity="1" /><path clip-path="url(#clip670)" d="M278.516 219.311 Q274.904 219.311 273.076 222.876 Q271.27 226.418 271.27 233.547 Q271.27 240.654 273.076 244.219 Q274.904 247.76 278.516 247.76 Q282.15 247.76 283.955 244.219 Q285.784 240.654 285.784 233.547 Q285.784 226.418 283.955 222.876 Q282.15 219.311 278.516 219.311 M278.516 215.608 Q284.326 215.608 287.381 220.214 Q290.46 224.797 290.46 233.547 Q290.46 242.274 287.381 246.881 Q284.326 251.464 278.516 251.464 Q272.705 251.464 269.627 246.881 Q266.571 242.274 266.571 233.547 Q266.571 224.797 269.627 220.214 Q272.705 215.608 278.516 215.608 Z" fill="#000000" fill-rule="evenodd" fill-opacity="1" /><path clip-path="url(#clip670)" d="M204.118 131.449 Q200.507 131.449 198.678 135.014 Q196.872 138.555 196.872 145.685 Q196.872 152.791 198.678 156.356 Q200.507 159.898 204.118 159.898 Q207.752 159.898 209.558 156.356 Q211.386 152.791 211.386 145.685 Q211.386 138.555 209.558 135.014 Q207.752 131.449 204.118 131.449 M204.118 127.745 Q209.928 127.745 212.983 132.352 Q216.062 136.935 216.062 145.685 Q216.062 154.412 212.983 159.018 Q209.928 163.601 204.118 163.601 Q198.308 163.601 195.229 159.018 Q192.173 154.412 192.173 145.685 Q192.173 136.935 195.229 132.352 Q198.308 127.745 204.118 127.745 Z" fill="#000000" fill-rule="evenodd" fill-opacity="1" /><path clip-path="url(#clip670)" d="M224.28 157.051 L229.164 157.051 L229.164 162.93 L224.28 162.93 L224.28 157.051 Z" fill="#000000" fill-rule="evenodd" fill-opacity="1" /><path clip-path="url(#clip670)" d="M238.168 128.37 L260.391 128.37 L260.391 130.361 L247.844 162.93 L242.96 162.93 L254.766 132.305 L238.168 132.305 L238.168 128.37 Z" fill="#000000" fill-rule="evenodd" fill-opacity="1" /><path clip-path="url(#clip670)" d="M269.557 128.37 L287.914 128.37 L287.914 132.305 L273.84 132.305 L273.84 140.777 Q274.858 140.43 275.877 140.268 Q276.895 140.083 277.914 140.083 Q283.701 140.083 287.08 143.254 Q290.46 146.426 290.46 151.842 Q290.46 157.421 286.988 160.523 Q283.515 163.601 277.196 163.601 Q275.02 163.601 272.752 163.231 Q270.506 162.861 268.099 162.12 L268.099 157.421 Q270.182 158.555 272.404 159.111 Q274.627 159.666 277.103 159.666 Q281.108 159.666 283.446 157.56 Q285.784 155.453 285.784 151.842 Q285.784 148.231 283.446 146.125 Q281.108 144.018 277.103 144.018 Q275.228 144.018 273.353 144.435 Q271.502 144.852 269.557 145.731 L269.557 128.37 Z" fill="#000000" fill-rule="evenodd" fill-opacity="1" /><path clip-path="url(#clip670)" d="M193.933 71.1324 L201.571 71.1324 L201.571 44.7668 L193.261 46.4335 L193.261 42.1743 L201.525 40.5076 L206.201 40.5076 L206.201 71.1324 L213.84 71.1324 L213.84 75.0676 L193.933 75.0676 L193.933 71.1324 Z" fill="#000000" fill-rule="evenodd" fill-opacity="1" /><path clip-path="url(#clip670)" d="M223.284 69.188 L228.169 69.188 L228.169 75.0676 L223.284 75.0676 L223.284 69.188 Z" fill="#000000" fill-rule="evenodd" fill-opacity="1" /><path clip-path="url(#clip670)" d="M248.354 43.5863 Q244.743 43.5863 242.914 47.1511 Q241.108 50.6927 241.108 57.8223 Q241.108 64.9288 242.914 68.4936 Q244.743 72.0352 248.354 72.0352 Q251.988 72.0352 253.793 68.4936 Q255.622 64.9288 255.622 57.8223 Q255.622 50.6927 253.793 47.1511 Q251.988 43.5863 248.354 43.5863 M248.354 39.8826 Q254.164 39.8826 257.219 44.4891 Q260.298 49.0724 260.298 57.8223 Q260.298 66.5491 257.219 71.1556 Q254.164 75.7389 248.354 75.7389 Q242.543 75.7389 239.465 71.1556 Q236.409 66.5491 236.409 57.8223 Q236.409 49.0724 239.465 44.4891 Q242.543 39.8826 248.354 39.8826 Z" fill="#000000" fill-rule="evenodd" fill-opacity="1" /><path clip-path="url(#clip670)" d="M278.516 43.5863 Q274.904 43.5863 273.076 47.1511 Q271.27 50.6927 271.27 57.8223 Q271.27 64.9288 273.076 68.4936 Q274.904 72.0352 278.516 72.0352 Q282.15 72.0352 283.955 68.4936 Q285.784 64.9288 285.784 57.8223 Q285.784 50.6927 283.955 47.1511 Q282.15 43.5863 278.516 43.5863 M278.516 39.8826 Q284.326 39.8826 287.381 44.4891 Q290.46 49.0724 290.46 57.8223 Q290.46 66.5491 287.381 71.1556 Q284.326 75.7389 278.516 75.7389 Q272.705 75.7389 269.627 71.1556 Q266.571 66.5491 266.571 57.8223 Q266.571 49.0724 269.627 44.4891 Q272.705 39.8826 278.516 39.8826 Z" fill="#000000" fill-rule="evenodd" fill-opacity="1" /><polyline clip-path="url(#clip672)" style="stroke:#009af9; stroke-linecap:butt; stroke-linejoin:round; stroke-width:4; stroke-opacity:1; fill:none" points="
  383.808,409.238 393.414,409.238 403.02,409.238 412.626,409.238 422.232,409.238 431.838,409.238 441.444,409.238 451.05,409.238 460.656,409.238 470.262,409.238 
  479.868,409.238 489.474,409.238 499.08,409.238 508.686,409.238 518.292,409.238 527.898,409.238 537.504,409.238 547.11,409.238 556.716,409.238 566.322,409.238 
  575.928,409.238 585.535,409.238 595.141,409.238 604.747,409.238 614.353,409.238 623.959,409.238 633.565,409.238 643.171,409.238 652.777,409.238 662.383,409.238 
  671.989,409.238 681.595,409.238 691.201,409.238 700.807,409.238 710.413,409.238 720.019,409.238 729.625,409.238 739.231,409.238 748.837,409.238 758.443,409.238 
  768.049,409.238 777.655,409.238 787.261,409.238 796.867,409.238 806.473,409.238 816.079,409.238 825.685,409.238 835.291,409.238 844.897,409.238 854.503,409.238 
  864.109,409.238 873.715,409.238 883.321,409.238 892.927,409.238 902.534,409.238 912.14,409.238 921.746,409.238 931.352,409.238 940.958,409.238 950.564,409.238 
  960.17,409.238 969.776,409.238 979.382,409.238 988.988,409.238 998.594,409.238 1008.2,409.238 1017.81,409.238 1027.41,409.238 1037.02,409.238 1046.62,409.238 
  1056.23,409.238 1065.84,409.238 1075.44,409.238 1085.05,409.238 1094.65,409.238 1104.26,409.238 1113.87,409.238 1123.47,409.238 1133.08,409.238 1142.68,409.238 
  1152.29,409.238 1161.9,409.238 1171.5,409.238 1181.11,409.238 1190.71,409.238 1200.32,409.238 1209.93,409.238 1219.53,409.238 1229.14,409.238 1238.74,409.238 
  1248.35,409.238 1257.96,409.238 1267.56,409.238 1277.17,409.238 1286.77,409.238 1296.38,409.238 1305.99,409.238 1315.59,409.238 1325.2,409.238 1334.8,409.238 
  1344.41,409.238 1354.02,409.238 1363.62,409.238 1373.23,409.238 1382.84,409.238 1392.44,409.238 1402.05,409.238 1411.65,409.238 1421.26,409.238 1430.87,409.238 
  1440.47,409.238 1450.08,409.238 1459.68,409.238 1469.29,409.238 1478.9,409.238 1488.5,409.238 1498.11,409.238 1507.71,409.238 1517.32,409.238 1526.93,409.238 
  1536.53,409.238 1546.14,409.238 1555.74,409.238 1565.35,409.238 1574.96,409.238 1584.56,409.238 1594.17,409.238 1603.77,409.238 1613.38,409.238 1622.99,409.238 
  1632.59,409.238 1642.2,409.238 1651.8,409.238 1661.41,409.238 1671.02,409.238 1680.62,409.238 1690.23,409.238 1699.83,409.238 1709.44,409.238 1719.05,409.238 
  1728.65,409.238 1738.26,409.238 1747.86,409.238 1757.47,409.238 1767.08,409.238 1776.68,409.238 1786.29,409.238 1795.89,409.238 1805.5,409.238 1815.11,409.238 
  1824.71,409.238 1834.32,409.238 1843.92,409.238 1853.53,409.238 1863.14,409.238 1872.74,409.238 1882.35,409.238 1891.95,409.238 1901.56,409.238 1911.17,409.238 
  1920.77,409.238 1930.38,409.238 1939.98,409.238 1949.59,409.238 1959.2,409.238 1968.8,409.238 1978.41,409.238 1988.01,409.238 1997.62,409.238 2007.23,409.238 
  2016.83,409.238 2026.44,409.238 2036.05,409.238 2045.65,409.238 2055.26,409.238 2064.86,409.238 2074.47,409.238 2084.08,409.238 2093.68,409.238 2103.29,409.238 
  2112.89,409.238 2122.5,409.238 2132.11,409.238 2141.71,409.238 2151.32,409.238 2160.92,409.238 2170.53,409.238 2180.14,409.238 2189.74,409.238 2199.35,409.238 
  2208.95,409.238 2218.56,409.238 2228.17,409.238 2237.77,409.238 2247.38,409.238 2256.98,409.238 2266.59,409.238 2276.2,409.238 2285.8,409.238 2295.41,409.238 
  
  "/>
<path clip-path="url(#clip670)" d="
M1853.63 163.342 L2285.21 163.342 L2285.21 59.662 L1853.63 59.662  Z
  " fill="#ffffff" fill-rule="evenodd" fill-opacity="1"/>
<polyline clip-path="url(#clip670)" style="stroke:#000000; stroke-linecap:butt; stroke-linejoin:round; stroke-width:4; stroke-opacity:1; fill:none" points="
  1853.63,163.342 2285.21,163.342 2285.21,59.662 1853.63,59.662 1853.63,163.342 
  "/>
<polyline clip-path="url(#clip670)" style="stroke:#009af9; stroke-linecap:butt; stroke-linejoin:round; stroke-width:4; stroke-opacity:1; fill:none" points="
  1876.15,111.502 2011.24,111.502 
  "/>
<path clip-path="url(#clip670)" d="M2046.94 128.782 L2033.75 94.222 L2038.63 94.222 L2049.58 123.319 L2060.56 94.222 L2065.42 94.222 L2052.25 128.782 L2046.94 128.782 Z" fill="#000000" fill-rule="evenodd" fill-opacity="1" /><path clip-path="url(#clip670)" d="M2089.98 136.652 L2089.98 139.962 L2065.35 139.962 L2065.35 136.652 L2089.98 136.652 Z" fill="#000000" fill-rule="evenodd" fill-opacity="1" /><path clip-path="url(#clip670)" d="M2116.16 114.754 L2116.16 116.838 L2096.57 116.838 Q2096.85 121.236 2099.21 123.551 Q2101.6 125.842 2105.83 125.842 Q2108.29 125.842 2110.58 125.24 Q2112.89 124.639 2115.16 123.435 L2115.16 127.463 Q2112.87 128.435 2110.46 128.944 Q2108.05 129.453 2105.58 129.453 Q2099.37 129.453 2095.74 125.842 Q2092.13 122.231 2092.13 116.074 Q2092.13 109.708 2095.56 105.981 Q2099 102.231 2104.84 102.231 Q2110.07 102.231 2113.1 105.611 Q2116.16 108.967 2116.16 114.754 M2111.9 113.504 Q2111.85 110.009 2109.93 107.926 Q2108.03 105.842 2104.88 105.842 Q2101.32 105.842 2099.17 107.856 Q2097.04 109.87 2096.71 113.527 L2111.9 113.504 Z" fill="#000000" fill-rule="evenodd" fill-opacity="1" /><path clip-path="url(#clip670)" d="M2143.33 107.833 Q2144.93 104.963 2147.15 103.597 Q2149.37 102.231 2152.38 102.231 Q2156.43 102.231 2158.63 105.078 Q2160.83 107.902 2160.83 113.134 L2160.83 128.782 L2156.55 128.782 L2156.55 113.273 Q2156.55 109.546 2155.23 107.74 Q2153.91 105.935 2151.2 105.935 Q2147.89 105.935 2145.97 108.134 Q2144.05 110.333 2144.05 114.129 L2144.05 128.782 L2139.77 128.782 L2139.77 113.273 Q2139.77 109.523 2138.45 107.74 Q2137.13 105.935 2134.37 105.935 Q2131.11 105.935 2129.19 108.157 Q2127.27 110.356 2127.27 114.129 L2127.27 128.782 L2122.99 128.782 L2122.99 102.856 L2127.27 102.856 L2127.27 106.884 Q2128.73 104.5 2130.76 103.365 Q2132.8 102.231 2135.6 102.231 Q2138.43 102.231 2140.39 103.666 Q2142.38 105.102 2143.33 107.833 Z" fill="#000000" fill-rule="evenodd" fill-opacity="1" /><path clip-path="url(#clip670)" d="M2173.45 124.893 L2173.45 138.643 L2169.17 138.643 L2169.17 102.856 L2173.45 102.856 L2173.45 106.791 Q2174.79 104.477 2176.83 103.365 Q2178.89 102.231 2181.74 102.231 Q2186.46 102.231 2189.4 105.981 Q2192.36 109.731 2192.36 115.842 Q2192.36 121.953 2189.4 125.703 Q2186.46 129.453 2181.74 129.453 Q2178.89 129.453 2176.83 128.342 Q2174.79 127.208 2173.45 124.893 M2187.94 115.842 Q2187.94 111.143 2185.99 108.481 Q2184.07 105.796 2180.69 105.796 Q2177.31 105.796 2175.37 108.481 Q2173.45 111.143 2173.45 115.842 Q2173.45 120.541 2175.37 123.226 Q2177.31 125.888 2180.69 125.888 Q2184.07 125.888 2185.99 123.226 Q2187.94 120.541 2187.94 115.842 Z" fill="#000000" fill-rule="evenodd" fill-opacity="1" /><path clip-path="url(#clip670)" d="M2203.63 95.4951 L2203.63 102.856 L2212.41 102.856 L2212.41 106.166 L2203.63 106.166 L2203.63 120.24 Q2203.63 123.412 2204.49 124.314 Q2205.37 125.217 2208.03 125.217 L2212.41 125.217 L2212.41 128.782 L2208.03 128.782 Q2203.1 128.782 2201.23 126.953 Q2199.35 125.101 2199.35 120.24 L2199.35 106.166 L2196.23 106.166 L2196.23 102.856 L2199.35 102.856 L2199.35 95.4951 L2203.63 95.4951 Z" fill="#000000" fill-rule="evenodd" fill-opacity="1" /><path clip-path="url(#clip670)" d="M2228.8 131.189 Q2226.99 135.819 2225.28 137.231 Q2223.56 138.643 2220.69 138.643 L2217.29 138.643 L2217.29 135.078 L2219.79 135.078 Q2221.55 135.078 2222.52 134.245 Q2223.49 133.412 2224.67 130.31 L2225.44 128.365 L2214.95 102.856 L2219.47 102.856 L2227.57 123.134 L2235.67 102.856 L2240.18 102.856 L2228.8 131.189 Z" fill="#000000" fill-rule="evenodd" fill-opacity="1" /><path clip-path="url(#clip670)" d="
M326.46 953.115 L2352.76 953.115 L2352.76 580.577 L326.46 580.577  Z
  " fill="#ffffff" fill-rule="evenodd" fill-opacity="1"/>
<defs>
  <clipPath id="clip673">
    <rect x="326" y="580" width="2027" height="374"/>
  </clipPath>
</defs>
<polyline clip-path="url(#clip673)" style="stroke:#000000; stroke-linecap:butt; stroke-linejoin:round; stroke-width:2; stroke-opacity:0.1; fill:none" points="
  574.968,953.115 574.968,580.577 
  "/>
<polyline clip-path="url(#clip673)" style="stroke:#000000; stroke-linecap:butt; stroke-linejoin:round; stroke-width:2; stroke-opacity:0.1; fill:none" points="
  957.288,953.115 957.288,580.577 
  "/>
<polyline clip-path="url(#clip673)" style="stroke:#000000; stroke-linecap:butt; stroke-linejoin:round; stroke-width:2; stroke-opacity:0.1; fill:none" points="
  1339.61,953.115 1339.61,580.577 
  "/>
<polyline clip-path="url(#clip673)" style="stroke:#000000; stroke-linecap:butt; stroke-linejoin:round; stroke-width:2; stroke-opacity:0.1; fill:none" points="
  1721.93,953.115 1721.93,580.577 
  "/>
<polyline clip-path="url(#clip673)" style="stroke:#000000; stroke-linecap:butt; stroke-linejoin:round; stroke-width:2; stroke-opacity:0.1; fill:none" points="
  2104.25,953.115 2104.25,580.577 
  "/>
<polyline clip-path="url(#clip670)" style="stroke:#000000; stroke-linecap:butt; stroke-linejoin:round; stroke-width:4; stroke-opacity:1; fill:none" points="
  326.46,953.115 2352.76,953.115 
  "/>
<polyline clip-path="url(#clip670)" style="stroke:#000000; stroke-linecap:butt; stroke-linejoin:round; stroke-width:4; stroke-opacity:1; fill:none" points="
  574.968,953.115 574.968,934.217 
  "/>
<polyline clip-path="url(#clip670)" style="stroke:#000000; stroke-linecap:butt; stroke-linejoin:round; stroke-width:4; stroke-opacity:1; fill:none" points="
  957.288,953.115 957.288,934.217 
  "/>
<polyline clip-path="url(#clip670)" style="stroke:#000000; stroke-linecap:butt; stroke-linejoin:round; stroke-width:4; stroke-opacity:1; fill:none" points="
  1339.61,953.115 1339.61,934.217 
  "/>
<polyline clip-path="url(#clip670)" style="stroke:#000000; stroke-linecap:butt; stroke-linejoin:round; stroke-width:4; stroke-opacity:1; fill:none" points="
  1721.93,953.115 1721.93,934.217 
  "/>
<polyline clip-path="url(#clip670)" style="stroke:#000000; stroke-linecap:butt; stroke-linejoin:round; stroke-width:4; stroke-opacity:1; fill:none" points="
  2104.25,953.115 2104.25,934.217 
  "/>
<path clip-path="url(#clip670)" d="M543.869 998.686 L573.544 998.686 L573.544 1002.62 L543.869 1002.62 L543.869 998.686 Z" fill="#000000" fill-rule="evenodd" fill-opacity="1" /><path clip-path="url(#clip670)" d="M596.484 985.029 L584.678 1003.48 L596.484 1003.48 L596.484 985.029 M595.257 980.955 L601.137 980.955 L601.137 1003.48 L606.067 1003.48 L606.067 1007.37 L601.137 1007.37 L601.137 1015.51 L596.484 1015.51 L596.484 1007.37 L580.882 1007.37 L580.882 1002.85 L595.257 980.955 Z" fill="#000000" fill-rule="evenodd" fill-opacity="1" /><path clip-path="url(#clip670)" d="M927.23 998.686 L956.906 998.686 L956.906 1002.62 L927.23 1002.62 L927.23 998.686 Z" fill="#000000" fill-rule="evenodd" fill-opacity="1" /><path clip-path="url(#clip670)" d="M971.026 1011.58 L987.346 1011.58 L987.346 1015.51 L965.401 1015.51 L965.401 1011.58 Q968.063 1008.82 972.647 1004.2 Q977.253 999.542 978.434 998.2 Q980.679 995.677 981.559 993.941 Q982.461 992.181 982.461 990.492 Q982.461 987.737 980.517 986.001 Q978.596 984.265 975.494 984.265 Q973.295 984.265 970.841 985.029 Q968.411 985.792 965.633 987.343 L965.633 982.621 Q968.457 981.487 970.911 980.908 Q973.364 980.33 975.401 980.33 Q980.772 980.33 983.966 983.015 Q987.16 985.7 987.16 990.191 Q987.16 992.32 986.35 994.242 Q985.563 996.14 983.457 998.732 Q982.878 999.404 979.776 1002.62 Q976.674 1005.82 971.026 1011.58 Z" fill="#000000" fill-rule="evenodd" fill-opacity="1" /><path clip-path="url(#clip670)" d="M1339.61 984.033 Q1336 984.033 1334.17 987.598 Q1332.36 991.14 1332.36 998.269 Q1332.36 1005.38 1334.17 1008.94 Q1336 1012.48 1339.61 1012.48 Q1343.24 1012.48 1345.05 1008.94 Q1346.88 1005.38 1346.88 998.269 Q1346.88 991.14 1345.05 987.598 Q1343.24 984.033 1339.61 984.033 M1339.61 980.33 Q1345.42 980.33 1348.47 984.936 Q1351.55 989.519 1351.55 998.269 Q1351.55 1007 1348.47 1011.6 Q1345.42 1016.19 1339.61 1016.19 Q1333.8 1016.19 1330.72 1011.6 Q1327.66 1007 1327.66 998.269 Q1327.66 989.519 1330.72 984.936 Q1333.8 980.33 1339.61 980.33 Z" fill="#000000" fill-rule="evenodd" fill-opacity="1" /><path clip-path="url(#clip670)" d="M1716.58 1011.58 L1732.9 1011.58 L1732.9 1015.51 L1710.96 1015.51 L1710.96 1011.58 Q1713.62 1008.82 1718.2 1004.2 Q1722.81 999.542 1723.99 998.2 Q1726.23 995.677 1727.11 993.941 Q1728.02 992.181 1728.02 990.492 Q1728.02 987.737 1726.07 986.001 Q1724.15 984.265 1721.05 984.265 Q1718.85 984.265 1716.4 985.029 Q1713.96 985.792 1711.19 987.343 L1711.19 982.621 Q1714.01 981.487 1716.46 980.908 Q1718.92 980.33 1720.96 980.33 Q1726.33 980.33 1729.52 983.015 Q1732.71 985.7 1732.71 990.191 Q1732.71 992.32 1731.9 994.242 Q1731.12 996.14 1729.01 998.732 Q1728.43 999.404 1725.33 1002.62 Q1722.23 1005.82 1716.58 1011.58 Z" fill="#000000" fill-rule="evenodd" fill-opacity="1" /><path clip-path="url(#clip670)" d="M2107.26 985.029 L2095.45 1003.48 L2107.26 1003.48 L2107.26 985.029 M2106.03 980.955 L2111.91 980.955 L2111.91 1003.48 L2116.84 1003.48 L2116.84 1007.37 L2111.91 1007.37 L2111.91 1015.51 L2107.26 1015.51 L2107.26 1007.37 L2091.66 1007.37 L2091.66 1002.85 L2106.03 980.955 Z" fill="#000000" fill-rule="evenodd" fill-opacity="1" /><polyline clip-path="url(#clip673)" style="stroke:#000000; stroke-linecap:butt; stroke-linejoin:round; stroke-width:2; stroke-opacity:0.1; fill:none" points="
  326.46,942.571 2352.76,942.571 
  "/>
<polyline clip-path="url(#clip673)" style="stroke:#000000; stroke-linecap:butt; stroke-linejoin:round; stroke-width:2; stroke-opacity:0.1; fill:none" points="
  326.46,854.709 2352.76,854.709 
  "/>
<polyline clip-path="url(#clip673)" style="stroke:#000000; stroke-linecap:butt; stroke-linejoin:round; stroke-width:2; stroke-opacity:0.1; fill:none" points="
  326.46,766.846 2352.76,766.846 
  "/>
<polyline clip-path="url(#clip673)" style="stroke:#000000; stroke-linecap:butt; stroke-linejoin:round; stroke-width:2; stroke-opacity:0.1; fill:none" points="
  326.46,678.983 2352.76,678.983 
  "/>
<polyline clip-path="url(#clip673)" style="stroke:#000000; stroke-linecap:butt; stroke-linejoin:round; stroke-width:2; stroke-opacity:0.1; fill:none" points="
  326.46,591.121 2352.76,591.121 
  "/>
<polyline clip-path="url(#clip670)" style="stroke:#000000; stroke-linecap:butt; stroke-linejoin:round; stroke-width:4; stroke-opacity:1; fill:none" points="
  326.46,953.115 326.46,580.577 
  "/>
<polyline clip-path="url(#clip670)" style="stroke:#000000; stroke-linecap:butt; stroke-linejoin:round; stroke-width:4; stroke-opacity:1; fill:none" points="
  326.46,942.571 345.358,942.571 
  "/>
<polyline clip-path="url(#clip670)" style="stroke:#000000; stroke-linecap:butt; stroke-linejoin:round; stroke-width:4; stroke-opacity:1; fill:none" points="
  326.46,854.709 345.358,854.709 
  "/>
<polyline clip-path="url(#clip670)" style="stroke:#000000; stroke-linecap:butt; stroke-linejoin:round; stroke-width:4; stroke-opacity:1; fill:none" points="
  326.46,766.846 345.358,766.846 
  "/>
<polyline clip-path="url(#clip670)" style="stroke:#000000; stroke-linecap:butt; stroke-linejoin:round; stroke-width:4; stroke-opacity:1; fill:none" points="
  326.46,678.983 345.358,678.983 
  "/>
<polyline clip-path="url(#clip670)" style="stroke:#000000; stroke-linecap:butt; stroke-linejoin:round; stroke-width:4; stroke-opacity:1; fill:none" points="
  326.46,591.121 345.358,591.121 
  "/>
<path clip-path="url(#clip670)" d="M278.516 928.37 Q274.904 928.37 273.076 931.935 Q271.27 935.476 271.27 942.606 Q271.27 949.712 273.076 953.277 Q274.904 956.819 278.516 956.819 Q282.15 956.819 283.955 953.277 Q285.784 949.712 285.784 942.606 Q285.784 935.476 283.955 931.935 Q282.15 928.37 278.516 928.37 M278.516 924.666 Q284.326 924.666 287.381 929.272 Q290.46 933.856 290.46 942.606 Q290.46 951.333 287.381 955.939 Q284.326 960.522 278.516 960.522 Q272.705 960.522 269.627 955.939 Q266.571 951.333 266.571 942.606 Q266.571 933.856 269.627 929.272 Q272.705 924.666 278.516 924.666 Z" fill="#000000" fill-rule="evenodd" fill-opacity="1" /><path clip-path="url(#clip670)" d="M77.7324 874.501 L94.0518 874.501 L94.0518 878.436 L72.1075 878.436 L72.1075 874.501 Q74.7695 871.746 79.3528 867.117 Q83.9593 862.464 85.1398 861.121 Q87.3852 858.598 88.2648 856.862 Q89.1676 855.103 89.1676 853.413 Q89.1676 850.658 87.2231 848.922 Q85.3018 847.186 82.2 847.186 Q80.0009 847.186 77.5472 847.95 Q75.1167 848.714 72.3389 850.265 L72.3389 845.543 Q75.163 844.409 77.6167 843.83 Q80.0704 843.251 82.1074 843.251 Q87.4778 843.251 90.6722 845.936 Q93.8666 848.621 93.8666 853.112 Q93.8666 855.242 93.0564 857.163 Q92.2694 859.061 90.1629 861.654 Q89.5842 862.325 86.4824 865.543 Q83.3806 868.737 77.7324 874.501 Z" fill="#000000" fill-rule="evenodd" fill-opacity="1" /><path clip-path="url(#clip670)" d="M103.867 872.557 L108.751 872.557 L108.751 878.436 L103.867 878.436 L103.867 872.557 Z" fill="#000000" fill-rule="evenodd" fill-opacity="1" /><path clip-path="url(#clip670)" d="M118.982 843.876 L137.339 843.876 L137.339 847.811 L123.265 847.811 L123.265 856.283 Q124.283 855.936 125.302 855.774 Q126.32 855.589 127.339 855.589 Q133.126 855.589 136.505 858.76 Q139.885 861.932 139.885 867.348 Q139.885 872.927 136.413 876.029 Q132.94 879.107 126.621 879.107 Q124.445 879.107 122.177 878.737 Q119.931 878.367 117.524 877.626 L117.524 872.927 Q119.607 874.061 121.829 874.617 Q124.052 875.172 126.528 875.172 Q130.533 875.172 132.871 873.066 Q135.209 870.959 135.209 867.348 Q135.209 863.737 132.871 861.631 Q130.533 859.524 126.528 859.524 Q124.653 859.524 122.778 859.941 Q120.927 860.358 118.982 861.237 L118.982 843.876 Z" fill="#000000" fill-rule="evenodd" fill-opacity="1" /><path clip-path="url(#clip670)" d="M159.098 846.955 Q155.487 846.955 153.658 850.52 Q151.852 854.061 151.852 861.191 Q151.852 868.297 153.658 871.862 Q155.487 875.404 159.098 875.404 Q162.732 875.404 164.538 871.862 Q166.366 868.297 166.366 861.191 Q166.366 854.061 164.538 850.52 Q162.732 846.955 159.098 846.955 M159.098 843.251 Q164.908 843.251 167.963 847.858 Q171.042 852.441 171.042 861.191 Q171.042 869.918 167.963 874.524 Q164.908 879.107 159.098 879.107 Q153.288 879.107 150.209 874.524 Q147.153 869.918 147.153 861.191 Q147.153 852.441 150.209 847.858 Q153.288 843.251 159.098 843.251 Z" fill="#000000" fill-rule="evenodd" fill-opacity="1" /><path clip-path="url(#clip670)" d="M207.431 852.973 L196.852 863.598 L207.431 874.177 L204.676 876.978 L194.051 866.353 L183.426 876.978 L180.695 874.177 L191.25 863.598 L180.695 852.973 L183.426 850.172 L194.051 860.797 L204.676 850.172 L207.431 852.973 Z" fill="#000000" fill-rule="evenodd" fill-opacity="1" /><path clip-path="url(#clip670)" d="M219.792 874.501 L227.431 874.501 L227.431 848.135 L219.121 849.802 L219.121 845.543 L227.384 843.876 L232.06 843.876 L232.06 874.501 L239.699 874.501 L239.699 878.436 L219.792 878.436 L219.792 874.501 Z" fill="#000000" fill-rule="evenodd" fill-opacity="1" /><path clip-path="url(#clip670)" d="M259.143 846.955 Q255.532 846.955 253.704 850.52 Q251.898 854.061 251.898 861.191 Q251.898 868.297 253.704 871.862 Q255.532 875.404 259.143 875.404 Q262.778 875.404 264.583 871.862 Q266.412 868.297 266.412 861.191 Q266.412 854.061 264.583 850.52 Q262.778 846.955 259.143 846.955 M259.143 843.251 Q264.954 843.251 268.009 847.858 Q271.088 852.441 271.088 861.191 Q271.088 869.918 268.009 874.524 Q264.954 879.107 259.143 879.107 Q253.333 879.107 250.255 874.524 Q247.199 869.918 247.199 861.191 Q247.199 852.441 250.255 847.858 Q253.333 843.251 259.143 843.251 Z" fill="#000000" fill-rule="evenodd" fill-opacity="1" /><path clip-path="url(#clip670)" d="M272.893 850.443 L272.893 846.982 Q274.323 847.659 275.79 848.016 Q277.257 848.374 278.667 848.374 Q282.429 848.374 284.404 845.854 Q286.397 843.315 286.68 838.161 Q285.589 839.779 283.915 840.644 Q282.241 841.509 280.21 841.509 Q275.997 841.509 273.533 838.97 Q271.088 836.412 271.088 831.992 Q271.088 827.666 273.646 825.052 Q276.204 822.438 280.454 822.438 Q285.325 822.438 287.883 826.181 Q290.46 829.905 290.46 837.014 Q290.46 843.653 287.3 847.622 Q284.159 851.571 278.837 851.571 Q277.407 851.571 275.94 851.289 Q274.473 851.007 272.893 850.443 M280.454 838.537 Q283.012 838.537 284.498 836.788 Q286.002 835.039 286.002 831.992 Q286.002 828.964 284.498 827.215 Q283.012 825.447 280.454 825.447 Q277.896 825.447 276.392 827.215 Q274.906 828.964 274.906 831.992 Q274.906 835.039 276.392 836.788 Q277.896 838.537 280.454 838.537 Z" fill="#000000" fill-rule="evenodd" fill-opacity="1" /><path clip-path="url(#clip670)" d="M73.751 756.014 L92.1074 756.014 L92.1074 759.949 L78.0334 759.949 L78.0334 768.421 Q79.0519 768.074 80.0704 767.912 Q81.0889 767.726 82.1074 767.726 Q87.8944 767.726 91.274 770.898 Q94.6536 774.069 94.6536 779.486 Q94.6536 785.064 91.1814 788.166 Q87.7092 791.245 81.3898 791.245 Q79.2139 791.245 76.9454 790.875 Q74.7 790.504 72.2926 789.763 L72.2926 785.064 Q74.376 786.199 76.5982 786.754 Q78.8204 787.31 81.2972 787.31 Q85.3018 787.31 87.6398 785.203 Q89.9777 783.097 89.9777 779.486 Q89.9777 775.875 87.6398 773.768 Q85.3018 771.662 81.2972 771.662 Q79.4222 771.662 77.5472 772.078 Q75.6954 772.495 73.751 773.375 L73.751 756.014 Z" fill="#000000" fill-rule="evenodd" fill-opacity="1" /><path clip-path="url(#clip670)" d="M103.867 784.694 L108.751 784.694 L108.751 790.574 L103.867 790.574 L103.867 784.694 Z" fill="#000000" fill-rule="evenodd" fill-opacity="1" /><path clip-path="url(#clip670)" d="M128.936 759.092 Q125.325 759.092 123.496 762.657 Q121.691 766.199 121.691 773.328 Q121.691 780.435 123.496 784 Q125.325 787.541 128.936 787.541 Q132.57 787.541 134.376 784 Q136.204 780.435 136.204 773.328 Q136.204 766.199 134.376 762.657 Q132.57 759.092 128.936 759.092 M128.936 755.389 Q134.746 755.389 137.802 759.995 Q140.88 764.578 140.88 773.328 Q140.88 782.055 137.802 786.662 Q134.746 791.245 128.936 791.245 Q123.126 791.245 120.047 786.662 Q116.991 782.055 116.991 773.328 Q116.991 764.578 120.047 759.995 Q123.126 755.389 128.936 755.389 Z" fill="#000000" fill-rule="evenodd" fill-opacity="1" /><path clip-path="url(#clip670)" d="M159.098 759.092 Q155.487 759.092 153.658 762.657 Q151.852 766.199 151.852 773.328 Q151.852 780.435 153.658 784 Q155.487 787.541 159.098 787.541 Q162.732 787.541 164.538 784 Q166.366 780.435 166.366 773.328 Q166.366 766.199 164.538 762.657 Q162.732 759.092 159.098 759.092 M159.098 755.389 Q164.908 755.389 167.963 759.995 Q171.042 764.578 171.042 773.328 Q171.042 782.055 167.963 786.662 Q164.908 791.245 159.098 791.245 Q153.288 791.245 150.209 786.662 Q147.153 782.055 147.153 773.328 Q147.153 764.578 150.209 759.995 Q153.288 755.389 159.098 755.389 Z" fill="#000000" fill-rule="evenodd" fill-opacity="1" /><path clip-path="url(#clip670)" d="M207.431 765.111 L196.852 775.736 L207.431 786.314 L204.676 789.115 L194.051 778.49 L183.426 789.115 L180.695 786.314 L191.25 775.736 L180.695 765.111 L183.426 762.31 L194.051 772.935 L204.676 762.31 L207.431 765.111 Z" fill="#000000" fill-rule="evenodd" fill-opacity="1" /><path clip-path="url(#clip670)" d="M219.792 786.638 L227.431 786.638 L227.431 760.273 L219.121 761.939 L219.121 757.68 L227.384 756.014 L232.06 756.014 L232.06 786.638 L239.699 786.638 L239.699 790.574 L219.792 790.574 L219.792 786.638 Z" fill="#000000" fill-rule="evenodd" fill-opacity="1" /><path clip-path="url(#clip670)" d="M259.143 759.092 Q255.532 759.092 253.704 762.657 Q251.898 766.199 251.898 773.328 Q251.898 780.435 253.704 784 Q255.532 787.541 259.143 787.541 Q262.778 787.541 264.583 784 Q266.412 780.435 266.412 773.328 Q266.412 766.199 264.583 762.657 Q262.778 759.092 259.143 759.092 M259.143 755.389 Q264.954 755.389 268.009 759.995 Q271.088 764.578 271.088 773.328 Q271.088 782.055 268.009 786.662 Q264.954 791.245 259.143 791.245 Q253.333 791.245 250.255 786.662 Q247.199 782.055 247.199 773.328 Q247.199 764.578 250.255 759.995 Q253.333 755.389 259.143 755.389 Z" fill="#000000" fill-rule="evenodd" fill-opacity="1" /><path clip-path="url(#clip670)" d="M272.893 762.58 L272.893 759.12 Q274.323 759.797 275.79 760.154 Q277.257 760.511 278.667 760.511 Q282.429 760.511 284.404 757.991 Q286.397 755.452 286.68 750.299 Q285.589 751.916 283.915 752.781 Q282.241 753.646 280.21 753.646 Q275.997 753.646 273.533 751.107 Q271.088 748.55 271.088 744.13 Q271.088 739.804 273.646 737.19 Q276.204 734.575 280.454 734.575 Q285.325 734.575 287.883 738.318 Q290.46 742.042 290.46 749.151 Q290.46 755.791 287.3 759.759 Q284.159 763.709 278.837 763.709 Q277.407 763.709 275.94 763.426 Q274.473 763.144 272.893 762.58 M280.454 750.675 Q283.012 750.675 284.498 748.926 Q286.002 747.177 286.002 744.13 Q286.002 741.102 284.498 739.353 Q283.012 737.585 280.454 737.585 Q277.896 737.585 276.392 739.353 Q274.906 741.102 274.906 744.13 Q274.906 747.177 276.392 748.926 Q277.896 750.675 280.454 750.675 Z" fill="#000000" fill-rule="evenodd" fill-opacity="1" /><path clip-path="url(#clip670)" d="M72.5241 668.151 L94.7462 668.151 L94.7462 670.142 L82.2 702.711 L77.3158 702.711 L89.1213 672.086 L72.5241 672.086 L72.5241 668.151 Z" fill="#000000" fill-rule="evenodd" fill-opacity="1" /><path clip-path="url(#clip670)" d="M103.867 696.831 L108.751 696.831 L108.751 702.711 L103.867 702.711 L103.867 696.831 Z" fill="#000000" fill-rule="evenodd" fill-opacity="1" /><path clip-path="url(#clip670)" d="M118.982 668.151 L137.339 668.151 L137.339 672.086 L123.265 672.086 L123.265 680.558 Q124.283 680.211 125.302 680.049 Q126.32 679.864 127.339 679.864 Q133.126 679.864 136.505 683.035 Q139.885 686.207 139.885 691.623 Q139.885 697.202 136.413 700.304 Q132.94 703.382 126.621 703.382 Q124.445 703.382 122.177 703.012 Q119.931 702.642 117.524 701.901 L117.524 697.202 Q119.607 698.336 121.829 698.892 Q124.052 699.447 126.528 699.447 Q130.533 699.447 132.871 697.341 Q135.209 695.234 135.209 691.623 Q135.209 688.012 132.871 685.906 Q130.533 683.799 126.528 683.799 Q124.653 683.799 122.778 684.216 Q120.927 684.632 118.982 685.512 L118.982 668.151 Z" fill="#000000" fill-rule="evenodd" fill-opacity="1" /><path clip-path="url(#clip670)" d="M159.098 671.23 Q155.487 671.23 153.658 674.795 Q151.852 678.336 151.852 685.466 Q151.852 692.572 153.658 696.137 Q155.487 699.679 159.098 699.679 Q162.732 699.679 164.538 696.137 Q166.366 692.572 166.366 685.466 Q166.366 678.336 164.538 674.795 Q162.732 671.23 159.098 671.23 M159.098 667.526 Q164.908 667.526 167.963 672.133 Q171.042 676.716 171.042 685.466 Q171.042 694.193 167.963 698.799 Q164.908 703.382 159.098 703.382 Q153.288 703.382 150.209 698.799 Q147.153 694.193 147.153 685.466 Q147.153 676.716 150.209 672.133 Q153.288 667.526 159.098 667.526 Z" fill="#000000" fill-rule="evenodd" fill-opacity="1" /><path clip-path="url(#clip670)" d="M207.431 677.248 L196.852 687.873 L207.431 698.452 L204.676 701.253 L194.051 690.628 L183.426 701.253 L180.695 698.452 L191.25 687.873 L180.695 677.248 L183.426 674.447 L194.051 685.072 L204.676 674.447 L207.431 677.248 Z" fill="#000000" fill-rule="evenodd" fill-opacity="1" /><path clip-path="url(#clip670)" d="M219.792 698.776 L227.431 698.776 L227.431 672.41 L219.121 674.077 L219.121 669.818 L227.384 668.151 L232.06 668.151 L232.06 698.776 L239.699 698.776 L239.699 702.711 L219.792 702.711 L219.792 698.776 Z" fill="#000000" fill-rule="evenodd" fill-opacity="1" /><path clip-path="url(#clip670)" d="M259.143 671.23 Q255.532 671.23 253.704 674.795 Q251.898 678.336 251.898 685.466 Q251.898 692.572 253.704 696.137 Q255.532 699.679 259.143 699.679 Q262.778 699.679 264.583 696.137 Q266.412 692.572 266.412 685.466 Q266.412 678.336 264.583 674.795 Q262.778 671.23 259.143 671.23 M259.143 667.526 Q264.954 667.526 268.009 672.133 Q271.088 676.716 271.088 685.466 Q271.088 694.193 268.009 698.799 Q264.954 703.382 259.143 703.382 Q253.333 703.382 250.255 698.799 Q247.199 694.193 247.199 685.466 Q247.199 676.716 250.255 672.133 Q253.333 667.526 259.143 667.526 Z" fill="#000000" fill-rule="evenodd" fill-opacity="1" /><path clip-path="url(#clip670)" d="M272.893 674.718 L272.893 671.257 Q274.323 671.934 275.79 672.291 Q277.257 672.649 278.667 672.649 Q282.429 672.649 284.404 670.129 Q286.397 667.589 286.68 662.436 Q285.589 664.054 283.915 664.919 Q282.241 665.784 280.21 665.784 Q275.997 665.784 273.533 663.245 Q271.088 660.687 271.088 656.267 Q271.088 651.941 273.646 649.327 Q276.204 646.713 280.454 646.713 Q285.325 646.713 287.883 650.456 Q290.46 654.18 290.46 661.289 Q290.46 667.928 287.3 671.896 Q284.159 675.846 278.837 675.846 Q277.407 675.846 275.94 675.564 Q274.473 675.282 272.893 674.718 M280.454 662.812 Q283.012 662.812 284.498 661.063 Q286.002 659.314 286.002 656.267 Q286.002 653.239 284.498 651.49 Q283.012 649.722 280.454 649.722 Q277.896 649.722 276.392 651.49 Q274.906 653.239 274.906 656.267 Q274.906 659.314 276.392 661.063 Q277.896 662.812 280.454 662.812 Z" fill="#000000" fill-rule="evenodd" fill-opacity="1" /><path clip-path="url(#clip670)" d="M51.6634 610.913 L59.3023 610.913 L59.3023 584.548 L50.9921 586.214 L50.9921 581.955 L59.256 580.289 L63.9319 580.289 L63.9319 610.913 L71.5707 610.913 L71.5707 614.849 L51.6634 614.849 L51.6634 610.913 Z" fill="#000000" fill-rule="evenodd" fill-opacity="1" /><path clip-path="url(#clip670)" d="M81.0151 608.969 L85.8993 608.969 L85.8993 614.849 L81.0151 614.849 L81.0151 608.969 Z" fill="#000000" fill-rule="evenodd" fill-opacity="1" /><path clip-path="url(#clip670)" d="M106.084 583.367 Q102.473 583.367 100.645 586.932 Q98.8391 590.474 98.8391 597.603 Q98.8391 604.71 100.645 608.274 Q102.473 611.816 106.084 611.816 Q109.719 611.816 111.524 608.274 Q113.353 604.71 113.353 597.603 Q113.353 590.474 111.524 586.932 Q109.719 583.367 106.084 583.367 M106.084 579.664 Q111.895 579.664 114.95 584.27 Q118.029 588.853 118.029 597.603 Q118.029 606.33 114.95 610.937 Q111.895 615.52 106.084 615.52 Q100.274 615.52 97.1956 610.937 Q94.14 606.33 94.14 597.603 Q94.14 588.853 97.1956 584.27 Q100.274 579.664 106.084 579.664 Z" fill="#000000" fill-rule="evenodd" fill-opacity="1" /><path clip-path="url(#clip670)" d="M136.246 583.367 Q132.635 583.367 130.807 586.932 Q129.001 590.474 129.001 597.603 Q129.001 604.71 130.807 608.274 Q132.635 611.816 136.246 611.816 Q139.881 611.816 141.686 608.274 Q143.515 604.71 143.515 597.603 Q143.515 590.474 141.686 586.932 Q139.881 583.367 136.246 583.367 M136.246 579.664 Q142.056 579.664 145.112 584.27 Q148.191 588.853 148.191 597.603 Q148.191 606.33 145.112 610.937 Q142.056 615.52 136.246 615.52 Q130.436 615.52 127.357 610.937 Q124.302 606.33 124.302 597.603 Q124.302 588.853 127.357 584.27 Q130.436 579.664 136.246 579.664 Z" fill="#000000" fill-rule="evenodd" fill-opacity="1" /><path clip-path="url(#clip670)" d="M184.579 589.386 L174.001 600.011 L184.579 610.589 L181.825 613.39 L171.2 602.765 L160.575 613.39 L157.843 610.589 L168.399 600.011 L157.843 589.386 L160.575 586.585 L171.2 597.21 L181.825 586.585 L184.579 589.386 Z" fill="#000000" fill-rule="evenodd" fill-opacity="1" /><path clip-path="url(#clip670)" d="M196.94 610.913 L204.579 610.913 L204.579 584.548 L196.269 586.214 L196.269 581.955 L204.533 580.289 L209.209 580.289 L209.209 610.913 L216.848 610.913 L216.848 614.849 L196.94 614.849 L196.94 610.913 Z" fill="#000000" fill-rule="evenodd" fill-opacity="1" /><path clip-path="url(#clip670)" d="M236.292 583.367 Q232.681 583.367 230.852 586.932 Q229.047 590.474 229.047 597.603 Q229.047 604.71 230.852 608.274 Q232.681 611.816 236.292 611.816 Q239.926 611.816 241.732 608.274 Q243.561 604.71 243.561 597.603 Q243.561 590.474 241.732 586.932 Q239.926 583.367 236.292 583.367 M236.292 579.664 Q242.102 579.664 245.158 584.27 Q248.236 588.853 248.236 597.603 Q248.236 606.33 245.158 610.937 Q242.102 615.52 236.292 615.52 Q230.482 615.52 227.403 610.937 Q224.348 606.33 224.348 597.603 Q224.348 588.853 227.403 584.27 Q230.482 579.664 236.292 579.664 Z" fill="#000000" fill-rule="evenodd" fill-opacity="1" /><path clip-path="url(#clip670)" d="M248.782 584.241 L254.988 584.241 L254.988 562.819 L248.236 564.173 L248.236 560.712 L254.951 559.358 L258.75 559.358 L258.75 584.241 L264.957 584.241 L264.957 587.438 L248.782 587.438 L248.782 584.241 Z" fill="#000000" fill-rule="evenodd" fill-opacity="1" /><path clip-path="url(#clip670)" d="M280.755 561.86 Q277.821 561.86 276.335 564.756 Q274.868 567.634 274.868 573.426 Q274.868 579.2 276.335 582.097 Q277.821 584.974 280.755 584.974 Q283.708 584.974 285.175 582.097 Q286.661 579.2 286.661 573.426 Q286.661 567.634 285.175 564.756 Q283.708 561.86 280.755 561.86 M280.755 558.85 Q285.476 558.85 287.958 562.593 Q290.46 566.317 290.46 573.426 Q290.46 580.517 287.958 584.26 Q285.476 587.984 280.755 587.984 Q276.034 587.984 273.533 584.26 Q271.05 580.517 271.05 573.426 Q271.05 566.317 273.533 562.593 Q276.034 558.85 280.755 558.85 Z" fill="#000000" fill-rule="evenodd" fill-opacity="1" /><polyline clip-path="url(#clip673)" style="stroke:#009af9; stroke-linecap:butt; stroke-linejoin:round; stroke-width:4; stroke-opacity:1; fill:none" points="
  383.808,591.121 393.414,591.121 403.02,591.121 412.626,591.121 422.232,591.121 431.838,591.121 441.444,591.121 451.05,591.121 460.656,591.121 470.262,591.121 
  479.868,591.121 489.474,591.121 499.08,591.121 508.686,591.121 518.292,591.121 527.898,591.121 537.504,591.121 547.11,591.121 556.716,591.121 566.322,591.121 
  575.928,591.121 585.535,591.121 595.141,591.121 604.747,591.121 614.353,591.121 623.959,591.121 633.565,591.121 643.171,591.121 652.777,591.121 662.383,591.121 
  671.989,591.121 681.595,591.121 691.201,591.121 700.807,591.121 710.413,591.121 720.019,591.121 729.625,591.121 739.231,591.121 748.837,591.121 758.443,591.121 
  768.049,591.121 777.655,591.121 787.261,591.121 796.867,591.121 806.473,591.121 816.079,591.121 825.685,591.121 835.291,591.121 844.897,591.121 854.503,591.121 
  864.109,591.121 873.715,591.121 883.321,591.121 892.927,591.121 902.534,591.121 912.14,591.121 921.746,591.121 931.352,591.121 940.958,591.121 950.564,591.121 
  960.17,942.571 969.776,942.571 979.382,942.571 988.988,942.571 998.594,942.571 1008.2,942.571 1017.81,942.571 1027.41,942.571 1037.02,942.571 1046.62,942.571 
  1056.23,942.571 1065.84,942.571 1075.44,942.571 1085.05,942.571 1094.65,942.571 1104.26,942.571 1113.87,942.571 1123.47,942.571 1133.08,942.571 1142.68,942.571 
  1152.29,942.571 1161.9,942.571 1171.5,942.571 1181.11,942.571 1190.71,942.571 1200.32,942.571 1209.93,942.571 1219.53,942.571 1229.14,942.571 1238.74,942.571 
  1248.35,942.571 1257.96,942.571 1267.56,942.571 1277.17,942.571 1286.77,942.571 1296.38,942.571 1305.99,942.571 1315.59,942.571 1325.2,942.571 1334.8,942.571 
  1344.41,942.571 1354.02,942.571 1363.62,942.571 1373.23,942.571 1382.84,942.571 1392.44,942.571 1402.05,942.571 1411.65,942.571 1421.26,942.571 1430.87,942.571 
  1440.47,942.571 1450.08,942.571 1459.68,942.571 1469.29,942.571 1478.9,942.571 1488.5,942.571 1498.11,942.571 1507.71,942.571 1517.32,942.571 1526.93,942.571 
  1536.53,942.571 1546.14,942.571 1555.74,942.571 1565.35,942.571 1574.96,942.571 1584.56,942.571 1594.17,942.571 1603.77,942.571 1613.38,942.571 1622.99,942.571 
  1632.59,942.571 1642.2,942.571 1651.8,942.571 1661.41,942.571 1671.02,942.571 1680.62,942.571 1690.23,942.571 1699.83,942.571 1709.44,942.571 1719.05,942.571 
  1728.65,591.121 1738.26,591.121 1747.86,591.121 1757.47,591.121 1767.08,591.121 1776.68,591.121 1786.29,591.121 1795.89,591.121 1805.5,591.121 1815.11,591.121 
  1824.71,591.121 1834.32,591.121 1843.92,591.121 1853.53,591.121 1863.14,591.121 1872.74,591.121 1882.35,591.121 1891.95,591.121 1901.56,591.121 1911.17,591.121 
  1920.77,591.121 1930.38,591.121 1939.98,591.121 1949.59,591.121 1959.2,591.121 1968.8,591.121 1978.41,591.121 1988.01,591.121 1997.62,591.121 2007.23,591.121 
  2016.83,591.121 2026.44,591.121 2036.05,591.121 2045.65,591.121 2055.26,591.121 2064.86,591.121 2074.47,591.121 2084.08,591.121 2093.68,591.121 2103.29,591.121 
  2112.89,591.121 2122.5,591.121 2132.11,591.121 2141.71,591.121 2151.32,591.121 2160.92,591.121 2170.53,591.121 2180.14,591.121 2189.74,591.121 2199.35,591.121 
  2208.95,591.121 2218.56,591.121 2228.17,591.121 2237.77,591.121 2247.38,591.121 2256.98,591.121 2266.59,591.121 2276.2,591.121 2285.8,591.121 2295.41,591.121 
  
  "/>
<path clip-path="url(#clip670)" d="
M1914.47 696.675 L2285.21 696.675 L2285.21 592.995 L1914.47 592.995  Z
  " fill="#ffffff" fill-rule="evenodd" fill-opacity="1"/>
<polyline clip-path="url(#clip670)" style="stroke:#000000; stroke-linecap:butt; stroke-linejoin:round; stroke-width:4; stroke-opacity:1; fill:none" points="
  1914.47,696.675 2285.21,696.675 2285.21,592.995 1914.47,592.995 1914.47,696.675 
  "/>
<polyline clip-path="url(#clip670)" style="stroke:#009af9; stroke-linecap:butt; stroke-linejoin:round; stroke-width:4; stroke-opacity:1; fill:none" points="
  1936.98,644.835 2072.07,644.835 
  "/>
<path clip-path="url(#clip670)" d="M2107.78 662.115 L2094.58 627.555 L2099.47 627.555 L2110.42 656.652 L2121.39 627.555 L2126.25 627.555 L2113.08 662.115 L2107.78 662.115 Z" fill="#000000" fill-rule="evenodd" fill-opacity="1" /><path clip-path="url(#clip670)" d="M2150.81 669.986 L2150.81 673.296 L2126.18 673.296 L2126.18 669.986 L2150.81 669.986 Z" fill="#000000" fill-rule="evenodd" fill-opacity="1" /><path clip-path="url(#clip670)" d="M2152.34 636.19 L2156.6 636.19 L2161.92 656.421 L2167.22 636.19 L2172.24 636.19 L2177.57 656.421 L2182.87 636.19 L2187.13 636.19 L2180.35 662.115 L2175.32 662.115 L2169.74 640.865 L2164.14 662.115 L2159.12 662.115 L2152.34 636.19 Z" fill="#000000" fill-rule="evenodd" fill-opacity="1" /><path clip-path="url(#clip670)" d="M2215.76 648.088 L2215.76 650.171 L2196.18 650.171 Q2196.46 654.569 2198.82 656.884 Q2201.2 659.176 2205.44 659.176 Q2207.89 659.176 2210.18 658.574 Q2212.5 657.972 2214.77 656.768 L2214.77 660.796 Q2212.48 661.768 2210.07 662.277 Q2207.66 662.787 2205.18 662.787 Q2198.98 662.787 2195.35 659.176 Q2191.74 655.564 2191.74 649.407 Q2191.74 643.041 2195.16 639.315 Q2198.61 635.565 2204.44 635.565 Q2209.67 635.565 2212.71 638.944 Q2215.76 642.301 2215.76 648.088 M2211.5 646.838 Q2211.46 643.342 2209.54 641.259 Q2207.64 639.176 2204.49 639.176 Q2200.92 639.176 2198.77 641.19 Q2196.64 643.203 2196.32 646.861 L2211.5 646.838 Z" fill="#000000" fill-rule="evenodd" fill-opacity="1" /><path clip-path="url(#clip670)" d="M2222.75 626.097 L2227.01 626.097 L2227.01 662.115 L2222.75 662.115 L2222.75 626.097 Z" fill="#000000" fill-rule="evenodd" fill-opacity="1" /><path clip-path="url(#clip670)" d="M2235.92 626.097 L2240.18 626.097 L2240.18 662.115 L2235.92 662.115 L2235.92 626.097 Z" fill="#000000" fill-rule="evenodd" fill-opacity="1" /><path clip-path="url(#clip670)" d="
M326.46 1486.45 L2352.76 1486.45 L2352.76 1113.91 L326.46 1113.91  Z
  " fill="#ffffff" fill-rule="evenodd" fill-opacity="1"/>
<defs>
  <clipPath id="clip674">
    <rect x="326" y="1113" width="2027" height="374"/>
  </clipPath>
</defs>
<polyline clip-path="url(#clip674)" style="stroke:#000000; stroke-linecap:butt; stroke-linejoin:round; stroke-width:2; stroke-opacity:0.1; fill:none" points="
  574.968,1486.45 574.968,1113.91 
  "/>
<polyline clip-path="url(#clip674)" style="stroke:#000000; stroke-linecap:butt; stroke-linejoin:round; stroke-width:2; stroke-opacity:0.1; fill:none" points="
  957.288,1486.45 957.288,1113.91 
  "/>
<polyline clip-path="url(#clip674)" style="stroke:#000000; stroke-linecap:butt; stroke-linejoin:round; stroke-width:2; stroke-opacity:0.1; fill:none" points="
  1339.61,1486.45 1339.61,1113.91 
  "/>
<polyline clip-path="url(#clip674)" style="stroke:#000000; stroke-linecap:butt; stroke-linejoin:round; stroke-width:2; stroke-opacity:0.1; fill:none" points="
  1721.93,1486.45 1721.93,1113.91 
  "/>
<polyline clip-path="url(#clip674)" style="stroke:#000000; stroke-linecap:butt; stroke-linejoin:round; stroke-width:2; stroke-opacity:0.1; fill:none" points="
  2104.25,1486.45 2104.25,1113.91 
  "/>
<polyline clip-path="url(#clip670)" style="stroke:#000000; stroke-linecap:butt; stroke-linejoin:round; stroke-width:4; stroke-opacity:1; fill:none" points="
  326.46,1486.45 2352.76,1486.45 
  "/>
<polyline clip-path="url(#clip670)" style="stroke:#000000; stroke-linecap:butt; stroke-linejoin:round; stroke-width:4; stroke-opacity:1; fill:none" points="
  574.968,1486.45 574.968,1467.55 
  "/>
<polyline clip-path="url(#clip670)" style="stroke:#000000; stroke-linecap:butt; stroke-linejoin:round; stroke-width:4; stroke-opacity:1; fill:none" points="
  957.288,1486.45 957.288,1467.55 
  "/>
<polyline clip-path="url(#clip670)" style="stroke:#000000; stroke-linecap:butt; stroke-linejoin:round; stroke-width:4; stroke-opacity:1; fill:none" points="
  1339.61,1486.45 1339.61,1467.55 
  "/>
<polyline clip-path="url(#clip670)" style="stroke:#000000; stroke-linecap:butt; stroke-linejoin:round; stroke-width:4; stroke-opacity:1; fill:none" points="
  1721.93,1486.45 1721.93,1467.55 
  "/>
<polyline clip-path="url(#clip670)" style="stroke:#000000; stroke-linecap:butt; stroke-linejoin:round; stroke-width:4; stroke-opacity:1; fill:none" points="
  2104.25,1486.45 2104.25,1467.55 
  "/>
<path clip-path="url(#clip670)" d="M543.869 1532.02 L573.544 1532.02 L573.544 1535.95 L543.869 1535.95 L543.869 1532.02 Z" fill="#000000" fill-rule="evenodd" fill-opacity="1" /><path clip-path="url(#clip670)" d="M596.484 1518.36 L584.678 1536.81 L596.484 1536.81 L596.484 1518.36 M595.257 1514.29 L601.137 1514.29 L601.137 1536.81 L606.067 1536.81 L606.067 1540.7 L601.137 1540.7 L601.137 1548.85 L596.484 1548.85 L596.484 1540.7 L580.882 1540.7 L580.882 1536.19 L595.257 1514.29 Z" fill="#000000" fill-rule="evenodd" fill-opacity="1" /><path clip-path="url(#clip670)" d="M927.23 1532.02 L956.906 1532.02 L956.906 1535.95 L927.23 1535.95 L927.23 1532.02 Z" fill="#000000" fill-rule="evenodd" fill-opacity="1" /><path clip-path="url(#clip670)" d="M971.026 1544.91 L987.346 1544.91 L987.346 1548.85 L965.401 1548.85 L965.401 1544.91 Q968.063 1542.16 972.647 1537.53 Q977.253 1532.88 978.434 1531.53 Q980.679 1529.01 981.559 1527.27 Q982.461 1525.51 982.461 1523.82 Q982.461 1521.07 980.517 1519.33 Q978.596 1517.6 975.494 1517.6 Q973.295 1517.6 970.841 1518.36 Q968.411 1519.13 965.633 1520.68 L965.633 1515.95 Q968.457 1514.82 970.911 1514.24 Q973.364 1513.66 975.401 1513.66 Q980.772 1513.66 983.966 1516.35 Q987.16 1519.03 987.16 1523.52 Q987.16 1525.65 986.35 1527.57 Q985.563 1529.47 983.457 1532.07 Q982.878 1532.74 979.776 1535.95 Q976.674 1539.15 971.026 1544.91 Z" fill="#000000" fill-rule="evenodd" fill-opacity="1" /><path clip-path="url(#clip670)" d="M1339.61 1517.37 Q1336 1517.37 1334.17 1520.93 Q1332.36 1524.47 1332.36 1531.6 Q1332.36 1538.71 1334.17 1542.27 Q1336 1545.82 1339.61 1545.82 Q1343.24 1545.82 1345.05 1542.27 Q1346.88 1538.71 1346.88 1531.6 Q1346.88 1524.47 1345.05 1520.93 Q1343.24 1517.37 1339.61 1517.37 M1339.61 1513.66 Q1345.42 1513.66 1348.47 1518.27 Q1351.55 1522.85 1351.55 1531.6 Q1351.55 1540.33 1348.47 1544.94 Q1345.42 1549.52 1339.61 1549.52 Q1333.8 1549.52 1330.72 1544.94 Q1327.66 1540.33 1327.66 1531.6 Q1327.66 1522.85 1330.72 1518.27 Q1333.8 1513.66 1339.61 1513.66 Z" fill="#000000" fill-rule="evenodd" fill-opacity="1" /><path clip-path="url(#clip670)" d="M1716.58 1544.91 L1732.9 1544.91 L1732.9 1548.85 L1710.96 1548.85 L1710.96 1544.91 Q1713.62 1542.16 1718.2 1537.53 Q1722.81 1532.88 1723.99 1531.53 Q1726.23 1529.01 1727.11 1527.27 Q1728.02 1525.51 1728.02 1523.82 Q1728.02 1521.07 1726.07 1519.33 Q1724.15 1517.6 1721.05 1517.6 Q1718.85 1517.6 1716.4 1518.36 Q1713.96 1519.13 1711.19 1520.68 L1711.19 1515.95 Q1714.01 1514.82 1716.46 1514.24 Q1718.92 1513.66 1720.96 1513.66 Q1726.33 1513.66 1729.52 1516.35 Q1732.71 1519.03 1732.71 1523.52 Q1732.71 1525.65 1731.9 1527.57 Q1731.12 1529.47 1729.01 1532.07 Q1728.43 1532.74 1725.33 1535.95 Q1722.23 1539.15 1716.58 1544.91 Z" fill="#000000" fill-rule="evenodd" fill-opacity="1" /><path clip-path="url(#clip670)" d="M2107.26 1518.36 L2095.45 1536.81 L2107.26 1536.81 L2107.26 1518.36 M2106.03 1514.29 L2111.91 1514.29 L2111.91 1536.81 L2116.84 1536.81 L2116.84 1540.7 L2111.91 1540.7 L2111.91 1548.85 L2107.26 1548.85 L2107.26 1540.7 L2091.66 1540.7 L2091.66 1536.19 L2106.03 1514.29 Z" fill="#000000" fill-rule="evenodd" fill-opacity="1" /><polyline clip-path="url(#clip674)" style="stroke:#000000; stroke-linecap:butt; stroke-linejoin:round; stroke-width:2; stroke-opacity:0.1; fill:none" points="
  326.46,1475.91 2352.76,1475.91 
  "/>
<polyline clip-path="url(#clip674)" style="stroke:#000000; stroke-linecap:butt; stroke-linejoin:round; stroke-width:2; stroke-opacity:0.1; fill:none" points="
  326.46,1405.62 2352.76,1405.62 
  "/>
<polyline clip-path="url(#clip674)" style="stroke:#000000; stroke-linecap:butt; stroke-linejoin:round; stroke-width:2; stroke-opacity:0.1; fill:none" points="
  326.46,1335.33 2352.76,1335.33 
  "/>
<polyline clip-path="url(#clip674)" style="stroke:#000000; stroke-linecap:butt; stroke-linejoin:round; stroke-width:2; stroke-opacity:0.1; fill:none" points="
  326.46,1265.04 2352.76,1265.04 
  "/>
<polyline clip-path="url(#clip674)" style="stroke:#000000; stroke-linecap:butt; stroke-linejoin:round; stroke-width:2; stroke-opacity:0.1; fill:none" points="
  326.46,1194.75 2352.76,1194.75 
  "/>
<polyline clip-path="url(#clip674)" style="stroke:#000000; stroke-linecap:butt; stroke-linejoin:round; stroke-width:2; stroke-opacity:0.1; fill:none" points="
  326.46,1124.45 2352.76,1124.45 
  "/>
<polyline clip-path="url(#clip670)" style="stroke:#000000; stroke-linecap:butt; stroke-linejoin:round; stroke-width:4; stroke-opacity:1; fill:none" points="
  326.46,1486.45 326.46,1113.91 
  "/>
<polyline clip-path="url(#clip670)" style="stroke:#000000; stroke-linecap:butt; stroke-linejoin:round; stroke-width:4; stroke-opacity:1; fill:none" points="
  326.46,1475.91 345.358,1475.91 
  "/>
<polyline clip-path="url(#clip670)" style="stroke:#000000; stroke-linecap:butt; stroke-linejoin:round; stroke-width:4; stroke-opacity:1; fill:none" points="
  326.46,1405.62 345.358,1405.62 
  "/>
<polyline clip-path="url(#clip670)" style="stroke:#000000; stroke-linecap:butt; stroke-linejoin:round; stroke-width:4; stroke-opacity:1; fill:none" points="
  326.46,1335.33 345.358,1335.33 
  "/>
<polyline clip-path="url(#clip670)" style="stroke:#000000; stroke-linecap:butt; stroke-linejoin:round; stroke-width:4; stroke-opacity:1; fill:none" points="
  326.46,1265.04 345.358,1265.04 
  "/>
<polyline clip-path="url(#clip670)" style="stroke:#000000; stroke-linecap:butt; stroke-linejoin:round; stroke-width:4; stroke-opacity:1; fill:none" points="
  326.46,1194.75 345.358,1194.75 
  "/>
<polyline clip-path="url(#clip670)" style="stroke:#000000; stroke-linecap:butt; stroke-linejoin:round; stroke-width:4; stroke-opacity:1; fill:none" points="
  326.46,1124.45 345.358,1124.45 
  "/>
<path clip-path="url(#clip670)" d="M278.516 1461.71 Q274.904 1461.71 273.076 1465.28 Q271.27 1468.82 271.27 1475.95 Q271.27 1483.05 273.076 1486.62 Q274.904 1490.16 278.516 1490.16 Q282.15 1490.16 283.955 1486.62 Q285.784 1483.05 285.784 1475.95 Q285.784 1468.82 283.955 1465.28 Q282.15 1461.71 278.516 1461.71 M278.516 1458.01 Q284.326 1458.01 287.381 1462.61 Q290.46 1467.2 290.46 1475.95 Q290.46 1484.67 287.381 1489.28 Q284.326 1493.86 278.516 1493.86 Q272.705 1493.86 269.627 1489.28 Q266.571 1484.67 266.571 1475.95 Q266.571 1467.2 269.627 1462.61 Q272.705 1458.01 278.516 1458.01 Z" fill="#000000" fill-rule="evenodd" fill-opacity="1" /><path clip-path="url(#clip670)" d="M269.557 1388.34 L287.914 1388.34 L287.914 1392.28 L273.84 1392.28 L273.84 1400.75 Q274.858 1400.4 275.877 1400.24 Q276.895 1400.05 277.914 1400.05 Q283.701 1400.05 287.08 1403.23 Q290.46 1406.4 290.46 1411.81 Q290.46 1417.39 286.988 1420.49 Q283.515 1423.57 277.196 1423.57 Q275.02 1423.57 272.752 1423.2 Q270.506 1422.83 268.099 1422.09 L268.099 1417.39 Q270.182 1418.53 272.404 1419.08 Q274.627 1419.64 277.103 1419.64 Q281.108 1419.64 283.446 1417.53 Q285.784 1415.42 285.784 1411.81 Q285.784 1408.2 283.446 1406.1 Q281.108 1403.99 277.103 1403.99 Q275.228 1403.99 273.353 1404.41 Q271.502 1404.82 269.557 1405.7 L269.557 1388.34 Z" fill="#000000" fill-rule="evenodd" fill-opacity="1" /><path clip-path="url(#clip670)" d="M239.164 1348.67 L246.803 1348.67 L246.803 1322.31 L238.493 1323.98 L238.493 1319.72 L246.756 1318.05 L251.432 1318.05 L251.432 1348.67 L259.071 1348.67 L259.071 1352.61 L239.164 1352.61 L239.164 1348.67 Z" fill="#000000" fill-rule="evenodd" fill-opacity="1" /><path clip-path="url(#clip670)" d="M278.516 1321.13 Q274.904 1321.13 273.076 1324.69 Q271.27 1328.23 271.27 1335.36 Q271.27 1342.47 273.076 1346.04 Q274.904 1349.58 278.516 1349.58 Q282.15 1349.58 283.955 1346.04 Q285.784 1342.47 285.784 1335.36 Q285.784 1328.23 283.955 1324.69 Q282.15 1321.13 278.516 1321.13 M278.516 1317.42 Q284.326 1317.42 287.381 1322.03 Q290.46 1326.61 290.46 1335.36 Q290.46 1344.09 287.381 1348.7 Q284.326 1353.28 278.516 1353.28 Q272.705 1353.28 269.627 1348.7 Q266.571 1344.09 266.571 1335.36 Q266.571 1326.61 269.627 1322.03 Q272.705 1317.42 278.516 1317.42 Z" fill="#000000" fill-rule="evenodd" fill-opacity="1" /><path clip-path="url(#clip670)" d="M240.159 1278.38 L247.798 1278.38 L247.798 1252.02 L239.488 1253.68 L239.488 1249.42 L247.752 1247.76 L252.428 1247.76 L252.428 1278.38 L260.067 1278.38 L260.067 1282.32 L240.159 1282.32 L240.159 1278.38 Z" fill="#000000" fill-rule="evenodd" fill-opacity="1" /><path clip-path="url(#clip670)" d="M269.557 1247.76 L287.914 1247.76 L287.914 1251.69 L273.84 1251.69 L273.84 1260.17 Q274.858 1259.82 275.877 1259.66 Q276.895 1259.47 277.914 1259.47 Q283.701 1259.47 287.08 1262.64 Q290.46 1265.81 290.46 1271.23 Q290.46 1276.81 286.988 1279.91 Q283.515 1282.99 277.196 1282.99 Q275.02 1282.99 272.752 1282.62 Q270.506 1282.25 268.099 1281.51 L268.099 1276.81 Q270.182 1277.94 272.404 1278.5 Q274.627 1279.05 277.103 1279.05 Q281.108 1279.05 283.446 1276.95 Q285.784 1274.84 285.784 1271.23 Q285.784 1267.62 283.446 1265.51 Q281.108 1263.41 277.103 1263.41 Q275.228 1263.41 273.353 1263.82 Q271.502 1264.24 269.557 1265.12 L269.557 1247.76 Z" fill="#000000" fill-rule="evenodd" fill-opacity="1" /><path clip-path="url(#clip670)" d="M242.381 1208.09 L258.701 1208.09 L258.701 1212.03 L236.756 1212.03 L236.756 1208.09 Q239.418 1205.34 244.002 1200.71 Q248.608 1196.05 249.789 1194.71 Q252.034 1192.19 252.914 1190.45 Q253.817 1188.69 253.817 1187 Q253.817 1184.25 251.872 1182.51 Q249.951 1180.78 246.849 1180.78 Q244.65 1180.78 242.196 1181.54 Q239.766 1182.3 236.988 1183.85 L236.988 1179.13 Q239.812 1178 242.266 1177.42 Q244.719 1176.84 246.756 1176.84 Q252.127 1176.84 255.321 1179.53 Q258.516 1182.21 258.516 1186.7 Q258.516 1188.83 257.705 1190.75 Q256.918 1192.65 254.812 1195.24 Q254.233 1195.92 251.131 1199.13 Q248.03 1202.33 242.381 1208.09 Z" fill="#000000" fill-rule="evenodd" fill-opacity="1" /><path clip-path="url(#clip670)" d="M278.516 1180.54 Q274.904 1180.54 273.076 1184.11 Q271.27 1187.65 271.27 1194.78 Q271.27 1201.89 273.076 1205.45 Q274.904 1208.99 278.516 1208.99 Q282.15 1208.99 283.955 1205.45 Q285.784 1201.89 285.784 1194.78 Q285.784 1187.65 283.955 1184.11 Q282.15 1180.54 278.516 1180.54 M278.516 1176.84 Q284.326 1176.84 287.381 1181.45 Q290.46 1186.03 290.46 1194.78 Q290.46 1203.51 287.381 1208.11 Q284.326 1212.7 278.516 1212.7 Q272.705 1212.7 269.627 1208.11 Q266.571 1203.51 266.571 1194.78 Q266.571 1186.03 269.627 1181.45 Q272.705 1176.84 278.516 1176.84 Z" fill="#000000" fill-rule="evenodd" fill-opacity="1" /><path clip-path="url(#clip670)" d="M243.377 1137.8 L259.696 1137.8 L259.696 1141.73 L237.752 1141.73 L237.752 1137.8 Q240.414 1135.04 244.997 1130.41 Q249.604 1125.76 250.784 1124.42 Q253.03 1121.9 253.909 1120.16 Q254.812 1118.4 254.812 1116.71 Q254.812 1113.96 252.867 1112.22 Q250.946 1110.48 247.844 1110.48 Q245.645 1110.48 243.192 1111.25 Q240.761 1112.01 237.983 1113.56 L237.983 1108.84 Q240.807 1107.71 243.261 1107.13 Q245.715 1106.55 247.752 1106.55 Q253.122 1106.55 256.317 1109.23 Q259.511 1111.92 259.511 1116.41 Q259.511 1118.54 258.701 1120.46 Q257.914 1122.36 255.807 1124.95 Q255.229 1125.62 252.127 1128.84 Q249.025 1132.04 243.377 1137.8 Z" fill="#000000" fill-rule="evenodd" fill-opacity="1" /><path clip-path="url(#clip670)" d="M269.557 1107.17 L287.914 1107.17 L287.914 1111.11 L273.84 1111.11 L273.84 1119.58 Q274.858 1119.23 275.877 1119.07 Q276.895 1118.89 277.914 1118.89 Q283.701 1118.89 287.08 1122.06 Q290.46 1125.23 290.46 1130.65 Q290.46 1136.23 286.988 1139.33 Q283.515 1142.41 277.196 1142.41 Q275.02 1142.41 272.752 1142.04 Q270.506 1141.66 268.099 1140.92 L268.099 1136.23 Q270.182 1137.36 272.404 1137.91 Q274.627 1138.47 277.103 1138.47 Q281.108 1138.47 283.446 1136.36 Q285.784 1134.26 285.784 1130.65 Q285.784 1127.04 283.446 1124.93 Q281.108 1122.82 277.103 1122.82 Q275.228 1122.82 273.353 1123.24 Q271.502 1123.66 269.557 1124.54 L269.557 1107.17 Z" fill="#000000" fill-rule="evenodd" fill-opacity="1" /><polyline clip-path="url(#clip674)" style="stroke:#009af9; stroke-linecap:butt; stroke-linejoin:round; stroke-width:4; stroke-opacity:1; fill:none" points="
  383.808,1124.45 393.414,1131.48 403.02,1138.44 412.626,1145.33 422.232,1152.14 431.838,1158.89 441.444,1165.56 451.05,1172.17 460.656,1178.7 470.262,1185.16 
  479.868,1191.55 489.474,1197.87 499.08,1204.12 508.686,1210.29 518.292,1216.4 527.898,1222.43 537.504,1228.4 547.11,1234.29 556.716,1240.11 566.322,1245.86 
  575.928,1251.54 585.535,1257.15 595.141,1262.69 604.747,1268.16 614.353,1273.55 623.959,1278.88 633.565,1284.13 643.171,1289.32 652.777,1294.43 662.383,1299.47 
  671.989,1304.44 681.595,1309.34 691.201,1314.17 700.807,1318.92 710.413,1323.61 720.019,1328.22 729.625,1332.77 739.231,1337.24 748.837,1341.64 758.443,1345.97 
  768.049,1350.23 777.655,1354.42 787.261,1358.54 796.867,1362.59 806.473,1366.56 816.079,1370.47 825.685,1374.3 835.291,1378.07 844.897,1381.76 854.503,1385.38 
  864.109,1388.93 873.715,1392.41 883.321,1395.82 892.927,1399.15 902.534,1402.42 912.14,1405.61 921.746,1408.74 931.352,1411.79 940.958,1414.77 950.564,1417.68 
  960.17,1420.52 969.776,1423.29 979.382,1425.99 988.988,1428.62 998.594,1431.17 1008.2,1433.66 1017.81,1436.07 1027.41,1438.42 1037.02,1440.69 1046.62,1442.89 
  1056.23,1445.02 1065.84,1447.08 1075.44,1449.07 1085.05,1450.98 1094.65,1452.83 1104.26,1454.6 1113.87,1456.31 1123.47,1457.94 1133.08,1459.5 1142.68,1460.99 
  1152.29,1462.41 1161.9,1463.76 1171.5,1465.04 1181.11,1466.25 1190.71,1467.38 1200.32,1468.45 1209.93,1469.44 1219.53,1470.37 1229.14,1471.22 1238.74,1472 
  1248.35,1472.71 1257.96,1473.35 1267.56,1473.92 1277.17,1474.41 1286.77,1474.84 1296.38,1475.19 1305.99,1475.48 1315.59,1475.69 1325.2,1475.83 1334.8,1475.9 
  1344.41,1475.9 1354.02,1475.83 1363.62,1475.69 1373.23,1475.48 1382.84,1475.19 1392.44,1474.84 1402.05,1474.41 1411.65,1473.92 1421.26,1473.35 1430.87,1472.71 
  1440.47,1472 1450.08,1471.22 1459.68,1470.37 1469.29,1469.44 1478.9,1468.45 1488.5,1467.38 1498.11,1466.25 1507.71,1465.04 1517.32,1463.76 1526.93,1462.41 
  1536.53,1460.99 1546.14,1459.5 1555.74,1457.94 1565.35,1456.31 1574.96,1454.6 1584.56,1452.83 1594.17,1450.98 1603.77,1449.07 1613.38,1447.08 1622.99,1445.02 
  1632.59,1442.89 1642.2,1440.69 1651.8,1438.42 1661.41,1436.07 1671.02,1433.66 1680.62,1431.17 1690.23,1428.62 1699.83,1425.99 1709.44,1423.29 1719.05,1420.52 
  1728.65,1417.68 1738.26,1414.77 1747.86,1411.79 1757.47,1408.74 1767.08,1405.61 1776.68,1402.42 1786.29,1399.15 1795.89,1395.82 1805.5,1392.41 1815.11,1388.93 
  1824.71,1385.38 1834.32,1381.76 1843.92,1378.07 1853.53,1374.3 1863.14,1370.47 1872.74,1366.56 1882.35,1362.59 1891.95,1358.54 1901.56,1354.42 1911.17,1350.23 
  1920.77,1345.97 1930.38,1341.64 1939.98,1337.24 1949.59,1332.77 1959.2,1328.22 1968.8,1323.61 1978.41,1318.92 1988.01,1314.17 1997.62,1309.34 2007.23,1304.44 
  2016.83,1299.47 2026.44,1294.43 2036.05,1289.32 2045.65,1284.13 2055.26,1278.88 2064.86,1273.55 2074.47,1268.16 2084.08,1262.69 2093.68,1257.15 2103.29,1251.54 
  2112.89,1245.86 2122.5,1240.11 2132.11,1234.29 2141.71,1228.4 2151.32,1222.43 2160.92,1216.4 2170.53,1210.29 2180.14,1204.12 2189.74,1197.87 2199.35,1191.55 
  2208.95,1185.16 2218.56,1178.7 2228.17,1172.17 2237.77,1165.56 2247.38,1158.89 2256.98,1152.14 2266.59,1145.33 2276.2,1138.44 2285.8,1131.48 2295.41,1124.45 
  
  "/>
<path clip-path="url(#clip670)" d="
M1884.4 1230.01 L2285.21 1230.01 L2285.21 1126.33 L1884.4 1126.33  Z
  " fill="#ffffff" fill-rule="evenodd" fill-opacity="1"/>
<polyline clip-path="url(#clip670)" style="stroke:#000000; stroke-linecap:butt; stroke-linejoin:round; stroke-width:4; stroke-opacity:1; fill:none" points="
  1884.4,1230.01 2285.21,1230.01 2285.21,1126.33 1884.4,1126.33 1884.4,1230.01 
  "/>
<polyline clip-path="url(#clip670)" style="stroke:#009af9; stroke-linecap:butt; stroke-linejoin:round; stroke-width:4; stroke-opacity:1; fill:none" points="
  1906.91,1178.17 2042,1178.17 
  "/>
<path clip-path="url(#clip670)" d="M2077.71 1195.45 L2064.51 1160.89 L2069.4 1160.89 L2080.35 1189.99 L2091.32 1160.89 L2096.18 1160.89 L2083.01 1195.45 L2077.71 1195.45 Z" fill="#000000" fill-rule="evenodd" fill-opacity="1" /><path clip-path="url(#clip670)" d="M2120.74 1203.32 L2120.74 1206.63 L2096.11 1206.63 L2096.11 1203.32 L2120.74 1203.32 Z" fill="#000000" fill-rule="evenodd" fill-opacity="1" /><path clip-path="url(#clip670)" d="M2146.3 1179.8 L2146.3 1195.45 L2142.04 1195.45 L2142.04 1179.94 Q2142.04 1176.26 2140.6 1174.43 Q2139.17 1172.6 2136.3 1172.6 Q2132.85 1172.6 2130.86 1174.8 Q2128.87 1177 2128.87 1180.8 L2128.87 1195.45 L2124.58 1195.45 L2124.58 1159.43 L2128.87 1159.43 L2128.87 1173.55 Q2130.39 1171.21 2132.45 1170.06 Q2134.54 1168.9 2137.24 1168.9 Q2141.71 1168.9 2144 1171.68 Q2146.3 1174.43 2146.3 1179.8 Z" fill="#000000" fill-rule="evenodd" fill-opacity="1" /><path clip-path="url(#clip670)" d="M2166.57 1182.42 Q2161.41 1182.42 2159.42 1183.6 Q2157.43 1184.78 2157.43 1187.62 Q2157.43 1189.89 2158.91 1191.24 Q2160.42 1192.56 2162.99 1192.56 Q2166.53 1192.56 2168.66 1190.06 Q2170.81 1187.53 2170.81 1183.37 L2170.81 1182.42 L2166.57 1182.42 M2175.07 1180.66 L2175.07 1195.45 L2170.81 1195.45 L2170.81 1191.51 Q2169.35 1193.87 2167.18 1195.01 Q2165 1196.12 2161.85 1196.12 Q2157.87 1196.12 2155.51 1193.9 Q2153.17 1191.65 2153.17 1187.9 Q2153.17 1183.53 2156.09 1181.31 Q2159.03 1179.08 2164.84 1179.08 L2170.81 1179.08 L2170.81 1178.67 Q2170.81 1175.73 2168.86 1174.13 Q2166.94 1172.51 2163.45 1172.51 Q2161.23 1172.51 2159.12 1173.04 Q2157.01 1173.57 2155.07 1174.64 L2155.07 1170.7 Q2157.41 1169.8 2159.61 1169.36 Q2161.8 1168.9 2163.89 1168.9 Q2169.51 1168.9 2172.29 1171.81 Q2175.07 1174.73 2175.07 1180.66 Z" fill="#000000" fill-rule="evenodd" fill-opacity="1" /><path clip-path="url(#clip670)" d="M2198.86 1173.5 Q2198.15 1173.09 2197.29 1172.9 Q2196.46 1172.69 2195.44 1172.69 Q2191.83 1172.69 2189.88 1175.06 Q2187.96 1177.39 2187.96 1181.79 L2187.96 1195.45 L2183.68 1195.45 L2183.68 1169.52 L2187.96 1169.52 L2187.96 1173.55 Q2189.3 1171.19 2191.46 1170.06 Q2193.61 1168.9 2196.69 1168.9 Q2197.13 1168.9 2197.66 1168.97 Q2198.19 1169.01 2198.84 1169.13 L2198.86 1173.5 Z" fill="#000000" fill-rule="evenodd" fill-opacity="1" /><path clip-path="url(#clip670)" d="M2222.68 1174.5 Q2224.28 1171.63 2226.5 1170.26 Q2228.73 1168.9 2231.73 1168.9 Q2235.79 1168.9 2237.98 1171.75 Q2240.18 1174.57 2240.18 1179.8 L2240.18 1195.45 L2235.9 1195.45 L2235.9 1179.94 Q2235.9 1176.21 2234.58 1174.41 Q2233.26 1172.6 2230.55 1172.6 Q2227.24 1172.6 2225.32 1174.8 Q2223.4 1177 2223.4 1180.8 L2223.4 1195.45 L2219.12 1195.45 L2219.12 1179.94 Q2219.12 1176.19 2217.8 1174.41 Q2216.48 1172.6 2213.73 1172.6 Q2210.46 1172.6 2208.54 1174.82 Q2206.62 1177.02 2206.62 1180.8 L2206.62 1195.45 L2202.34 1195.45 L2202.34 1169.52 L2206.62 1169.52 L2206.62 1173.55 Q2208.08 1171.17 2210.11 1170.03 Q2212.15 1168.9 2214.95 1168.9 Q2217.78 1168.9 2219.74 1170.33 Q2221.73 1171.77 2222.68 1174.5 Z" fill="#000000" fill-rule="evenodd" fill-opacity="1" /></svg>
